<?xml version="1.0" ?><!DOCTYPE svg  PUBLIC '-//W3C//DTD SVG 1.1//EN'  'http://www.w3.org/Graphics/SVG/1.1/DTD/svg11.dtd'><svg enable-background="new 0 0 64 64" id="Layer_1" version="1.1" viewBox="0 0 64 64" xml:space="preserve" xmlns="http://www.w3.org/2000/svg" xmlns:xlink="http://www.w3.org/1999/xlink"><path d="M56,52c1.1,0,2-0.9,2-2V17c0-1.1-0.9-2-2-2H8c-1.1,0-2,0.9-2,2v33c0,1.1,0.9,2,2,2H56z" fill="#B7B7B7"/><rect fill="#3B97D3" height="6" width="16" x="35" y="20"/><rect fill="none" height="6" stroke="#2C3E50" stroke-linecap="round" stroke-linejoin="round" stroke-miterlimit="10" stroke-width="2" width="16" x="35" y="20"/><path d="  M10,52H8c-1.1,0-2-0.9-2-2V17c0-1.1,0.9-2,2-2h2" fill="none" stroke="#2C3E50" stroke-linecap="round" stroke-linejoin="round" stroke-miterlimit="10" stroke-width="2"/><path d="  M30,15h26c1.1,0,2,0.9,2,2v33c0,1.1-0.9,2-2,2H30" fill="none" stroke="#2C3E50" stroke-linecap="round" stroke-linejoin="round" stroke-miterlimit="10" stroke-width="2"/><circle cx="35.5" cy="31" fill="none" r="0.6" stroke="#2C3E50" stroke-linecap="round" stroke-linejoin="round" stroke-miterlimit="10" stroke-width="2"/><circle cx="40.5" cy="31" fill="none" r="0.6" stroke="#2C3E50" stroke-linecap="round" stroke-linejoin="round" stroke-miterlimit="10" stroke-width="2"/><circle cx="45.5" cy="31" fill="none" r="0.6" stroke="#2C3E50" stroke-linecap="round" stroke-linejoin="round" stroke-miterlimit="10" stroke-width="2"/><circle cx="50.5" cy="31" fill="none" r="0.6" stroke="#2C3E50" stroke-linecap="round" stroke-linejoin="round" stroke-miterlimit="10" stroke-width="2"/><circle cx="35.5" cy="36" fill="none" r="0.6" stroke="#2C3E50" stroke-linecap="round" stroke-linejoin="round" stroke-miterlimit="10" stroke-width="2"/><circle cx="40.5" cy="36" fill="none" r="0.6" stroke="#2C3E50" stroke-linecap="round" stroke-linejoin="round" stroke-miterlimit="10" stroke-width="2"/><circle cx="45.5" cy="36" fill="none" r="0.6" stroke="#2C3E50" stroke-linecap="round" stroke-linejoin="round" stroke-miterlimit="10" stroke-width="2"/><circle cx="50.5" cy="36" fill="none" r="0.6" stroke="#2C3E50" stroke-linecap="round" stroke-linejoin="round" stroke-miterlimit="10" stroke-width="2"/><circle cx="35.5" cy="41" fill="none" r="0.6" stroke="#2C3E50" stroke-linecap="round" stroke-linejoin="round" stroke-miterlimit="10" stroke-width="2"/><circle cx="40.5" cy="41" fill="none" r="0.6" stroke="#2C3E50" stroke-linecap="round" stroke-linejoin="round" stroke-miterlimit="10" stroke-width="2"/><circle cx="45.5" cy="41" fill="none" r="0.6" stroke="#2C3E50" stroke-linecap="round" stroke-linejoin="round" stroke-miterlimit="10" stroke-width="2"/><circle cx="50.5" cy="41" fill="none" r="0.6" stroke="#2C3E50" stroke-linecap="round" stroke-linejoin="round" stroke-miterlimit="10" stroke-width="2"/><circle cx="35.5" cy="46" fill="none" r="0.6" stroke="#2C3E50" stroke-linecap="round" stroke-linejoin="round" stroke-miterlimit="10" stroke-width="2"/><circle cx="40.5" cy="46" fill="none" r="0.6" stroke="#2C3E50" stroke-linecap="round" stroke-linejoin="round" stroke-miterlimit="10" stroke-width="2"/><circle cx="45.5" cy="46" fill="none" r="0.6" stroke="#2C3E50" stroke-linecap="round" stroke-linejoin="round" stroke-miterlimit="10" stroke-width="2"/><circle cx="50.5" cy="46" fill="none" r="0.6" stroke="#2C3E50" stroke-linecap="round" stroke-linejoin="round" stroke-miterlimit="10" stroke-width="2"/><path d="M27,53c0,1.7-1.3,3-3,3h-8c-1.7,0-3-1.3-3-3V13c0-1.7,1.3-3,3-3h8c1.7,0,3,1.3,3,3V53z" fill="#969696"/><path d="  M27,53c0,1.7-1.3,3-3,3h-8c-1.7,0-3-1.3-3-3V13c0-1.7,1.3-3,3-3h8c1.7,0,3,1.3,3,3V53z" fill="none" stroke="#2C3E50" stroke-linecap="round" stroke-linejoin="round" stroke-miterlimit="10" stroke-width="2"/><line fill="none" stroke="#2C3E50" stroke-linecap="round" stroke-linejoin="round" stroke-miterlimit="10" stroke-width="2" x1="20" x2="20" y1="10" y2="5"/></svg>