<?xml version="1.0" encoding="iso-8859-1"?>
<!-- Generator: Adobe Illustrator 19.0.0, SVG Export Plug-In . SVG Version: 6.00 Build 0)  -->
<svg version="1.1" id="Capa_1" xmlns="http://www.w3.org/2000/svg" xmlns:xlink="http://www.w3.org/1999/xlink" x="0px" y="0px"
	 viewBox="0 0 512 512" style="enable-background:new 0 0 512 512;" xml:space="preserve">
<circle style="fill:#1A2B63;" cx="256" cy="256" r="245"/>
<path style="fill:#85A0DD;" d="M463.888,121.916c-2.763,0-5.637,2.044-6.544,4.654l-2.556,6.137
	c-1.199,2.422-0.621,5.894,1.343,7.843l9.546,9.475c0.605,0.6,0.939,1.403,0.939,2.259s-0.334,1.659-0.939,2.259l-17.313,17.182
	c-0.607,0.603-1.419,0.935-2.287,0.935c-0.868,0-1.681-0.332-2.288-0.935l-9.545-9.474c-1.223-1.214-3.111-1.938-5.049-1.938
	c-1.043,0-2.037,0.216-2.876,0.624l-6.225,2.549c-2.56,0.874-4.609,3.742-4.609,6.506v13.359c0,1.773-1.442,3.216-3.216,3.216
	h-24.516c-1.773,0-3.216-1.442-3.216-3.216v-13.359c0-2.765-2.049-5.632-4.665-6.527l-6.226-2.555
	c-0.781-0.382-1.775-0.598-2.817-0.598c-1.938,0-3.826,0.725-5.049,1.938l-9.545,9.474c-0.607,0.604-1.42,0.936-2.288,0.936
	s-1.681-0.332-2.288-0.935l-17.314-17.182c-0.605-0.601-0.939-1.403-0.939-2.259c0-0.857,0.333-1.659,0.938-2.259l9.549-9.475
	c1.965-1.95,2.543-5.421,1.316-7.902l-2.551-6.134c-0.886-2.554-3.761-4.598-6.523-4.598h-13.528c-0.855,0-1.661-0.335-2.271-0.945
	c-0.61-0.609-0.945-1.415-0.945-2.27V106.43H48c-5.5,0-10,4.5-10,10v269h436V121.916H463.888z"/>
<path style="fill:#FFFFFF;" d="M448.365,171.726c-0.607,0.603-1.419,0.935-2.287,0.935c-0.868,0-1.681-0.332-2.288-0.935
	l-9.545-9.474c-1.223-1.214-3.111-1.938-5.049-1.938c-1.043,0-2.037,0.216-2.876,0.624l-6.225,2.549
	c-2.56,0.874-4.609,3.742-4.609,6.506v13.359c0,1.773-1.442,3.216-3.216,3.216h-24.516c-1.773,0-3.216-1.442-3.216-3.216v-13.359
	c0-2.765-2.049-5.632-4.665-6.527l-6.226-2.555c-0.781-0.382-1.775-0.598-2.817-0.598c-1.938,0-3.826,0.725-5.049,1.938
	l-9.545,9.474c-0.607,0.604-1.42,0.936-2.288,0.936s-1.681-0.332-2.288-0.935l-17.314-17.182c-0.605-0.601-0.939-1.403-0.939-2.259
	c0-0.857,0.333-1.659,0.938-2.259l9.549-9.475c1.965-1.95,2.543-5.421,1.316-7.902l-0.506-1.218H68c-2.75,0-5,2.25-5,5v222
	c0,2.75,2.25,5,5,5h376c2.75,0,5-2.25,5-5V171.096L448.365,171.726z"/>
<path style="fill:#5DC1D8;" d="M252.834,207.936c0-1.92,1.561-3.481,3.481-3.481h13.039V157.16c0-2.75-2.25-5-5-5h-66.646
	c-2.75,0-5,2.25-5,5v59.007c0,2.75,2.25,5,5,5h55.126L252.834,207.936L252.834,207.936z"/>
<path style="fill:#69CDFF;" d="M426.319,160.938l-6.225,2.549c-2.56,0.874-4.609,3.742-4.609,6.506v13.359
	c0,1.773-1.442,3.216-3.216,3.216h-24.516c-1.773,0-3.216-1.442-3.216-3.216v-13.359c0-2.765-2.049-5.632-4.665-6.527l-6.226-2.555
	c-0.781-0.382-1.775-0.598-2.817-0.598c-1.938,0-3.826,0.725-5.049,1.938l-9.545,9.474c-0.607,0.604-1.42,0.936-2.288,0.936
	s-1.681-0.332-2.288-0.935l-17.314-17.182c-0.605-0.601-0.939-1.403-0.939-2.259c0-0.043,0.011-0.083,0.012-0.126h-47.71
	c-2.75,0-5,2.25-5,5v47.295h48.311c1.92,0,3.481,1.562,3.481,3.481v13.23h88.854c2.75,0,5-2.25,5-5v-55.243
	C426.343,160.929,426.331,160.932,426.319,160.938z"/>
<path style="fill:#28A5A5;" d="M212.55,216.166v-59.007c0-2.75,2.25-5,5-5h-19.842c-2.75,0-5,2.25-5,5v59.007c0,2.75,2.25,5,5,5
	h19.842C214.8,221.166,212.55,218.916,212.55,216.166z"/>
<path style="fill:#3EB7FF;" d="M300.55,204.454v-47.295c0-2.75,2.25-5,5-5h-19.842c-2.75,0-5,2.25-5,5v47.295H300.55z"/>
<path style="fill:#D9EAFC;" d="M68,131.431c-2.75,0-5,2.25-5,5v222c0,2.75,2.25,5,5,5h101v-232H68z"/>
<path style="fill:#C3DDF4;" d="M82.842,358.431v-222c0-2.75,2.25-5,5-5H68c-2.75,0-5,2.25-5,5v222c0,2.75,2.25,5,5,5h19.842
	C85.092,363.431,82.842,361.181,82.842,358.431z"/>
<path style="fill:#445EA0;" d="M512,425.431c0,2.75-2.25,5-5,5H5c-2.75,0-5-2.25-5-5v-36c0-2.75,2.25-5,5-5h502c2.75,0,5,2.25,5,5
	V425.431z"/>
<path style="fill:#293D7C;" d="M19.842,425.431v-36c0-2.75,2.25-5,5-5H5c-2.75,0-5,2.25-5,5v36c0,2.75,2.25,5,5,5h19.842
	C22.092,430.431,19.842,428.181,19.842,425.431z"/>
<g>
	<path style="fill:#445EA0;" d="M140.701,189.662H83.696c-4.142,0-7.5-3.358-7.5-7.5s3.358-7.5,7.5-7.5h57.005
		c4.142,0,7.5,3.358,7.5,7.5S144.843,189.662,140.701,189.662z"/>
	<path style="fill:#445EA0;" d="M140.701,222.665H83.696c-4.142,0-7.5-3.358-7.5-7.5s3.358-7.5,7.5-7.5h57.005
		c4.142,0,7.5,3.358,7.5,7.5C148.201,219.307,144.843,222.665,140.701,222.665z"/>
	<path style="fill:#445EA0;" d="M140.701,255.669H83.696c-4.142,0-7.5-3.358-7.5-7.5s3.358-7.5,7.5-7.5h57.005
		c4.142,0,7.5,3.358,7.5,7.5S144.843,255.669,140.701,255.669z"/>
	<path style="fill:#445EA0;" d="M140.701,288.672H83.696c-4.142,0-7.5-3.358-7.5-7.5s3.358-7.5,7.5-7.5h57.005
		c4.142,0,7.5,3.358,7.5,7.5S144.843,288.672,140.701,288.672z"/>
	<path style="fill:#445EA0;" d="M123.701,321.676H83.696c-4.142,0-7.5-3.358-7.5-7.5s3.358-7.5,7.5-7.5h40.005
		c4.142,0,7.5,3.358,7.5,7.5S127.843,321.676,123.701,321.676z"/>
</g>
<g>
	<path style="fill:#91E0E8;" d="M215.207,340.057c0,1.65-1.35,3-3,3h-16.499c-1.65,0-3-1.35-3-3v-86.995c0-1.65,1.35-3,3-3h16.499
		c1.65,0,3,1.35,3,3V340.057z"/>
	<path style="fill:#91E0E8;" d="M245.206,340.057c0,1.65-1.35,3-3,3h-16.499c-1.65,0-3-1.35-3-3V284.56c0-1.65,1.35-3,3-3h16.499
		c1.65,0,3,1.35,3,3V340.057z"/>
	<path style="fill:#91E0E8;" d="M275.204,340.057c0,1.65-1.35,3-3,3h-16.499c-1.65,0-3-1.35-3-3v-38.998c0-1.65,1.35-3,3-3h16.499
		c1.65,0,3,1.35,3,3V340.057z"/>
</g>
<g>
	<path style="fill:#52BBEF;" d="M305.203,340.057c0,1.65-1.35,3-3,3h-16.499c-1.65,0-3-1.35-3-3v-70.496c0-1.65,1.35-3,3-3h16.499
		c1.65,0,3,1.35,3,3V340.057z"/>
	<path style="fill:#52BBEF;" d="M335.201,340.057c0,1.65-1.35,3-3,3h-16.499c-1.65,0-3-1.35-3-3V292.06c0-1.65,1.35-3,3-3h16.499
		c1.65,0,3,1.35,3,3V340.057z"/>
	<path style="fill:#52BBEF;" d="M365.2,340.057c0,1.65-1.35,3-3,3h-16.499c-1.65,0-3-1.35-3-3v-29.998c0-1.65,1.35-3,3-3H362.2
		c1.65,0,3,1.35,3,3V340.057z"/>
</g>
<g>
	<path style="fill:#F87EAB;" d="M395.198,340.057c0,1.65-1.35,3-3,3h-16.499c-1.65,0-3-1.35-3-3v-67.496c0-1.65,1.35-3,3-3h16.499
		c1.65,0,3,1.35,3,3V340.057z"/>
	<path style="fill:#F87EAB;" d="M425.197,340.057c0,1.65-1.35,3-3,3h-16.499c-1.65,0-3-1.35-3-3v-86.995c0-1.65,1.35-3,3-3h16.499
		c1.65,0,3,1.35,3,3V340.057z"/>
</g>
<g>
	<path style="fill:#5DC1D8;" d="M203.55,340.057v-86.995c0-1.65,1.35-3,3-3h-10.842c-1.65,0-3,1.35-3,3v86.995c0,1.65,1.35,3,3,3
		h10.842C204.9,343.057,203.55,341.707,203.55,340.057z"/>
	<path style="fill:#5DC1D8;" d="M233.549,340.057V284.56c0-1.65,1.35-3,3-3h-10.842c-1.65,0-3,1.35-3,3v55.497c0,1.65,1.35,3,3,3
		h10.842C234.899,343.057,233.549,341.707,233.549,340.057z"/>
	<path style="fill:#5DC1D8;" d="M263.547,340.057v-38.998c0-1.65,1.35-3,3-3h-10.842c-1.65,0-3,1.35-3,3v38.998c0,1.65,1.35,3,3,3
		h10.842C264.897,343.057,263.547,341.707,263.547,340.057z"/>
</g>
<g>
	<path style="fill:#3EB7FF;" d="M293.546,340.057v-70.496c0-1.65,1.35-3,3-3h-10.842c-1.65,0-3,1.35-3,3v70.496c0,1.65,1.35,3,3,3
		h10.842C294.896,343.057,293.546,341.707,293.546,340.057z"/>
	<path style="fill:#3EB7FF;" d="M323.544,340.057V292.06c0-1.65,1.35-3,3-3h-10.842c-1.65,0-3,1.35-3,3v47.997c0,1.65,1.35,3,3,3
		h10.842C324.895,343.057,323.544,341.707,323.544,340.057z"/>
	<path style="fill:#3EB7FF;" d="M353.543,340.057v-29.998c0-1.65,1.35-3,3-3h-10.842c-1.65,0-3,1.35-3,3v29.998c0,1.65,1.35,3,3,3
		h10.842C354.893,343.057,353.543,341.707,353.543,340.057z"/>
</g>
<g>
	<path style="fill:#E26693;" d="M383.542,340.057v-67.496c0-1.65,1.35-3,3-3H375.7c-1.65,0-3,1.35-3,3v67.496c0,1.65,1.35,3,3,3
		h10.842C384.892,343.057,383.542,341.707,383.542,340.057z"/>
	<path style="fill:#E26693;" d="M413.54,340.057v-86.995c0-1.65,1.35-3,3-3h-10.842c-1.65,0-3,1.35-3,3v86.995c0,1.65,1.35,3,3,3
		h10.842C414.89,343.057,413.54,341.707,413.54,340.057z"/>
</g>
<path style="fill:#293D7C;" d="M193,384.431v11c0,5.5,4.5,10,10,10h106c5.5,0,10-4.5,10-10v-11H193z"/>
<path style="fill:#1A2B63;" d="M212.842,395.431v-11H193v11c0,5.5,4.5,10,10,10h19.842
	C217.342,405.431,212.842,400.931,212.842,395.431z"/>
<path style="fill:#FFD00D;" d="M333.5,207.936c0-2.464-2.017-4.481-4.481-4.481h-72.703c-2.464,0-4.481,2.018-4.481,4.481v32.865
	c0,2.465,2.017,4.481,4.481,4.481h23.35c2.465,0,5.49,1.746,6.723,3.882l4.038,6.993c1.232,2.135,3.249,2.135,4.481,0l4.038-6.993
	c1.233-2.136,4.258-3.882,6.723-3.882h23.35c2.464,0,4.481-2.017,4.481-4.481L333.5,207.936L333.5,207.936z"/>
<path style="fill:#FFAF10;" d="M271.676,240.801v-32.865c0-2.464,2.017-4.481,4.481-4.481h-19.842c-2.464,0-4.481,2.018-4.481,4.481
	v32.865c0,2.465,2.017,4.481,4.481,4.481h19.842C273.693,245.282,271.676,243.266,271.676,240.801z"/>
<path style="fill:#EF8318;" d="M383.537,183.353c0,2.318,1.897,4.216,4.216,4.216h24.516c2.319,0,4.216-1.897,4.216-4.216v-13.359
	c0-2.319,1.795-4.83,3.989-5.581l6.283-2.575c2.085-1.015,5.137-0.509,6.783,1.125l9.545,9.474c1.646,1.633,4.339,1.633,5.984,0
	l17.313-17.182c1.645-1.633,1.645-4.306,0-5.938l-9.546-9.475c-1.645-1.633-2.151-4.671-1.125-6.749l2.577-6.193
	c0.761-2.19,3.28-3.982,5.599-3.982h13.529c2.319,0.001,4.216-1.895,4.216-4.215V94.437c0-2.319-1.897-4.216-4.216-4.216h-13.529
	c-2.319,0-4.838-1.793-5.599-3.982l-2.577-6.193c-1.027-2.079-0.521-5.115,1.125-6.749l9.545-9.473
	c1.646-1.633,1.646-4.306,0.001-5.938L449.07,40.703c-1.645-1.632-4.338-1.632-5.984,0l-9.546,9.474
	c-1.646,1.634-4.698,2.139-6.783,1.125l-6.282-2.575c-2.194-0.751-3.989-3.262-3.989-5.581v-13.36c0-2.318-1.897-4.216-4.216-4.216
	h-24.516c-2.319,0-4.216,1.897-4.216,4.216v13.36c0,2.319-1.795,4.83-3.988,5.581l-6.279,2.575
	c-2.085,1.014-5.137,0.509-6.783-1.125l-9.547-9.474c-1.646-1.633-4.339-1.633-5.985,0L333.64,57.884
	c-1.646,1.634-1.646,4.306,0,5.938l9.546,9.475c1.646,1.633,2.152,4.67,1.125,6.748l-2.577,6.193
	c-0.761,2.189-3.281,3.982-5.6,3.982h-13.528c-2.319,0-4.216,1.896-4.216,4.216v24.265c0,2.319,1.897,4.216,4.216,4.215h13.528
	c2.318,0,4.838,1.792,5.6,3.982l2.578,6.193c1.028,2.078,0.522,5.116-1.125,6.749l-9.548,9.475c-1.646,1.633-1.646,4.306,0,5.938
	l17.315,17.182c1.646,1.633,4.339,1.633,5.985-0.001l9.545-9.474c1.646-1.633,4.698-2.139,6.783-1.125l6.282,2.576
	c2.193,0.751,3.988,3.262,3.988,5.581L383.537,183.353L383.537,183.353z"/>
<ellipse style="fill:#FF9518;" cx="400.01" cy="106.57" rx="39.28" ry="38.984"/>
<path style="fill:#EF8318;" d="M372.679,106.569c0-19.516,14.447-35.681,33.307-38.536c-1.948-0.295-3.943-0.447-5.974-0.447
	c-21.696,0-39.282,17.452-39.282,38.983c0,21.53,17.586,38.985,39.282,38.985c2.031,0,4.026-0.153,5.974-0.449
	C387.126,142.25,372.679,126.084,372.679,106.569z"/>
<path style="fill:#DB722C;" d="M400.012,151.878c-25.147,0-45.606-20.325-45.606-45.309c0-24.982,20.459-45.308,45.606-45.308
	c25.148,0,45.607,20.325,45.607,45.308C445.617,131.553,425.159,151.878,400.012,151.878z M400.012,73.909
	c-18.172,0-32.958,14.651-32.959,32.66c0,18.01,14.786,32.662,32.959,32.662c18.174,0,32.959-14.652,32.959-32.662
	C432.971,88.561,418.185,73.909,400.012,73.909z"/>
<ellipse style="fill:#FF9518;" cx="400.01" cy="106.57" rx="16.605" ry="16.479"/>
<path style="fill:#EF8318;" d="M395.355,106.569c0-7.009,4.416-12.98,10.632-15.362c-1.857-0.712-3.866-1.117-5.975-1.117
	c-9.172,0-16.605,7.377-16.605,16.479s7.434,16.479,16.605,16.479c2.109,0,4.118-0.405,5.975-1.117
	C399.771,119.549,395.355,113.577,395.355,106.569z"/>
<path style="fill:#DB722C;" d="M400.012,129.373c-12.643,0-22.929-10.23-22.929-22.804c0-12.573,10.286-22.804,22.929-22.804
	s22.929,10.229,22.929,22.804C422.94,119.143,412.654,129.373,400.012,129.373z M400.012,96.413
	c-5.669,0-10.282,4.556-10.282,10.156c0,5.601,4.612,10.156,10.282,10.156c5.669,0,10.281-4.557,10.281-10.156
	C410.293,100.969,405.681,96.413,400.012,96.413z"/>
<g>
</g>
<g>
</g>
<g>
</g>
<g>
</g>
<g>
</g>
<g>
</g>
<g>
</g>
<g>
</g>
<g>
</g>
<g>
</g>
<g>
</g>
<g>
</g>
<g>
</g>
<g>
</g>
<g>
</g>
</svg>
