<?xml version="1.0" encoding="UTF-8"?>
<svg width="512pt" height="512pt" viewBox="0 0 512 512" xmlns="http://www.w3.org/2000/svg">
<path d="m512 256c0 141.39-114.61 256-256 256s-256-114.61-256-256 114.61-256 256-256 256 114.61 256 256z" fill="#575f64"/>
<path d="m511.32 237.34-105.96-105.96-4.2891 4.2891-40.02-40.023-4.0469 59.105-14.668 19.582-42.602-42.953-3.9961 4-39.711-39.715-4.043 59.105-14.648 19.23-42.641-42.621-4 4-39.711-39.715-4.043 59.105 2.8828 3.0117-25.93 25.93 110.48 110.48-2.5898 2.5859 47.555 47.555-2.8867 3.2109-84.082-84.086-49.605 49.605 22.582 22.582-58.719 58.719 115.38 115.38c11.125 1.4766 22.469 2.25 33.996 2.25 141.39 0 256-114.61 256-256 0-6.2773-0.23828-12.496-0.67969-18.66z" fill="#32393f"/>
<path d="m343.53 324.36c-19.309 0-35.012-15.703-35.012-35.012s15.703-35.594 35.012-35.594 35.012 16.285 35.012 35.594-15.703 35.012-35.012 35.012z" fill="#f6a96c"/>
<path d="m343.53 324.36c-13.324 0-25.566 4.3633-35.621 11.59l-12.852 29.031 22.215 29.402h88.113v-8.7539c0-33.84-28.016-61.27-61.855-61.27z" fill="#32ddf9"/>
<path d="m150.96 169.56-27.113 14.172 5.1484-31.082-22.383-21.258 31.031-4.3789 13.316-31.395 13.645 31.395 30.121 4.3789-21.797 21.258 5.1445 31.082z" fill="#ffda2d"/>
<path d="m277.88 152.57 5.25 31.16-27.133-14.18-27.133 14.18 5.25-31.16-21.883-21.18 30.461-4.3789 13.305-31.395 13.656 31.395 30.109 4.3789z" fill="#ffda2d"/>
<path d="m361.04 169.56-27.113 14.172 5.1445-31.082-21.797-21.258 30.445-4.3789 13.32-31.395 13.641 31.395 30.707 4.3789-22.383 21.258 5.1484 31.082z" fill="#fdbf00"/>
<path d="m168.47 324.36c-19.309 0-35.012-15.703-35.012-35.012s15.703-35.594 35.012-35.594 35.012 16.285 35.012 35.594-15.703 35.012-35.012 35.012z" fill="#ffbd86"/>
<path d="m168.47 324.36c-33.84 0-61.855 27.43-61.855 61.27v8.7539h88.113l21.711-26.262-12.348-32.172c-10.055-7.2266-22.297-11.59-35.621-11.59z" fill="#84ecf7"/>
<path d="m283.13 183.73-27.133-14.18v-73.934l13.656 31.395 30.109 4.3789-21.883 21.18z" fill="#fdbf00"/>
<path d="m256 236.25c-19.258 0-35.012 15.754-35.012 35.012 0 19.258 15.754 35.594 35.012 35.594s35.012-16.336 35.012-35.594c0-19.254-15.754-35.012-35.012-35.012z" fill="#fed2a4"/>
<path d="m317.27 368.12v26.262h-122.54v-26.262c0-11.902 3.5-22.754 9.2773-32.211 10.852-17.328 30.109-29.059 51.992-29.059s41.137 11.73 51.988 29.059c5.7812 9.457 9.2812 20.309 9.2812 32.211z" fill="#ff637b"/>
<path d="m256 306.85v-70.605c19.258 0 35.012 15.754 35.012 35.012 0 19.258-15.754 35.594-35.012 35.594z" fill="#f6a96c"/>
<path d="m317.27 368.12v26.262h-61.27v-87.531c21.883 0 41.137 11.73 51.992 29.059 5.7773 9.457 9.2773 20.309 9.2773 32.211z" fill="#e63950"/>
</svg>
