<?xml version="1.0" encoding="iso-8859-1"?>
<!-- Generator: Adobe Illustrator 19.0.0, SVG Export Plug-In . SVG Version: 6.00 Build 0)  -->
<svg version="1.1" id="Capa_1" xmlns="http://www.w3.org/2000/svg" xmlns:xlink="http://www.w3.org/1999/xlink" x="0px" y="0px"
	 viewBox="0 0 512 512" style="enable-background:new 0 0 512 512;" xml:space="preserve">
<g>
	<circle style="fill:#FF328E;" cx="256" cy="256" r="256"/>
	<path style="fill:#FF328E;" d="M512,256c0,141.38-114.62,256-256,256c-2.45,0-4.89-0.03-7.32-0.1c-7.55-0.21-15.03-0.75-22.41-1.61
		c-4.66-0.54-9.29-1.2-13.87-2c-15.02-2.57-29.59-6.45-43.59-11.53c-15.26-5.52-29.85-12.46-43.6-20.66
		c-4.72-2.8-9.35-5.76-13.87-8.87c-7.79-5.34-15.28-11.11-22.41-17.27C34.47,403.02,0,333.54,0,256C0,114.62,114.62,0,256,0
		S512,114.62,512,256z"/>
</g>
<path style="fill:#B10853;" d="M125.21,476.1c13.75,8.2,28.34,15.14,43.6,20.66c14,5.08,28.57,8.96,43.59,11.53
	c4.58,0.8,9.21,1.46,13.87,2c7.38,0.86,14.86,1.4,22.41,1.61c2.43,0.07,4.87,0.1,7.32,0.1c141.38,0,256-114.62,256-256
	c0-21.681-2.707-42.729-7.781-62.835l-91.257-91.369c-16.737-17.789-40.492-28.9-66.845-28.9c-50.684,0-91.771,41.087-91.771,91.771
	c0,26.826,11.512,50.962,29.864,67.742l-0.626,3.086l-66.701-66.684c-6.188-7.411-15.494-12.127-25.904-12.127
	c-6.554,0-12.667,1.873-17.843,5.109c-2.64,1.651-6.021,1.651-8.661,0c-5.175-3.236-11.289-5.109-17.843-5.109
	c-18.633,0-33.737,15.105-33.737,33.737c0,0.666,0.025,1.325,0.063,1.982c0.001,0.02-0.014,0.037-0.034,0.039
	c-17.061,1.68-30.392,16.067-30.392,33.57c0,10.092,4.437,19.142,11.46,25.324c0.02,0.017,0.016,0.048-0.007,0.06
	c-10.455,5.731-17.545,16.838-17.545,29.603c0,11.138,5.41,20.999,13.733,27.141c0.822,1.107,1.71,2.16,2.658,3.157
	c-2.19,4.432-3.448,9.406-3.484,14.676c-0.06,8.706,3.374,16.672,8.946,22.7c-5.816,6.522-9.364,15.104-9.364,24.475v76.81
	c1.355,1.171,2.735,2.314,4.116,3.457c0.986,0.81,1.974,1.617,2.97,2.415l0,0c4.964,3.982,10.069,7.796,15.324,11.398
	C115.86,470.34,120.49,473.3,125.21,476.1z"/>
<path style="fill:#3C3B41;" d="M261.17,281.001c0-12.764-7.09-23.872-17.545-29.603c-0.023-0.012-0.026-0.043-0.007-0.06
	c7.023-6.182,11.46-15.233,11.46-25.324c0-17.503-13.33-31.89-30.392-33.57c-0.02-0.002-0.035-0.019-0.033-0.039
	c0.038-0.656,0.063-1.316,0.063-1.982c0-18.633-15.105-33.737-33.737-33.737c-6.554,0-12.668,1.873-17.843,5.109
	c-2.64,1.651-6.021,1.651-8.661,0c-5.175-3.236-11.289-5.109-17.843-5.109c-18.633,0-33.737,15.105-33.737,33.737
	c0,0.666,0.025,1.325,0.063,1.982c0.001,0.02-0.014,0.037-0.034,0.039c-17.061,1.68-30.392,16.067-30.392,33.57
	c0,10.092,4.437,19.142,11.46,25.324c0.02,0.017,0.016,0.048-0.007,0.06c-10.455,5.731-17.545,16.838-17.545,29.603
	c0,12.494,6.797,23.393,16.89,29.224c0.017,0.01,0.023,0.031,0.014,0.049c-2.514,4.682-3.957,10.024-3.996,15.701
	c-0.128,18.687,15.825,33.973,34.513,33.973h89.889c18.688,0,34.642-15.286,34.513-33.974c-0.039-5.676-1.482-11.018-3.996-15.7
	c-0.01-0.018-0.003-0.039,0.014-0.049C254.373,304.394,261.17,293.495,261.17,281.001z"/>
<path style="fill:#171719;" d="M244.281,310.231c-0.013,0-0.026,0.026-0.013,0.039c2.514,4.681,3.95,10.03,3.989,15.698
	c0.141,18.7-15.814,33.975-34.501,33.975h-44.953v-196.91c1.501,0,3.014-0.423,4.335-1.244c5.169-3.232,11.287-5.105,17.84-5.105
	c18.635,0,33.744,15.108,33.744,33.744c0,0.654-0.026,1.321-0.064,1.975c0,0.026,0.013,0.038,0.026,0.038
	c17.071,1.68,30.396,16.07,30.396,33.577c0,10.081-4.438,19.136-11.466,25.318c-0.013,0.013-0.013,0.051,0.013,0.064
	c10.453,5.733,17.545,16.84,17.545,29.601C261.172,293.494,254.374,304.395,244.281,310.231z"/>
<rect x="147.18" y="314.83" style="fill:#FFC473;" width="43.25" height="54.56"/>
<rect x="168.8" y="314.83" style="fill:#FFAA20;" width="21.626" height="54.56"/>
<path style="fill:#00EFD1;" d="M248.68,373.15V511.9c-7.55-0.21-15.03-0.75-22.41-1.61c-4.66-0.54-9.29-1.2-13.87-2
	c-15.02-2.57-29.59-6.45-43.59-11.53c-15.26-5.52-29.85-12.46-43.6-20.66c-4.72-2.8-9.35-5.76-13.87-8.87
	c-7.79-5.34-15.28-11.11-22.41-17.27v-76.81c0-17.54,12.42-32.32,28.9-35.99c0.16-0.04,0.33-0.07,0.5-0.11
	c0.16-0.03,0.33-0.07,0.5-0.1c0.07-0.02,0.13-0.03,0.19-0.04l0.41-0.08c0.03,0,0.06-0.01,0.09-0.01c0.12-0.02,0.23-0.04,0.34-0.05
	c0.22-0.04,0.46-0.08,0.69-0.11c0.04-0.01,0.1-0.01,0.14-0.02c0.06-0.01,0.11-0.01,0.16-0.03c0.14-0.01,0.27-0.04,0.41-0.05
	c0.02,0,0.04,0,0.06-0.01c0.05,0,0.1-0.01,0.15-0.01c0.07-0.01,0.14-0.02,0.21-0.03c0.34-0.03,0.69-0.07,1.03-0.1h0.06
	c0.11-0.02,0.22-0.02,0.33-0.03c0.03,0,0.06-0.01,0.09-0.01c0.19,0,0.38-0.02,0.57-0.03c0.33-0.02,0.68-0.04,1.02-0.04
	c0.33-0.01,0.67-0.02,1.02-0.02h86.01c0.29,0,0.58,0.01,0.86,0.02h0.35c0.05,0,0.08,0,0.12,0.01c0.24,0,0.47,0.01,0.7,0.03h0.01
	c0.19,0.01,0.38,0.03,0.58,0.03c0.02,0,0.05,0.01,0.08,0.01c0.11,0.01,0.22,0.01,0.33,0.03h0.06c0.35,0.02,0.69,0.06,1.03,0.1
	c0.07,0.01,0.14,0.02,0.21,0.03c0.05,0,0.1,0.01,0.15,0.01c0.02,0.01,0.05,0.01,0.06,0.01c0.14,0.01,0.27,0.04,0.41,0.05
	c0.05,0.02,0.1,0.02,0.17,0.03c0.03,0.01,0.08,0.01,0.11,0.02h0.02c0.35,0.05,0.69,0.1,1.03,0.16c0.03,0,0.06,0.01,0.09,0.01
	l0.41,0.08c0.21,0.04,0.42,0.08,0.63,0.13c0.13,0.02,0.25,0.05,0.38,0.08c0.06,0.01,0.12,0.03,0.18,0.04
	C236.26,340.83,248.68,355.61,248.68,373.15z"/>
<g>
	<path style="fill:#00CEB4;" d="M248.68,373.15V511.9c-7.55-0.21-15.03-0.75-22.41-1.61c-4.66-0.54-9.29-1.2-13.87-2
		c-15.02-2.57-29.59-6.45-43.59-11.53V336.28h43c0.29,0,0.58,0.01,0.86,0.02h0.35c0.05,0,0.08,0,0.12,0.01
		c0.24,0,0.47,0.01,0.7,0.03h0.01c0.19,0.01,0.38,0.03,0.58,0.03c0.02,0,0.05,0.01,0.08,0.01c0.11,0.01,0.22,0.01,0.33,0.03h0.06
		c0.35,0.02,0.69,0.06,1.03,0.1c0.07,0.01,0.14,0.02,0.21,0.03c0.05,0,0.1,0.01,0.15,0.01c0.02,0.01,0.05,0.01,0.06,0.01
		c0.14,0.01,0.27,0.04,0.41,0.05c0.05,0.02,0.1,0.02,0.17,0.03c0.03,0.01,0.08,0.01,0.11,0.02h0.02c0.35,0.05,0.69,0.1,1.03,0.16
		c0.03,0,0.06,0.01,0.09,0.01l0.41,0.08c0.21,0.04,0.42,0.08,0.63,0.13c0.13,0.02,0.25,0.05,0.38,0.08
		c0.06,0.01,0.12,0.03,0.18,0.04C236.26,340.83,248.68,355.61,248.68,373.15z"/>
	<path style="fill:#00CEB4;" d="M125.21,395.46v80.64c-4.72-2.8-9.35-5.76-13.87-8.87v-71.77H125.21z"/>
</g>
<path style="fill:#00AD95;" d="M226.27,395.46v114.83c-4.66-0.54-9.29-1.2-13.87-2V395.46H226.27z"/>
<path style="fill:#FFDBA9;" d="M224.475,242.851c-2.324-34.216-31.504-53.635-55.669-53.635s-53.345,19.42-55.669,53.635
	c-6.253,1.171-10.691,7.015-9.995,13.441l1.077,9.942c0.731,6.745,6.847,11.666,13.592,10.935l1.162-0.126
	c13.807,35.941,36.089,45.194,49.834,47.296c13.745-2.102,36.027-11.355,49.835-47.296l1.162,0.126
	c6.745,0.731,12.861-4.19,13.591-10.935l1.077-9.942C235.165,249.866,230.728,244.022,224.475,242.851z"/>
<path style="fill:#FFC473;" d="M234.472,256.292l-1.078,9.944c-0.733,6.744-6.846,11.663-13.591,10.935l-1.165-0.126
	c-13.804,35.941-36.087,45.191-49.833,47.293V189.217c23.836,0,52.552,18.893,55.562,52.246c0.044,0.481,0.078,0.942,0.107,1.389
	C230.728,244.022,235.166,249.868,234.472,256.292z"/>
<polygon style="fill:#FFA91F;" points="168.809,247.066 168.809,285.604 180.059,285.604 180.059,258.317 204.567,258.317 
	204.567,247.066 "/>
<rect x="132.21" y="247.07" style="fill:#FFC473;" width="28.692" height="11.25"/>
<path style="fill:#57555C;" d="M113.136,242.851c0,0,32.472-0.478,55.668-25.774h0.002c23.196,25.296,55.668,25.774,55.668,25.774
	c0-25.986,0.002-63.24-55.668-63.24S113.136,216.862,113.136,242.851z"/>
<path style="fill:#3C3B41;" d="M224.471,242.85c0,0-8.118-0.119-19.133-3.398c-11.02-3.284-24.936-9.727-36.534-22.375v-37.466
	C224.477,179.611,224.471,216.867,224.471,242.85z"/>
<path style="fill:#FFFFFF;" d="M346.117,72.896c-50.684,0-91.771,41.088-91.771,91.771c0,26.826,11.512,50.962,29.864,67.742
	l-4.875,24.029l30.669-7.383c11.084,4.75,23.291,7.383,36.113,7.383c50.684,0,91.771-41.088,91.771-91.771
	C437.888,113.984,396.801,72.896,346.117,72.896z"/>
<path style="fill:#FFF5CB;" d="M437.886,164.665c0,50.687-41.084,91.772-91.772,91.772V72.893
	C396.802,72.893,437.886,113.986,437.886,164.665z"/>
<circle style="fill:#FFE670;" cx="346.12" cy="164.67" r="58.818"/>
<path style="fill:#FFD400;" d="M404.936,164.668c0,32.487-26.336,58.816-58.823,58.816V105.852
	C378.6,105.852,404.936,132.18,404.936,164.668z"/>
<circle style="fill:#AB3CCC;" cx="323.26" cy="150.87" r="10.1"/>
<circle style="fill:#681F7B;" cx="368.97" cy="150.87" r="10.1"/>
<path style="fill:#AB3CCC;" d="M346.115,202.713c15.184,0,28.119-10.423,33.033-25.019h-66.066
	C317.997,192.29,330.931,202.713,346.115,202.713z"/>
<path style="fill:#681F7B;" d="M379.151,177.693c-4.914,14.599-17.853,25.02-33.038,25.02v-25.02H379.151z"/>
<g>
</g>
<g>
</g>
<g>
</g>
<g>
</g>
<g>
</g>
<g>
</g>
<g>
</g>
<g>
</g>
<g>
</g>
<g>
</g>
<g>
</g>
<g>
</g>
<g>
</g>
<g>
</g>
<g>
</g>
</svg>
