<?xml version="1.0" encoding="iso-8859-1"?>
<!-- Generator: Adobe Illustrator 19.0.0, SVG Export Plug-In . SVG Version: 6.00 Build 0)  -->
<svg version="1.1" id="Layer_1" xmlns="http://www.w3.org/2000/svg" xmlns:xlink="http://www.w3.org/1999/xlink" x="0px" y="0px"
	 viewBox="0 0 505 505" style="enable-background:new 0 0 505 505;" xml:space="preserve">
<circle style="fill:#FFD05B;" cx="252.5" cy="252.5" r="252.5"/>
<path style="fill:#F1543F;" d="M408.9,286.1c21.8,21.8,20.7,31.2,14.2,37.7s-15.9,7.6-37.7-14.2c-21.8-21.8-47.8-58.4-41.3-64.9
	C350.5,238.2,387.1,264.2,408.9,286.1z"/>
<path style="fill:#FFFFFF;" d="M345.5,218.1l-28.2,28.2l18.1,18.1c1.1,1.1,3,1.1,4.1,0l24.1-24.1c1.1-1.1,1.1-3,0-4.1L345.5,218.1z"
	/>
<circle style="fill:#324A5E;" cx="280" cy="179.4" r="83"/>
<circle style="fill:#84DBFF;" cx="280" cy="179.4" r="67.3"/>
<path style="fill:#FF7058;" d="M303.1,139.3l-63.2,46.6l21.9,8.4l-30.7,91.8l-62.7-21.5l-1.1-0.4l-0.4-0.1
	c-4.5-1.3-9.3,1.3-10.6,5.8l-30.1,103.9l43.3-88.5l64.9,27.9c6,2.6,12.9-0.2,15.5-6.1l0.4-1l43.7-99.5l24.5,9.5L303.1,139.3z"/>
<polygon style="fill:#FFFFFF;" points="408.4,372.1 132.7,372.1 132.7,96.3 116.9,96.3 116.9,119.1 96.1,119.1 96.1,134.9 
	116.9,134.9 116.9,174.7 96.1,174.7 96.1,190.4 116.9,190.4 116.9,230.2 96.1,230.2 96.1,246 116.9,246 116.9,285.8 96.1,285.8 
	96.1,301.6 116.9,301.6 116.9,341.4 96.1,341.4 96.1,357.2 116.9,357.2 116.9,387.8 147.5,387.8 147.5,408.7 163.3,408.7 
	163.3,387.8 203.1,387.8 203.1,408.7 218.9,408.7 218.9,387.8 258.7,387.8 258.7,408.7 274.5,408.7 274.5,387.8 314.3,387.8 
	314.3,408.7 330.1,408.7 330.1,387.8 369.9,387.8 369.9,408.7 385.7,408.7 385.7,387.8 408.4,387.8 "/>
<g>
</g>
<g>
</g>
<g>
</g>
<g>
</g>
<g>
</g>
<g>
</g>
<g>
</g>
<g>
</g>
<g>
</g>
<g>
</g>
<g>
</g>
<g>
</g>
<g>
</g>
<g>
</g>
<g>
</g>
</svg>
