<?xml version="1.0" encoding="iso-8859-1"?>
<!-- Generator: Adobe Illustrator 19.0.0, SVG Export Plug-In . SVG Version: 6.00 Build 0)  -->
<svg version="1.1" id="Capa_1" xmlns="http://www.w3.org/2000/svg" xmlns:xlink="http://www.w3.org/1999/xlink" x="0px" y="0px"
	 viewBox="0 0 512 512" style="enable-background:new 0 0 512 512;" xml:space="preserve">
<circle style="fill:#474F70;" cx="256" cy="256.046" r="255.952"/>
<circle style="fill:#535E8A;" cx="256" cy="193.051" r="192.957"/>
<path style="fill:#E33958;" d="M416.111,31.34H95.9c-12.034,0-21.789,9.755-21.789,21.789v150.727
	c0,12.034,9.755,21.789,21.789,21.789h320.211c12.034,0,21.789-9.755,21.789-21.789V53.128
	C437.901,41.094,428.145,31.34,416.111,31.34z"/>
<path style="fill:#FF4F6F;" d="M416.111,0H95.9C83.866,0,74.111,9.755,74.111,21.789v150.727c0,12.034,9.755,21.789,21.789,21.789
	h320.211c12.034,0,21.789-9.755,21.789-21.789V21.789C437.901,9.755,428.145,0,416.111,0z"/>
<g>
	<path style="fill:#FFFFFF;" d="M154.727,102.634h-32.882v41.944c0,3.947-4.823,5.992-9.501,5.992c-4.823,0-9.501-2.046-9.501-5.992
		V49.582c0-4.092,4.677-5.845,9.501-5.845c4.677,0,9.501,1.753,9.501,5.845v38.145h32.882V49.582c0-4.092,4.677-5.845,9.501-5.845
		c4.677,0,9.501,1.753,9.501,5.845v94.996c0,3.947-4.823,5.992-9.501,5.992c-4.823,0-9.501-2.046-9.501-5.992V102.634z"/>
	<path style="fill:#FFFFFF;" d="M210.263,89.626h22.214c3.802,0,5.992,3.654,5.992,7.599c0,3.361-1.899,7.308-5.992,7.308h-22.214
		v29.375h41.359c3.8,0,5.992,3.947,5.992,8.477c0,3.947-1.899,8.184-5.992,8.184h-52.027c-4.238,0-8.332-2.046-8.332-5.992v-94.85
		c0-3.946,4.093-5.991,8.332-5.991h52.027c4.093,0,5.992,4.238,5.992,8.184c0,4.531-2.193,8.477-5.992,8.477h-41.359V89.626z"/>
	<path style="fill:#FFFFFF;" d="M277.051,150.569c-4.238,0-8.332-2.046-8.332-5.992V49.582c0-4.092,4.677-5.845,9.501-5.845
		c4.677,0,9.501,1.753,9.501,5.845v84.326h35.66c3.8,0,5.699,4.092,5.699,8.33c0,4.092-1.899,8.33-5.699,8.33H277.051z"/>
	<path style="fill:#FFFFFF;" d="M339.454,49.582c0-3.068,2.778-5.845,7.162-5.845h29.374c18.562,0,33.176,8.914,33.176,32.883v0.877
		c0,23.968-15.052,33.176-34.345,33.176h-16.367v33.906c0,3.947-4.823,5.992-9.501,5.992c-4.823,0-9.501-2.046-9.501-5.992V49.582
		H339.454z M358.454,60.396v35.368h16.367c9.501,0,15.346-5.407,15.346-16.807v-1.754c0-11.399-5.845-16.807-15.346-16.807
		C374.822,60.396,358.454,60.396,358.454,60.396z"/>
</g>
<path style="fill:#E33958;" d="M312.743,145.1c-55.13,0-47.21,66.967-47.21,66.967l65.813,9.402"/>
<path style="fill:#FECD9C;" d="M403.914,353.696v96.395c0,5.318-0.387,10.552-1.16,15.681C361.207,494.909,310.612,512,256.005,512
	c-54.304,0-104.648-16.903-146.07-45.748c-1.222-8.535-1.849-17.175-1.849-25.877V334.191c0-8.044,3.259-15.326,8.535-20.602
	c1.327-1.327,2.779-2.528,4.336-3.573c4.638-3.124,10.238-4.952,16.256-4.952c16.088,0,29.126,13.038,29.126,29.126v-24.404
	c0-8.044,3.259-15.315,8.535-20.591c5.276-5.276,12.557-8.535,20.602-8.535c16.078,0,29.126,13.048,29.126,29.126v-9.904
	c0-8.044,3.259-15.326,8.525-20.602c5.276-5.265,12.557-8.525,20.602-8.525c16.088,0,29.126,13.038,29.126,29.126V174.216
	c0-8.044,3.259-15.326,8.525-20.591c1.327-1.327,2.779-2.528,4.346-3.583c4.837-3.259,10.708-5.109,17.018-4.941
	c15.89,0.407,28.364,13.874,28.364,29.774v204.908c0-15.66,5.735-29.973,15.211-40.973c1.024-1.191,2.079-2.33,3.186-3.437
	l0.345-0.345C376.198,318.928,403.914,330.744,403.914,353.696z"/>
<g>
	<path style="fill:#EAB689;" d="M295.727,150.04v210.247c0,3.554-2.881,6.435-6.435,6.435l0,0c-3.554,0-6.435-2.881-6.435-6.435
		V174.215c0-8.044,3.259-15.326,8.525-20.591C292.708,152.297,294.16,151.096,295.727,150.04z"/>
	<path style="fill:#EAB689;" d="M237.474,275.708v96.405c0,3.554-2.881,6.435-6.435,6.435l0,0c-3.554,0-6.435-2.881-6.435-6.435
		v-72.231c0-8.044,3.259-15.326,8.525-20.591C234.455,277.964,235.907,276.763,237.474,275.708z"/>
	<path style="fill:#EAB689;" d="M179.211,285.612v93.814c0,3.554-2.881,6.435-6.435,6.435l0,0c-3.554,0-6.435-2.881-6.435-6.435
		v-69.64c0-8.044,3.259-15.326,8.525-20.591C176.192,287.868,177.644,286.667,179.211,285.612z"/>
	<path style="fill:#EAB689;" d="M120.956,310.017v163.496c-3.74-2.33-7.417-4.753-11.022-7.261
		c-1.222-8.535-1.849-17.175-1.849-25.877V334.191c0-8.044,3.259-15.326,8.535-20.602
		C117.948,312.263,119.4,311.062,120.956,310.017z"/>
	<path style="fill:#EAB689;" d="M356.32,338.808v103.175c0,4.201-3.405,7.605-7.605,7.605l0,0c-4.201,0-7.605-3.405-7.605-7.605
		v-62.202C341.109,364.121,346.844,349.809,356.32,338.808z"/>
</g>
<g>
</g>
<g>
</g>
<g>
</g>
<g>
</g>
<g>
</g>
<g>
</g>
<g>
</g>
<g>
</g>
<g>
</g>
<g>
</g>
<g>
</g>
<g>
</g>
<g>
</g>
<g>
</g>
<g>
</g>
</svg>
