<?xml version="1.0" encoding="iso-8859-1"?>
<!-- Generator: Adobe Illustrator 19.0.0, SVG Export Plug-In . SVG Version: 6.00 Build 0)  -->
<svg version="1.1" id="Capa_1" xmlns="http://www.w3.org/2000/svg" xmlns:xlink="http://www.w3.org/1999/xlink" x="0px" y="0px"
	 viewBox="0 0 512 512" style="enable-background:new 0 0 512 512;" xml:space="preserve">
<path style="fill:#343A6E;" d="M512,256c0,93.863-50.51,175.929-125.848,220.484C348.024,499.054,303.522,512,256,512
	c-35.401,0-69.13-7.189-99.788-20.187c-10.501-4.441-20.647-9.571-30.365-15.329C50.51,431.929,0,349.863,0,256
	C0,114.615,114.615,0,256,0S512,114.615,512,256z"/>
<path style="fill:#484B7F;" d="M470.073,214.073c0,78.491-42.238,147.116-105.237,184.374
	c-31.884,18.873-69.098,29.699-108.837,29.699c-29.603,0-57.809-6.011-83.445-16.881c-8.781-3.714-17.266-8.004-25.392-12.818
	C84.164,361.19,41.927,292.564,41.927,214.073C41.927,95.843,137.77,0,256,0S470.073,95.843,470.073,214.073z"/>
<rect x="224.653" y="397.343" style="fill:#F9DF73;" width="52.245" height="101.355"/>
<rect x="224.653" y="397.343" style="fill:#F2AE5A;" width="26.118" height="101.355"/>
<g>
	<path style="fill:#F9DF73;" d="M255.997,353.458L255.997,353.458c-62.969,0-115.346-48.431-120.269-111.206L119.635,37.017
		c-0.67-8.539,6.079-15.836,14.643-15.836h243.436c8.565,0,15.313,7.299,14.643,15.836L376.264,242.25
		C371.343,305.027,318.966,353.458,255.997,353.458z"/>
	<circle style="fill:#F9DF73;" cx="250.775" cy="380.625" r="47.541"/>
</g>
<g>
	<path style="fill:#F2AE5A;" d="M152.328,266.969c-48.027,0-85.538-15.635-111.493-46.472
		C17.028,192.21,3.666,152.299,1.121,101.873C-0.745,64.895,4.119,36.27,4.327,35.07l1.502-8.665h78.646l19.853,35.351h32.693
		v20.898H92.096L72.243,47.303H23.755c-3.088,26.935-8.602,110.286,33.112,159.787c21.797,25.865,53.915,38.981,95.462,38.981
		L152.328,266.969L152.328,266.969z"/>
	<path style="fill:#F2AE5A;" d="M234.471,335.956c1.912,1.108,3.877,2.069,5.862,2.863c-3.187,3.072-5.966,7.262-8.192,12.267
		c-5.13-1.024-10.146-2.382-15.015-4.044c-44.471-15.13-77.542-55.547-81.398-104.793L119.636,37.017
		c-0.67-8.539,6.079-15.836,14.643-15.836h44.395l9.738,213.42C190.596,282.342,209.32,321.494,234.471,335.956z"/>
	<path style="fill:#F2AE5A;" d="M252.234,428.147c-0.481,0.01-0.972,0.021-1.463,0.021c-26.248,0-47.543-21.285-47.543-47.543
		c0-13.103,5.319-24.983,13.897-33.583c4.859-4.869,10.762-8.683,17.345-11.086c1.912,1.108,3.877,2.069,5.862,2.863
		c-3.187,3.072-5.966,7.262-8.192,12.267c-3.626,8.108-5.789,18.38-5.789,29.539C226.352,406.392,237.867,427.374,252.234,428.147z"
		/>
	<path style="fill:#F2AE5A;" d="M252.234,428.147c1.275-0.042,2.529-0.125,3.762-0.261c-0.961,0.188-1.944,0.282-2.936,0.282
		C252.788,428.168,252.506,428.157,252.234,428.147z"/>
	<path style="fill:#F2AE5A;" d="M386.152,476.484C348.024,499.054,303.522,512,256,512s-92.024-12.946-130.152-35.516
		c5.914-13.97,19.738-23.761,35.861-23.761h188.583C366.414,452.723,380.238,462.514,386.152,476.484z"/>
</g>
<g>
	<path style="fill:#F9DF73;" d="M386.152,476.484C348.024,499.054,303.522,512,256,512c-35.401,0-69.13-7.189-99.788-20.187v-0.157
		c0-21.504,17.429-38.933,38.933-38.933h155.146C366.414,452.723,380.238,462.514,386.152,476.484z"/>
	<path style="fill:#F9DF73;" d="M359.664,266.969v-20.898c41.547,0,73.665-13.116,95.462-38.981
		c41.713-49.502,36.2-132.848,33.112-159.787h-48.487l-19.853,35.351h-44.924V61.757h32.693l19.853-35.351h78.646l1.502,8.665
		c0.834,4.811,19.761,118.571-36.509,185.428C445.204,251.333,407.692,266.969,359.664,266.969z"/>
</g>
<polygon style="fill:#F2AE5A;" points="255.997,101.23 281.298,152.496 337.872,160.716 296.934,200.62 306.598,256.967 
	255.997,230.363 205.395,256.967 215.059,200.62 174.122,160.716 230.696,152.496 "/>
<g>
</g>
<g>
</g>
<g>
</g>
<g>
</g>
<g>
</g>
<g>
</g>
<g>
</g>
<g>
</g>
<g>
</g>
<g>
</g>
<g>
</g>
<g>
</g>
<g>
</g>
<g>
</g>
<g>
</g>
</svg>
