<?xml version="1.0" encoding="iso-8859-1"?>
<!-- Generator: Adobe Illustrator 19.0.0, SVG Export Plug-In . SVG Version: 6.00 Build 0)  -->
<svg version="1.1" id="Capa_1" xmlns="http://www.w3.org/2000/svg" xmlns:xlink="http://www.w3.org/1999/xlink" x="0px" y="0px"
	 viewBox="0 0 512 512" style="enable-background:new 0 0 512 512;" xml:space="preserve">
<circle style="fill:#5DC1D8;" cx="256" cy="267" r="245"/>
<path style="fill:#2E4C89;" d="M287.934,402.567c0-2.206,1.794-4,4-4h4.368c0.404,0,0.77-0.243,0.924-0.617
	c0.155-0.374,0.069-0.804-0.217-1.09l-47.512-47.512c-2.632-2.632-4.082-6.148-4.082-9.899c0-3.751,1.45-7.267,4.082-9.899
	l1.985-1.985c2.632-2.632,6.148-4.082,9.899-4.082c3.752,0,7.267,1.45,9.899,4.082l12.454,12.454
	c0.191,0.191,0.447,0.293,0.707,0.293c0.129,0,0.259-0.024,0.383-0.076c0.374-0.154,0.617-0.52,0.617-0.924V237.743
	c0-7.72,6.28-14,14-14h0.416c4.22,0,8,1.885,10.569,4.847V10c0-5.5-4.5-10-10-10H88.701c-5.5,0-10,4.5-10,10v389.454
	c0,5.5,4.5,10,10,10h199.232v-6.887H287.934z"/>
<path style="fill:#C3DDF4;" d="M245.415,339.449c0-3.751,1.45-7.267,4.082-9.899l1.985-1.985c2.632-2.632,6.148-4.082,9.899-4.082
	c3.752,0,7.267,1.45,9.899,4.082l12.454,12.454c0.191,0.191,0.447,0.293,0.707,0.293c0.129,0,0.259-0.024,0.383-0.076
	c0.374-0.154,0.617-0.52,0.617-0.924V237.743c0-6.662,4.682-12.242,10.925-13.648V43.151c0-2.902-2.375-5.277-5.277-5.277H98.039
	c-2.902,0-5.276,2.375-5.276,5.277v296.905c0,2.902,2.374,5.275,5.276,5.275h148.672
	C245.872,343.514,245.415,341.521,245.415,339.449z"/>
<path style="fill:#AEC1ED;" d="M112.605,340.057V43.151c0-2.902,2.374-5.277,5.276-5.277H98.039c-2.902,0-5.276,2.375-5.276,5.277
	v296.905c0,2.902,2.374,5.275,5.276,5.275h19.842C114.979,345.332,112.605,342.959,112.605,340.057z"/>
<g>
	<circle style="fill:#1A2B63;" cx="194.56" cy="374.02" r="18.561"/>
	<path style="fill:#1A2B63;" d="M234.873,26.342h-57.368c-4.142,0-7.5-3.357-7.5-7.5s3.358-7.5,7.5-7.5h57.368
		c4.142,0,7.5,3.357,7.5,7.5S239.015,26.342,234.873,26.342z"/>
	<circle style="fill:#1A2B63;" cx="154.25" cy="18.842" r="8.436"/>
</g>
<path style="fill:#FF9518;" d="M291.089,37.874H98.039c-2.902,0-5.276,2.375-5.276,5.277v23.42h203.604v-23.42
	C296.366,40.249,293.991,37.874,291.089,37.874z"/>
<path style="fill:#EF8318;" d="M117.881,37.874H98.039c-2.902,0-5.276,2.375-5.276,5.277v23.42h19.842v-23.42
	C112.605,40.249,114.979,37.874,117.881,37.874z"/>
<path style="fill:#445EA0;" d="M280.765,223.186c0,5.5-4.5,10-10,10h-152.4c-5.5,0-10-4.5-10-10v-48.594c0-5.5,4.5-10,10-10h152.4
	c5.5,0,10,4.5,10,10V223.186z"/>
<path style="fill:#EEF6FF;" d="M245.415,339.449c0-3.751,1.45-7.267,4.082-9.899l1.985-1.985c2.632-2.632,6.148-4.082,9.899-4.082
	c3.752,0,7.267,1.45,9.899,4.082l12.454,12.454c0.191,0.191,0.447,0.293,0.707,0.293c0.129,0,0.259-0.024,0.383-0.076
	c0.374-0.154,0.617-0.52,0.617-0.924v-90.711H92.763v91.456c0,2.902,2.374,5.275,5.276,5.275h148.672
	C245.872,343.514,245.415,341.521,245.415,339.449z"/>
<path style="fill:#D9EAFC;" d="M112.605,340.057v-91.456H92.763v91.456c0,2.902,2.374,5.275,5.276,5.275h19.842
	C114.979,345.332,112.605,342.959,112.605,340.057z"/>
<g>
	<path style="fill:#5DC1D8;" d="M210.444,276.808H130.68c-4.142,0-7.5-3.357-7.5-7.5s3.358-7.5,7.5-7.5h79.765
		c4.142,0,7.5,3.357,7.5,7.5C217.944,273.45,214.586,276.808,210.444,276.808z"/>
	<path style="fill:#5DC1D8;" d="M210.444,301.673H130.68c-4.142,0-7.5-3.358-7.5-7.5c0-4.143,3.358-7.5,7.5-7.5h79.765
		c4.142,0,7.5,3.357,7.5,7.5C217.944,298.315,214.586,301.673,210.444,301.673z"/>
	<path style="fill:#5DC1D8;" d="M170.721,326.537H130.68c-4.142,0-7.5-3.357-7.5-7.5s3.358-7.5,7.5-7.5h40.041
		c4.142,0,7.5,3.357,7.5,7.5S174.863,326.537,170.721,326.537z"/>
</g>
<path style="fill:#FF9518;" d="M248.856,319.558c-1.532,0-3.078-0.469-4.411-1.439c-3.348-2.439-4.084-7.131-1.645-10.479
	l9.815-13.468l-9.813-13.467c-2.439-3.348-1.703-8.039,1.645-10.479c3.349-2.439,8.039-1.702,10.479,1.645l13.031,17.884
	c1.918,2.633,1.918,6.202,0,8.834l-13.033,17.885C253.456,318.488,251.172,319.557,248.856,319.558z"/>
<path style="fill:#EF8318;" d="M297.073,439.522v69.032c36.639-6.186,70.513-20.496,99.703-41.026v-28.006H297.073z"/>
<path style="fill:#DB722C;" d="M297.073,439.522v69.032c6.712-1.133,13.328-2.545,19.843-4.212v-64.82H297.073z"/>
<path style="fill:#FFE2B8;" d="M398.507,398.567v-103.93c0-8.25-6.75-15-15-15h-0.416c-6.12,0-11.407,3.719-13.733,9.004
	c-2.326-5.285-7.613-9.004-13.733-9.004h-0.417c-6.12,0-11.407,3.719-13.733,9.004c-2.326-5.285-7.613-9.004-13.733-9.004h-0.416
	c-5.182,0-9.77,2.665-12.467,6.69v-48.584c0-8.25-6.75-15-15-15h-0.416c-8.25,0-15,6.75-15,15v101.568l-12.454-12.454
	c-5.833-5.833-15.379-5.833-21.213,0l-1.984,1.985c-5.834,5.833-5.834,15.38,0,21.213l48.512,48.512H398.507z"/>
<path style="fill:#FFC987;" d="M317.145,398.567l-48.512-48.512c-5.834-5.833-5.834-15.38,0-21.213l1.984-1.985
	c0.22-0.22,0.455-0.415,0.685-0.619c-5.873-5.19-14.915-4.994-20.528,0.619l-1.984,1.985c-5.834,5.833-5.834,15.38,0,21.213
	l48.512,48.512H317.145z"/>
<path style="fill:#FF9518;" d="M406.916,435.522c0,2.75-2.25,5-5,5H291.934c-2.75,0-5-2.25-5-5v-32.954c0-2.75,2.25-5,5-5h109.982
	c2.75,0,5,2.25,5,5V435.522z"/>
<path style="fill:#EF8318;" d="M306.776,435.522v-32.954c0-2.75,2.25-5,5-5h-19.843c-2.75,0-5,2.25-5,5v32.954c0,2.75,2.25,5,5,5
	h19.843C309.026,440.522,306.776,438.272,306.776,435.522z"/>
<circle style="fill:#DB722C;" cx="384.95" cy="419.05" r="9.294"/>
<path style="fill:#FE3745;" d="M478.706,240.043c0,2.75-2.25,5-5,5H329.92c-2.75,0-5-2.25-5-5V136.306c0-2.75,2.25-5,5-5h143.786
	c2.75,0,5,2.25,5,5V240.043z"/>
<path style="fill:#FFFFFF;" d="M376.698,165.29c0-5.5,3.897-7.75,8.66-5l39.635,22.883c4.763,2.75,4.763,7.25,0,10l-39.635,22.884
	c-4.763,2.75-8.66,0.5-8.66-5V165.29z"/>
<path style="fill:#FFAF10;" d="M466.672,78.199c-12.404,0-22.496-10.092-22.496-22.496c0-2.059,0.283-4.052,0.804-5.947H329.92
	c-2.75,0-5,2.25-5,5v59.315c0,2.75,2.25,5,5,5h143.786c2.75,0,5-2.25,5-5V74.695C475.223,76.91,471.097,78.199,466.672,78.199z"/>
<path style="fill:#B7092B;" d="M344.763,240.043V136.306c0-2.75,2.25-5,5-5H329.92c-2.75,0-5,2.25-5,5v103.737c0,2.75,2.25,5,5,5
	h19.843C347.013,245.043,344.763,242.793,344.763,240.043z"/>
<path style="fill:#EF9614;" d="M344.763,114.071V54.756c0-2.75,2.25-5,5-5H329.92c-2.75,0-5,2.25-5,5v59.315c0,2.75,2.25,5,5,5
	h19.843C347.013,119.071,344.763,116.821,344.763,114.071z"/>
<circle style="fill:#B7092B;" cx="466.67" cy="55.703" r="23.496"/>
<path style="fill:#EEF6FF;" d="M467.385,68.534c-2.762,0-5-2.238-5-5V52.66c-2.06-0.618-3.561-2.529-3.561-4.79c0-2.762,2.238-5,5-5
	h3.561c2.762,0,5,2.238,5,5v15.664C472.385,66.296,470.147,68.534,467.385,68.534z"/>
<g>
	<path style="fill:#DB722C;" d="M420.718,80.223h-71.596c-4.143,0-7.5-3.358-7.5-7.5c0-4.143,3.357-7.5,7.5-7.5h71.596
		c4.143,0,7.5,3.357,7.5,7.5C428.218,76.865,424.86,80.223,420.718,80.223z"/>
	<path style="fill:#DB722C;" d="M442.363,103.414h-93.241c-4.143,0-7.5-3.357-7.5-7.5s3.357-7.5,7.5-7.5h93.241
		c4.143,0,7.5,3.357,7.5,7.5S446.506,103.414,442.363,103.414z"/>
</g>
<circle style="fill:#EF8318;" cx="194.56" cy="116" r="37.33"/>
<circle style="fill:#FF9518;" cx="194.56" cy="116" r="30"/>
<path style="fill:#FFFFFF;" d="M206.318,124.521h-6.663v-1.604c5.68-2.079,9.742-7.518,9.742-13.917
	c0-8.191-6.642-14.833-14.833-14.833c-8.192,0-14.833,6.642-14.833,14.833c0,6.4,4.062,11.838,9.742,13.917v1.604h-6.663
	c-2.661,0-4.837,2.178-4.837,4.839v11.633c4.753,3.161,10.455,5.007,16.591,5.007s11.839-1.846,16.591-5.007v-11.635
	C211.156,126.698,208.979,124.521,206.318,124.521z"/>
<path style="fill:#FF9518;" d="M161,213.389c0,2.75-2.25,5-5,5h-29c-2.75,0-5-2.25-5-5v-29c0-2.75,2.25-5,5-5h29c2.75,0,5,2.25,5,5
	V213.389z"/>
<path style="fill:#EF8318;" d="M134.509,213.389v-29c0-2.75,2.25-5,5-5H127c-2.75,0-5,2.25-5,5v29c0,2.75,2.25,5,5,5h12.509
	C136.759,218.389,134.509,216.139,134.509,213.389z"/>
<g>
	<path style="fill:#1A2B63;" d="M227.666,198.889c0-2.823,0.963-5.419,2.565-7.5h-53.565c-4.142,0-7.5,3.357-7.5,7.5
		s3.358,7.5,7.5,7.5h53.565C228.63,204.308,227.666,201.712,227.666,198.889z"/>
	<path style="fill:#1A2B63;" d="M262,191.389h-12.232c1.602,2.081,2.565,4.677,2.565,7.5s-0.963,5.419-2.565,7.5H262
		c4.143,0,7.5-3.357,7.5-7.5S266.143,191.389,262,191.389z"/>
</g>
<circle style="fill:#FF9518;" cx="240" cy="198.89" r="13.333"/>
<g>
</g>
<g>
</g>
<g>
</g>
<g>
</g>
<g>
</g>
<g>
</g>
<g>
</g>
<g>
</g>
<g>
</g>
<g>
</g>
<g>
</g>
<g>
</g>
<g>
</g>
<g>
</g>
<g>
</g>
</svg>
