<?xml version="1.0" encoding="iso-8859-1"?>
<!-- Generator: Adobe Illustrator 21.0.0, SVG Export Plug-In . SVG Version: 6.00 Build 0)  -->
<svg xmlns="http://www.w3.org/2000/svg" xmlns:xlink="http://www.w3.org/1999/xlink" version="1.1" id="Capa_1" x="0px" y="0px" viewBox="0 0 512 512" style="enable-background:new 0 0 512 512;" xml:space="preserve" width="512" height="512">
<g>
	<path style="fill:#F5585C;" d="M263.909,22.36c-67.292-3.688-129.722,20.148-176.36,61.692l-26.6,338.152   c42.049,51.325,104.676,85.505,176.148,89.422c135.107,7.404,250.636-96.12,258.039-231.227   C502.54,145.293,399.016,29.764,263.909,22.36z"/>
	<path style="fill:#FAD964;" d="M333.739,82.839c-0.178-0.002-0.353-0.013-0.531-0.013H88.952   C41.169,124.746,9.623,185.103,5.87,253.587c-3.524,64.305,18.094,124.163,56.272,170.05h185.2c11.285,0,22.014,4.901,29.403,13.43   l48.471,55.953c2.759,3.185,7.991,1.234,7.991-2.98v-46.074c0-0.432,0.012-0.863,0.034-1.291c0.556-10.466,8.864-18.98,19.274-20.2   c84.472-9.902,150.578-82.224,150.578-169.243v-0.001C503.094,159.859,426.983,83.411,333.739,82.839z"/>
	<path style="fill:#FAB941;" d="M266.232,253.231L266.232,253.231c0-75.618,49.921-140.129,118.431-162.235   c-16.086-5.19-33.193-8.049-50.923-8.158c-0.178-0.001-0.353-0.013-0.531-0.013H88.952C41.169,124.746,9.623,185.103,5.87,253.587   c-3.524,64.304,18.094,124.163,56.272,170.05h185.2c11.285,0,22.014,4.901,29.403,13.43l48.471,55.953   c2.759,3.185,7.991,1.233,7.991-2.98v-46.074c0-0.432,0.012-0.863,0.034-1.291c0.556-10.466,8.864-18.98,19.274-20.2   c11.068-1.298,21.817-3.677,32.147-7.01C316.153,393.357,266.232,328.848,266.232,253.231z"/>
	<path style="fill:#EFC1A8;" d="M424.003,195.063c-6.796-9.013-6.165-21.306,0.854-29.562c-9.869,4.479-21.864,1.704-28.661-7.311   c-6.164-8.175-6.221-19.051-0.942-27.163c-9.253,2.846-19.695-0.201-25.861-8.378c-7.87-10.438-5.787-25.279,4.65-33.148   l0.26-0.196c-10.427,7.862-25.253,5.782-33.115-4.646l-0.029-0.039c-7.861-10.427-5.782-25.251,4.643-33.113L318.75,71.902   l-7.328,5.525c-3.938,2.969-9.629,0.903-10.745-3.902c-5.311-20.605-12.076-40.807-20.243-60.455   c-6.185-12.779-22.31-17.031-33.992-8.964c-8.133,5.616-11.831,15.758-9.221,25.291c4.284,16.542,9.318,29.469,11.451,43.544   c0.836,5.515,0.144,11.145-2.019,16.286c-3.905,9.277-8.712,23.141-11.02,39.333c-0.562,3.938-2.047,7.691-4.417,10.885   c-6.017,8.106-11.527,14.268-11.527,14.268l-0.106,0.08l-16.477,12.423l93.302,123.75l26.625-20.474   c3.057-2.356,6.764-3.678,10.617-3.904c26.016-1.527,50.971-10.852,71.615-26.761l51.663-38.951   C446.501,207.548,431.816,205.427,424.003,195.063z"/>
	<g>
		<path style="fill:#E5AF98;" d="M305.295,259.197l-73.182-97.063c-4.262-5.653-5.378-12.685-3.678-19.032    c-4.831,6.227-8.747,10.61-8.747,10.61l-0.106,0.08l-16.477,12.423l93.302,123.75c28.067-21.462,26.714-20.81,29.263-22.161    C318.089,268.74,310.228,265.741,305.295,259.197z"/>
	</g>
	<path style="fill:#F9D6BF;" d="M497.082,169.607l-42.526,32.063c-10.438,7.87-25.279,5.788-33.149-4.65l0,0   c-7.87-10.438-5.788-25.279,4.65-33.149l42.526-32.063c10.438-7.87,25.279-5.787,33.148,4.65l0,0   C509.602,146.897,507.52,161.738,497.082,169.607z"/>
	<path style="fill:#F9D6BF;" d="M472.062,130.632l-45.313,34.164c-10.438,7.87-25.279,5.788-33.149-4.65l0,0   c-7.87-10.438-5.788-25.279,4.65-33.149l45.313-34.164c10.438-7.87,25.279-5.787,33.148,4.65l0,0   C484.582,107.921,482.5,122.762,472.062,130.632z"/>
	<path style="fill:#F9D6BF;" d="M448.047,92.989l-48.101,36.266c-10.438,7.87-25.279,5.788-33.149-4.65l0,0   c-7.87-10.438-5.788-25.279,4.65-33.149l48.101-36.266c10.438-7.87,25.279-5.788,33.148,4.65l0,0   C460.567,70.279,458.485,85.12,448.047,92.989z"/>
	<path style="fill:#F9D6BF;" d="M422.453,53.001L371.708,91.26c-10.427,7.862-25.253,5.782-33.115-4.645l-0.029-0.039   c-7.861-10.427-5.782-25.253,4.645-33.115l50.745-38.259c10.427-7.862,25.253-5.782,33.114,4.645l0.029,0.039   C434.959,30.313,432.88,45.139,422.453,53.001z"/>
	<path style="fill:#E2E9F2;" d="M257.897,19.567l-6.203-18.171c-1.813,0.661-3.578,1.555-5.251,2.71   c-8.133,5.616-11.831,15.757-9.222,25.29c1.226,4.735,2.514,9.173,3.778,13.427l5.283-1.427   C255.734,38.843,261.06,28.833,257.897,19.567z"/>
	<path style="fill:#E2E9F2;" d="M293.185,308.409L293.185,308.409c-6.958,5.246-16.942,3.845-22.188-3.113l-89.09-118.163   c-5.246-6.958-3.845-16.942,3.113-22.188v0c6.958-5.246,16.942-3.845,22.188,3.113l89.09,118.163   C301.543,293.179,300.143,303.163,293.185,308.409z"/>
	<path style="fill:#C7D6E5;" d="M227.525,221.322L227.525,221.322c5.63-4.245,13.066-4.501,18.882-1.273l-39.199-51.991   c-5.246-6.958-15.23-8.358-22.188-3.112l0,0c-6.958,5.246-8.358,15.23-3.113,22.188l39.199,51.991   C219.603,232.646,221.896,225.566,227.525,221.322z"/>
	<g>
		<path style="fill:#E5AF98;" d="M327.809,98.709c-2.467-11.616-6.509-20.807-9.476-26.491l-6.911,5.21    c-3.141,2.369-7.391,1.526-9.551-1.348c4.128,6.746,25.619,45.932-2.054,89.496c-2.406,3.788-1.286,8.81,2.503,11.217    c3.801,2.414,8.819,1.273,11.217-2.502C332.319,144.72,331.665,116.867,327.809,98.709z"/>
	</g>
	<path style="fill:#6393E4;" d="M171.558,173.406c-3.304-4.382-9.535-5.256-13.917-1.952L6.195,285.637   c3.904,52.013,24.197,99.837,55.948,138h97.242l120.009-90.696c4.383-3.304,5.256-9.536,1.952-13.918L171.558,173.406z"/>
	<path style="fill:#5D80D3;" d="M207.005,239.054c4.188-3.157,9.797-3.094,13.871-0.236l-49.318-65.413   c-3.304-4.382-9.535-5.256-13.917-1.952L6.195,285.637c2.322,30.943,10.446,60.402,23.331,87.228L207.005,239.054z"/>
</g>















</svg>
