<?xml version="1.0" encoding="iso-8859-1"?>
<!-- Generator: Adobe Illustrator 19.0.0, SVG Export Plug-In . SVG Version: 6.00 Build 0)  -->
<svg version="1.1" id="Capa_1" xmlns="http://www.w3.org/2000/svg" xmlns:xlink="http://www.w3.org/1999/xlink" x="0px" y="0px"
	 viewBox="0 0 512 512" style="enable-background:new 0 0 512 512;" xml:space="preserve">
<circle style="fill:#91E0E8;" cx="256" cy="256" r="245"/>
<path style="fill:#52BBEF;" d="M155.559,408.75c0,2.038-1.666,3.703-3.703,3.703H3.704c-2.038,0-3.704-1.665-3.704-3.703v-99.26
	c0-2.037,1.666-3.705,3.704-3.705h148.151c2.037,0,3.703,1.668,3.703,3.705v99.26H155.559z"/>
<path style="fill:#02AF8E;" d="M120.03,363.781c-1.313-1.556-3.461-1.556-4.774,0l-19.255,22.847c-1.313,1.556-3.46,1.556-4.774,0
	l-36.346-43.12c-1.313-1.558-3.46-1.558-4.774,0L0,402.953v5.797c0,2.038,1.666,3.703,3.704,3.703h148.151
	c2.037,0,3.703-1.665,3.703-3.703v-2.821L120.03,363.781z"/>
<path style="fill:#0F9390;" d="M19.843,408.75v-5.797l42.572-50.506l-7.534-8.939c-1.313-1.558-3.46-1.558-4.774,0L0,402.953v5.797
	c0,2.038,1.666,3.703,3.704,3.703h19.843C21.509,412.453,19.843,410.788,19.843,408.75z"/>
<circle style="fill:#FFFFFF;" cx="20.879" cy="325.21" r="11.11"/>
<path style="fill:#D9EAFC;" d="M18.944,325.209c0-4.498,2.679-8.362,6.524-10.11c-1.399-0.637-2.95-1-4.588-1
	c-6.137,0-11.112,4.975-11.112,11.11c0,6.137,4.976,11.113,11.112,11.113c1.638,0,3.188-0.363,4.588-1
	C21.623,333.573,18.944,329.707,18.944,325.209z"/>
<path style="fill:#FE3745;" d="M476.543,389.213c0,2.75-2.25,5-5,5H362.457c-2.75,0-5-2.25-5-5v-78.074c0-2.75,2.25-5,5-5h109.086
	c2.75,0,5,2.25,5,5V389.213z"/>
<path style="fill:#B7092B;" d="M377.3,389.213v-78.074c0-2.75,2.25-5,5-5h-19.843c-2.75,0-5,2.25-5,5v78.074c0,2.75,2.25,5,5,5
	H382.3C379.55,394.213,377.3,391.963,377.3,389.213z"/>
<path style="fill:#FFFFFF;" d="M397.552,334.712c0-5.5,3.897-7.75,8.66-5l26.784,15.463c4.763,2.75,4.763,7.25,0,10l-26.784,15.464
	c-4.763,2.75-8.66,0.5-8.66-5V334.712z"/>
<path style="fill:#FFAF10;" d="M510.012,224.146h-89.457c-1.094,0-1.988,0.898-1.988,1.997v57.4c0,1.099,0.895,1.997,1.988,1.997
	h89.457c1.094,0,1.988-0.898,1.988-1.997v-57.4C512,225.045,511.105,224.146,510.012,224.146z"/>
<path style="fill:#EF9614;" d="M438.409,283.544v-57.4c0-1.099,0.895-1.997,1.988-1.997h-19.843c-1.094,0-1.988,0.898-1.988,1.997
	v57.4c0,1.099,0.895,1.997,1.988,1.997h19.843C439.304,285.541,438.409,284.643,438.409,283.544z"/>
<path style="fill:#FFD00D;" d="M510.012,224.146h-89.457c-0.605,0-1.144,0.281-1.509,0.714l44.662,34.518
	c0.867,0.67,2.285,0.67,3.151,0l44.661-34.518C511.155,224.428,510.617,224.146,510.012,224.146z"/>
<path style="fill:#FFAF10;" d="M129.031,26.156H39.574c-1.094,0-1.988,0.898-1.988,1.997v57.4c0,1.099,0.895,1.997,1.988,1.997
	h89.457c1.094,0,1.988-0.898,1.988-1.997v-57.4C131.02,27.055,130.125,26.156,129.031,26.156z"/>
<path style="fill:#EF9614;" d="M57.429,85.554v-57.4c0-1.099,0.895-1.997,1.988-1.997H39.574c-1.094,0-1.988,0.898-1.988,1.997v57.4
	c0,1.099,0.895,1.997,1.988,1.997h19.843C58.323,87.551,57.429,86.652,57.429,85.554z"/>
<g>
	<path style="fill:#FFD00D;" d="M129.031,26.156H39.574c-0.605,0-1.144,0.281-1.509,0.714l44.662,34.518
		c0.867,0.67,2.285,0.67,3.151,0L130.54,26.87C130.175,26.438,129.637,26.156,129.031,26.156z"/>
	<path style="fill:#FFD00D;" d="M255.528,43.5c-77.079,0-139.786,62.708-139.786,139.787c0,47.294,23.637,91.023,63.226,116.973
		c1.77,1.161,3.14,2.842,3.921,4.81l15.374,38.796h114.529l15.375-38.796c0.781-1.968,2.15-3.648,3.921-4.81
		c39.589-25.95,63.225-69.679,63.225-116.973C395.313,106.208,332.605,43.5,255.528,43.5z"/>
</g>
<path style="fill:#FFAF10;" d="M198.811,300.26c-39.589-25.95-63.225-69.679-63.225-116.973
	c0-73.743,57.398-134.324,129.864-139.431c-3.277-0.231-6.585-0.356-9.921-0.356c-77.079,0-139.786,62.708-139.786,139.787
	c0,47.294,23.637,91.023,63.226,116.973c1.77,1.161,3.14,2.842,3.921,4.81l15.374,38.796h19.843l-15.374-38.796
	C201.95,303.102,200.581,301.421,198.811,300.26z"/>
<path style="fill:#1A2B63;" d="M263.028,343.865v-51.434c-2.479,0.168-4.978,0.262-7.5,0.262s-5.021-0.094-7.5-0.262v51.434H263.028
	z"/>
<path style="fill:#B7092B;" d="M255.528,293.693c-60.878,0-110.406-49.529-110.406-110.406S194.65,72.88,255.528,72.88
	c60.877,0,110.405,49.53,110.405,110.407C365.934,244.164,316.405,293.693,255.528,293.693z"/>
<path style="fill:#FFFFFF;" d="M255.528,266.441c-45.853,0-83.154-37.304-83.154-83.154c0-45.852,37.302-83.155,83.154-83.155
	s83.154,37.304,83.154,83.155C338.683,229.138,301.38,266.441,255.528,266.441z"/>
<path style="fill:#D9EAFC;" d="M187.217,183.287c0-43.349,33.347-79.038,75.732-82.807c-2.446-0.218-4.918-0.349-7.421-0.349
	c-45.853,0-83.154,37.304-83.154,83.155s37.302,83.154,83.154,83.154c2.503,0,4.975-0.131,7.421-0.349
	C220.564,262.324,187.217,226.635,187.217,183.287z"/>
<circle style="fill:#B7092B;" cx="255.53" cy="183.29" r="55.904"/>
<path style="fill:#FFFFFF;" d="M255.528,208.355c-13.824,0-25.069-11.245-25.069-25.068c0-13.824,11.245-25.069,25.069-25.069
	c13.823,0,25.069,11.245,25.069,25.069C280.598,197.11,269.352,208.355,255.528,208.355z"/>
<path style="fill:#D9EAFC;" d="M246.302,183.287c0-11.057,7.195-20.456,17.147-23.779c-2.491-0.832-5.153-1.29-7.921-1.29
	c-13.824,0-25.069,11.245-25.069,25.069c0,13.823,11.245,25.068,25.069,25.068c2.768,0,5.43-0.457,7.921-1.29
	C253.497,203.742,246.302,194.343,246.302,183.287z"/>
<path style="fill:#293D7C;" d="M217.97,438.054V458.5c0,5.5,4.5,10,10,10h55.117c5.5,0,10-4.5,10-10v-20.446L217.97,438.054
	L217.97,438.054z"/>
<path style="fill:#1A2B63;" d="M237.813,458.5v-20.446H217.97V458.5c0,5.5,4.5,10,10,10h19.843
	C242.313,468.5,237.813,464,237.813,458.5z"/>
<path style="fill:#445EA0;" d="M329.142,434.054c0,2.75-2.25,5-5,5H186.914c-2.75,0-5-2.25-5-5v-86.189c0-2.75,2.25-5,5-5h137.228
	c2.75,0,5,2.25,5,5V434.054z"/>
<path style="fill:#293D7C;" d="M201.757,434.054v-86.189c0-2.75,2.25-5,5-5h-19.843c-2.75,0-5,2.25-5,5v86.189c0,2.75,2.25,5,5,5
	h19.843C204.007,439.054,201.757,436.804,201.757,434.054z"/>
<g>
	<path style="fill:#1A2B63;" d="M331.1,382.428H179.956c-4.143,0-7.5-3.357-7.5-7.5s3.357-7.5,7.5-7.5H331.1
		c4.143,0,7.5,3.357,7.5,7.5C338.6,379.07,335.242,382.428,331.1,382.428z"/>
	<path style="fill:#1A2B63;" d="M331.1,414.49H179.956c-4.143,0-7.5-3.357-7.5-7.5s3.357-7.5,7.5-7.5H331.1
		c4.143,0,7.5,3.357,7.5,7.5S335.242,414.49,331.1,414.49z"/>
	<path style="fill:#1A2B63;" d="M255.528,177.095H128.373l4.921,5.302c1.122,1.209,1.122,3.188,0,4.397l-4.92,5.301h127.154
		c4.143,0,7.5-3.357,7.5-7.5S259.671,177.095,255.528,177.095z"/>
</g>
<path style="fill:#FE3745;" d="M67.255,210.48c-1.65,0-2.054-0.963-0.896-2.139l21.25-21.608c1.157-1.176,1.157-3.101,0-4.277
	l-21.25-21.605c-1.157-1.177-0.754-2.139,0.896-2.139h42.054c1.65,0,3.918,0.989,5.041,2.198l19.944,21.486
	c1.122,1.209,1.122,3.188,0,4.397L114.35,208.28c-1.123,1.21-3.391,2.199-5.041,2.199L67.255,210.48L67.255,210.48z"/>
<path style="fill:#B7092B;" d="M84.201,208.342l21.25-21.608c1.157-1.176,1.157-3.101,0-4.277l-21.25-21.605
	c-1.157-1.177-0.754-2.139,0.896-2.139H67.255c-1.65,0-2.054,0.962-0.896,2.139l21.25,21.605c1.157,1.177,1.157,3.102,0,4.277
	l-21.25,21.608c-1.157,1.176-0.754,2.139,0.896,2.139h17.843C83.447,210.48,83.044,209.518,84.201,208.342z"/>
<g>
</g>
<g>
</g>
<g>
</g>
<g>
</g>
<g>
</g>
<g>
</g>
<g>
</g>
<g>
</g>
<g>
</g>
<g>
</g>
<g>
</g>
<g>
</g>
<g>
</g>
<g>
</g>
<g>
</g>
</svg>
