<?xml version="1.0" encoding="iso-8859-1"?>
<!-- Generator: Adobe Illustrator 19.0.0, SVG Export Plug-In . SVG Version: 6.00 Build 0)  -->
<svg version="1.1" id="Capa_1" xmlns="http://www.w3.org/2000/svg" xmlns:xlink="http://www.w3.org/1999/xlink" x="0px" y="0px"
	 viewBox="0 0 512 512" style="enable-background:new 0 0 512 512;" xml:space="preserve">
<circle style="fill:#005C83;" cx="256" cy="256" r="256"/>
<path style="fill:#00263F;" d="M512,256c0-1.167-0.029-2.326-0.044-3.489l-76.457-76.983l-0.37,0.572l-52.324-52.041l-19.309,32.332
	l-56.79-56.79l-24.801,99.568L91.854,351.762L252.042,511.95c1.319,0.02,2.635,0.05,3.958,0.05C397.385,512,512,397.385,512,256z"/>
<polygon style="fill:#AE4E32;" points="260.985,406.702 198.086,427.93 153.832,301.429 216.732,280.2 "/>
<path style="fill:#FFFFFF;" d="M391.053,340.709c0,0-147.968-40.769-247.807-5.843l-26.665-76.223
	C216.42,223.717,306.706,99.6,306.706,99.6L391.053,340.709z"/>
<path style="fill:#E0E0E0;" d="M132.753,304.872l10.493,29.995c99.84-34.927,247.808,5.843,247.808,5.843l-42.635-121.875
	L132.753,304.872z"/>
<path style="fill:#FF6838;" d="M306.706,99.6c0,0-11.298,15.526-30.305,37.131l67.809,193.835
	c28.33,5.046,46.844,10.143,46.844,10.143L306.706,99.6z"/>
<path style="fill:#AE4E32;" d="M310.425,233.991l33.785,96.575c28.33,5.046,46.844,10.143,46.844,10.143l-42.635-121.875
	L310.425,233.991z"/>
<polygon style="fill:#FF6838;" points="91.854,351.762 143.246,334.867 116.581,258.644 65.526,276.504 "/>
<polygon style="fill:#AE4E32;" points="82.468,324.933 91.854,351.762 143.246,334.867 132.753,304.872 "/>
<rect x="396.394" y="162.883" transform="matrix(-0.3905 -0.9206 0.9206 -0.3905 382.1416 650.4584)" style="fill:#FFDC00;" width="20" height="71.69"/>
<polygon style="fill:#FFC000;" points="443.31,193.939 438.922,183.595 372.724,211.127 377.31,221.939 "/>
<rect x="352.076" y="117.651" transform="matrix(-0.9167 -0.3996 0.3996 -0.9167 635.4045 425.6835)" style="fill:#FFDC00;" width="20" height="57.912"/>
<rect x="382.282" y="258.281" transform="matrix(-0.972 -0.2348 0.2348 -0.972 747.9791 625.6229)" style="fill:#FFC000;" width="57.909" height="19.999"/>
<g>
</g>
<g>
</g>
<g>
</g>
<g>
</g>
<g>
</g>
<g>
</g>
<g>
</g>
<g>
</g>
<g>
</g>
<g>
</g>
<g>
</g>
<g>
</g>
<g>
</g>
<g>
</g>
<g>
</g>
</svg>
