<?xml version="1.0" encoding="utf-8"?>
<!-- Generator: Adobe Illustrator 19.0.0, SVG Export Plug-In . SVG Version: 6.00 Build 0)  -->
<svg version="1.1" id="OBJECTS" xmlns="http://www.w3.org/2000/svg" xmlns:xlink="http://www.w3.org/1999/xlink" x="0px" y="0px"
	 viewBox="0 0 413.3 444.2" style="enable-background:new 0 0 413.3 444.2;" xml:space="preserve">
<style type="text/css">
	.st0{fill:#FF9100;}
	.st1{fill:#FFB200;}
	.st2{opacity:0.2827;fill:#FFB200;}
	.st3{fill:#0090C6;}
	.st4{opacity:0.2827;}
	.st5{fill:#494949;}
	.st6{fill:#FEFEFE;}
	.st7{fill:#F24B57;}
	.st8{fill:#F4BE90;}
	.st9{fill:#43496D;}
	.st10{opacity:0.3565;}
	.st11{fill:#15233A;}
	.st12{opacity:0.2774;}
	.st13{fill:#252935;}
	.st14{fill:#563624;}
	.st15{fill:#F54B56;}
	.st16{fill:#505982;}
	.st17{fill:url(#SVGID_1_);}
	.st18{fill:#FF7900;}
	.st19{opacity:0.3015;}
	.st20{opacity:0.1339;}
	.st21{fill:#2C2C2D;}
	.st22{opacity:0.1741;fill:url(#SVGID_2_);}
	.st23{fill:none;stroke:#43496D;stroke-linecap:round;stroke-linejoin:round;}
	.st24{fill:none;stroke:#43496D;stroke-linecap:round;stroke-linejoin:round;stroke-dasharray:1.0627,5.3137;}
	.st25{fill:none;stroke:#43496D;stroke-linecap:round;stroke-linejoin:round;stroke-dasharray:1.0293,5.1464;}
	.st26{fill:none;stroke:#43496D;stroke-linecap:round;stroke-linejoin:round;stroke-dasharray:0.9921,4.9606;}
	.st27{fill:none;stroke:#43496D;stroke-linecap:round;stroke-linejoin:round;stroke-dasharray:1.0363,5.1814;}
</style>
<g>
	<g>
		<g>
			<g>
				<path class="st0" d="M32.5,308.2c6.1,0.1,12.4,1.4,18.4,2.1c1.9,0.2,3.8,0.2,5.7,0.5c2.1,0.3,4.1,1,6.1,1.5c2.5,0.6,5,1,7.5,1.1
					c2.1,0.1,4.1-0.7,6.1-1.3c4.5-1.4,9-3,13.4-4.8c8.8-3.5,17.3-7.7,25.5-12.3c16.5-9.4,31.9-20.7,46.3-33
					c5.5-4.7,10.9-9.5,16.2-14.4c42-39,89.9-143.1,91.8-147.2c0,0-0.9-4.5-0.9-4.5c-1.8,1.2-43.1,23.7-52.8,28.9
					c-1.1,0.6-2.5,0.2-3-0.9c-1.3-2.6-4-7.7-4.4-9.6c-0.1-0.4,0.4,0.1,0.6-0.3c0.1-0.3,0.4-0.6,0.6-0.8c4.2-4,9-7.1,14-10
					c4-2.3,8-4.6,12.1-6.7c2-1,3.4-1.8,5.1-3.4c1.7-1.6,3.4-3.1,5.1-4.7c6.9-6.3,13.7-12.5,20.6-18.7c12.7-11.5,25.2-23.1,37.3-35.2
					c2.2-2.2,4.7-4.6,8.8-2.6c2.1,1,3.7,2.9,4.6,5.1c0,1.1,1.1,2.8,1.5,3.8c0.5,1.4,1.1,2.8,1.6,4.2c4.7,11.9,9.4,23.8,14.1,35.8
					c2.4,6.2,4.9,12.3,7.3,18.5c1.1,2.9,2.3,5.8,3.4,8.7c1.1,2.8,2,5.7,3.6,8.3c0.2,0.3,0.4,0.6,0.5,1c0.1,0.3,0.1,0.7,0.1,1
					c0.1,2.3,0,4.5-0.1,6.8c-0.1,0.9-0.1,1.7-0.5,2.5c-0.4,0.8-1,1.5-1.9,1.6c-2,0.3-4.1-1.3-5.5-2.5c-1.4-1.2-2.9-2.4-4.3-3.6
					c-3.2-2.6-6.4-5.3-9.6-7.9c-5.2-4.3-10.4-8.6-15.7-12.9c0,0-0.1,0-0.1,0c-0.1,3.3-1.8,96.1-25.5,152.7
					c-4.7,11.2-10,22.1-15.9,32.7c-19.5,35.1-45.7,66.6-77.3,91.4c-12,9.5-24.9,18-38.5,25c-5.5,2.9-11.3,5.1-16.9,7.7
					c-2.5,1.1-5.9,3.2-7.4-0.3c-1.7-3.9-3.1-8.7-4-12.9c-0.1-0.4,0.3-0.5,0.4-0.9c0.1-0.4,0.3-0.7,0.6-0.9c1.1-1.4,2.4-2.7,3.4-4.1
					c1.2-1.8,2.2-3.6,2.8-5.7c0.6-2.3,0.5-5,0.6-7.4c0.2-5.3,0.4-10.6,0.3-15.9c0-6.2-0.2-12.4-0.6-18.5c-0.3-5.1,0-6.5-4.9-5.7
					c-17.4,2.9-34.8,3.1-52.2-0.3c-9.6-1.9-19.4-5.7-28.3-9.7c-3-1.4-6.2-2.8-8.8-4.9C37.9,323.5,32.9,311.4,32.5,308.2z"/>
			</g>
			<g>
				<path class="st1" d="M344.7,119.5l-37.3-30.6c0,0-0.1,0-0.1,0c-0.1,3.3-1.8,96.1-25.5,152.7c-4.7,11.2-10,22.1-15.9,32.7
					c-19.5,35.1-45.7,66.6-77.3,91.4c-12,9.4-24.9,18-38.5,25c-5.5,2.9-11.3,5.1-16.9,7.7c-2.3,1-5.5,3.3-6.8,0.4
					c-1-2.2,1.2-9,1.5-11.5c0.7-6.4,1.2-12.9,1.6-19.3c0.3-5.9,0.4-11.8,0.4-17.7c0-6.2-0.2-12.4-0.6-18.5c0-0.7-0.1-1.3-0.1-1.9
					c-0.2-3.5-0.5-4.5-4.8-3.8c0,0-0.1,0-0.1,0c-48.2,8.1-93.2-12.2-91.9-19c0-0.3,0.1-0.5,0.3-0.7c1.2-1.9,10.4-1.4,12.8-1.8
					c4.7-0.7,9.4-1.6,14-2.6c44.2-10.2,81.3-37.5,113.9-67.8c42-39,89.9-143.1,91.8-147.2c0,0,0-0.1-0.1,0
					c-2.1,1.3-30,18.8-52.7,29.1c-3,1.4-5.6-2.5-3.3-4.8c30.1-30.1,60.3-60.1,90.4-90.2c1.9-1.9,4.1-4,7.3-3.1
					c0.4,0.1,0.9,0.3,1.4,0.5c2.1,1,3.7,2.9,4.6,5.2c10.3,26.1,28.3,71.9,36.5,92.5C350.4,119,347,121.5,344.7,119.5z"/>
			</g>
			<path class="st2" d="M344.7,119.5l-37.3-30.6c0,0-0.1,0-0.1,0c-0.1,3.3-1.8,96.1-25.5,152.7c-4.7,11.2-10,22.1-15.9,32.7
				c-19.5,35.1-45.7,66.6-77.3,91.4c-12,9.4-24.9,18-38.5,25c-5.5,2.9-11.3,5.1-16.9,7.7c-2.3,1-5.5,3.3-6.8,0.4
				c-1-2.2,1.2-9,1.5-11.5c0.7-6.4,1.2-12.9,1.6-19.3c0.3-5.9,0.4-11.8,0.4-17.7c0-6.2-0.2-12.4-0.6-18.5c0-0.7-0.1-1.3-0.1-1.9
				c58.2-29.5,99.3-89.2,127.3-149.1c32.7-70,47.4-140.3,50.3-162.9c0.4,0.1,0.9,0.3,1.4,0.5c2.1,1,3.7,2.9,4.6,5.2
				c10.3,26.1,28.3,71.9,36.5,92.5C350.4,119,347,121.5,344.7,119.5z"/>
		</g>
		<g>
			<path class="st3" d="M204.4,78.5H165c-3.5,0-6.3-2.8-6.3-6.3V42.4c0-3.5,2.8-6.3,6.3-6.3h39.4c3.5,0,6.3,2.8,6.3,6.3v29.7
				C210.7,75.6,207.9,78.5,204.4,78.5z"/>
			<path class="st3" d="M188.7,76.8l5.7,8.6c0.5,0.7,1.5,0.6,1.8-0.1c1.4-2.9,2.6-5.9,3.5-9.1"/>
		</g>
		<g class="st4">
			<path class="st5" d="M247,203.5c-3.1,8.3,1.8,17.4,1.9,26.2c0,8.6-4.7,18.6-9.7,25.5c-18.3,25-46.4,44.7-75.6,54.7
				c-3.3,1.1-6.7,2.1-9.7,3.9c-8.3,4.9-12.1,14.7-15.4,23.8c-2.3,6.5-4.6,13-6.9,19.4c-0.3,0.9-0.7,1.6-1.7,1.5
				c-0.3-2.7,0-5.5,0-8.2c0-6.2-0.2-12.4-0.6-18.5c0-0.7-0.1-1.3-0.1-1.9c-0.2-3.5-0.5-4.5-4.8-3.8c0,0-0.1,0-0.1,0
				c12.1-27.3,29.2-52.5,50.3-73.7l2.7-2.4c8.6-15.9,17.2-31.7,25.7-47.6c4.3-8,8.7-16.1,14.3-23.4c5.8-7.6,12.2-14.1,22.2-14.6
				c4.9-0.2,10.4,0.8,13.5,4.6c1,1.3,1.8,2.8,2.3,4.4c0.8,2.4,1.2,4.9,1.3,7.4c0.1,4.4-1,8.8-3.3,12.6
				C251.2,196.9,248.4,199.8,247,203.5z"/>
		</g>
		<g>
			<circle class="st6" cx="174.2" cy="58.5" r="3.8"/>
			<circle class="st6" cx="184.7" cy="58.5" r="3.8"/>
			<circle class="st6" cx="195.3" cy="58.5" r="3.8"/>
		</g>
		<g>
			<ellipse class="st7" cx="317.9" cy="208.9" rx="43.4" ry="41.5"/>
			<ellipse class="st6" cx="317.9" cy="208.9" rx="33.6" ry="32.1"/>
			<ellipse class="st7" cx="317.9" cy="208.9" rx="23.6" ry="22.6"/>
			<ellipse class="st6" cx="317.9" cy="208.9" rx="13.7" ry="13.1"/>
			<ellipse class="st7" cx="317.9" cy="208.9" rx="6.9" ry="6.6"/>
		</g>
		<path class="st7" d="M402.3,185.8c-1.9-1.7-4.9-1.6-7.4,0.2c-1-2.9-3.4-4.8-5.9-4.5c-3,0.4-5.1,3.7-4.6,7.5c0,0,0.5,6.1,5.8,11
			c0.9-0.1,6.8-1.2,10.6-4.6c0.3-0.2,0.6-0.5,0.8-0.8C404.2,191.8,404.5,187.9,402.3,185.8z"/>
		<path class="st7" d="M329.8,288.2c-0.4-2-2.5-3.3-4.9-3.2c0.7-2.3,0-4.7-1.8-5.6c-2.1-1.1-5,0.2-6.4,2.9c0,0-2.4,4.2-1.2,9.8
			c0.6,0.4,5,2.2,9,1.7c0.3,0,0.6-0.1,0.9-0.1C328.3,293,330.3,290.6,329.8,288.2z"/>
		<path class="st7" d="M124.6,67.5c-2.6-0.1-4.8,2-5.5,5c-2.6-1.6-5.7-1.5-7.4,0.4c-2.1,2.2-1.4,6.1,1.4,8.7c0,0,4.3,4.3,11.6,4.7
			c0.7-0.6,4.4-5.4,5.1-10.4c0.1-0.4,0.1-0.7,0.1-1.1C129.9,70.9,127.6,67.7,124.6,67.5z"/>
		<path class="st7" d="M83.4,161.9c-2.4,0.9-3.6,3.8-3,6.8c-3-0.4-5.8,1-6.6,3.4c-1,2.9,1.2,6.2,4.8,7.4c0,0,5.7,2.1,12.5-0.5
			c0.3-0.9,1.8-6.7,0.3-11.6c-0.1-0.4-0.2-0.7-0.3-1.1C89.7,162.8,86.3,160.8,83.4,161.9z"/>
		<path class="st7" d="M103.3,191.6c-1.8,0.1-3.3,1.8-3.6,3.9c-2-0.9-4.2-0.7-5.3,0.8c-1.3,1.7-0.6,4.5,1.6,6.1c0,0,3.4,2.7,8.6,2.5
			c0.4-0.5,2.7-4.2,2.8-7.8c0-0.3,0-0.5,0-0.8C107.3,193.6,105.4,191.5,103.3,191.6z"/>
		<g>
			<g>
				<path class="st8" d="M181,174.7c0.4-0.4,0.8-0.7,1.2-1.2c1-1.1,2.2-1.8,3.2-2.9c1.1-1.3,2.5-2.3,3.2-4c0.6-1.6,0.5-3.4,0.1-5
					c-0.4-1.3-0.9-2.5-1.9-3.4c-1-0.9-2.3-1.4-3.6-1.2c-0.6,0.1-1.1,0.4-1.6,0.8c-1.5,1.1-2.4,3-2.8,4.8c-0.4,1.7,0.1,3.6-0.3,5.3
					c-0.3,1.3-1.5,2.8-2.2,4"/>
			</g>
			<g>
				<path class="st9" d="M183.6,264.1l2.1,2.1c-8,7.5-24.1,7.2-34,4.2c-0.4-0.1-1.3-0.4-2.5-0.9c-8.3-3.1-32.6-13-32.6-14.2
					c0.1,18-5,35.6-10,52.8c-1.2,4-2.7,14.7-8.2,11.8c-0.5-0.2-0.9-0.6-1.5-1c-2.3-2-2.6-5.3-2.8-8.3c-1.2-22.1-1.4-44.2-0.6-66.3
					c0.1-3.3,0.3-6.8,2.3-9.4c4-5.2,12-3.7,18.3-2c16.6,4.4,33.5,5.6,50.4,8.7c5.2,0.9,10.6,0.9,15.7,2.3c5.1,1.4,10.2,4.7,11.5,9.8
					C193.1,258.6,188.8,265,183.6,264.1z"/>
			</g>
			<g class="st10">
				<path class="st11" d="M156.6,264.4c-2,1.5-4,3-6.1,4.3c-0.8,0.5-1.8,0.6-2.7,0.3c-6.8-2.6-20.1-8-26.9-11.3
					c-2-0.9-4.2,0.5-4.3,2.6c-0.8,16.2-5.4,32.1-9.9,47.7c-0.2,0.8-0.5,1.9-0.8,3.2c-1,3.8-6.7,2.5-5.9-1.3c0.1-0.7,0.3-1.4,0.4-2.2
					c4-20.1,7.2-40.5,9.6-60.9c0.2-1.7,1.8-3,3.5-2.7c3.2,0.6,6.3,2,9.4,3.3c10.7,4.6,21.8,8.1,33,11.6
					C158,259.8,158.6,262.9,156.6,264.4z"/>
			</g>
			<g>
				<g>
					<path class="st9" d="M204.6,272.7c-3.9,4.6-8.8,8.3-13.9,11.3c-10.3,6-21.6,11.1-33,14.8c-9.9,3.2-13.6,10.2-17.3,19.4
						c-5.1,13-11.2,25.7-16.7,38.5c-3.5,8-8.8,17.3-17.5,17.2c3-17,6.7-33.9,10.7-50.7c3.4-14.2,4.7-33.8,14.4-45.3
						c6.4-7.5,15.3-12.5,23.9-17.1c8.6-4.6,16.8-9.9,25.2-14.7c6.1-3.5,12.5-7.1,19.5-7.2c12.4-0.2,14.3,11.9,11.5,21.6
						C210,265,207.6,269.1,204.6,272.7z"/>
				</g>
			</g>
			<g>
				<path class="st3" d="M228.8,211.4c-0.2,1-0.4,2-0.7,3c-3.4,13.9-9.9,30.3-12.2,35.1c-1,2.2-2,4.4-3.4,6.3c-0.3,0.4-0.6,0.8-1,1
					c-0.6,0.2-1.2-0.1-1.8-0.1c-3.7-0.4-7-0.8-10.2-1.2c-3.5-0.5-6.7-1-9.7-1.6c-1.2-0.2-2.3-0.4-3.4-0.7c-16-3.3-22.7-7.4-25.5-9.9
					c-0.1-0.1-0.2-0.2-0.3-0.3c-1.3-1.2-1.6-2-1.6-2s3.3-5.6,4.9-8.2c4.3-7,8-14.3,11.7-21.7c2.4-4.6,4.5-9.3,6.8-13.9
					c2.2-4.4,6.7-8.4,10.2-11.8c1.1-1,2.2-2.1,3.5-2.8c2-1.1,4.4-1.3,6.6-1.5c2.4-0.2,4.8-0.4,7.2,0.1c0.8,0.2,1.6,0.4,2.4,0.7
					c2.9,1,5.9,2,8.5,3.7c3.8,2.4,6.8,5.9,8.5,10.1C230.8,198.9,230.2,204.7,228.8,211.4z"/>
			</g>
			<g class="st12">
				<path class="st3" d="M228.8,211.4c-0.2,1-0.4,2-0.7,3c-3.4,13.9-9.9,30.3-12.2,35.1c-1,2.2-2,4.4-3.4,6.3c-0.3,0.4-0.6,0.8-1,1
					c-0.6,0.2-1.2-0.1-1.8-0.1c-3.7-0.4-7-0.8-10.2-1.2C221.1,234.5,216.6,224.7,228.8,211.4z"/>
			</g>
			<g>
				<path class="st3" d="M199.8,196.3c0.3-0.3,0.7-0.5,0.8-0.9c0.2-0.5,0-1.1-0.2-1.6c-1.1-3,5.5-13,2.3-12.8
					c-11.6,0.9-22.3,7.9-30.8,15.3c3.8-4.4,6.3-9.8,8.3-15.3c0.9-2.5,1.5-5.1,2.8-7.4c1.3-2.2-0.6-3.2-2.4-4.4
					c-0.3-0.2-0.7-0.5-1.1-0.6c-2.2-0.6-5.8,3-7.4,4.3c-2.3,1.9-4.4,4-6.3,6.2c-3.8,4.5-6.7,9.6-8.5,15.2c-1.6,4.8-4,12.7,1.8,15.4
					c1.8,0.8,3.8,1,5.7,1c2.4,0,4.8-0.3,7.1-0.8c1.7-0.4,3.5-0.9,5.2-1.4c1.4-0.4,2.8-0.9,4.2-1.3c1.8-0.6,3.6-1.1,5.3-1.9
					c2.5-1.2,4.7-2.8,6.8-4.5C195.5,199.3,197.7,197.9,199.8,196.3z"/>
			</g>
			<g>
				<path class="st3" d="M224.7,188.4c0,0-0.8,4.9-1.3,6.2c-0.9,2.5-2.2,4.8-3.3,7.2c-1.1,2.4-1.9,5.6-1.7,8.3
					c0.1,1.8,1.1,3.8,1.6,5.5c0.6,2,1.2,3.9,1.7,5.9c0.6,2.1,1.6,9.6-1.3,17.2c-3.1,8.2-7.1,16.1-11.5,23.7
					c-0.7,1.2-1.4,2.4-1.7,3.8c-0.9,4.3,2.8,4.1,5.4,2.3c4.8-3.1,8.9-7.1,12.7-11.3c5-5.3,9.6-11.7,12.5-18.5
					c1.3-3.1,2.6-6.2,2.9-9.5C243.7,200.9,227.2,190.8,224.7,188.4z"/>
			</g>
			<g>
				<path class="st8" d="M224.7,172.7c-1.8,4.5-3.3,9.1-4.6,13.7c-2,7-12.8,4-10.9-3c0.3-1,0.6-2,0.9-3c0-0.1,0.1-0.3,0.1-0.4
					c0.6-1.9,1.2-3.7,1.9-5.6c0-0.1,0.1-0.3,0.1-0.4c0.5-1.4,1-2.9,1.6-4.3c1.1-2.9,3.7-4.8,6.9-3.9
					C223.4,166.5,225.8,169.9,224.7,172.7z"/>
			</g>
			<g>
				<path class="st8" d="M221.2,174.1c-1.3,2.7-3.9,4.6-6.7,5.5c-1.4,0.5-2.9,0.7-4.4,0.8c0-0.1,0.1-0.3,0.1-0.4
					c0.6-1.9,1.2-3.7,1.9-5.6c1.9,0.4,3.9,0.4,5.9,0C219,174.3,220.1,174,221.2,174.1z"/>
			</g>
			<g>
				<path class="st13" d="M104.1,324c0.2-0.1,0.3-0.3,0.4-0.4c0.9-1.1,0.9-2.6,0.8-4c0-2.2,0-4.3,0.3-6.5c0.1-1.1,1.2-4-0.6-4
					c-3.3,0-6.6,0-10,0c-0.1,0-0.2,0-0.3,0.1c-0.2,0.1-0.2,0.3-0.3,0.6c-0.1,0.9-0.2,2.3-0.8,3c-0.6,0.9-2.3,1.3-3.3,1.5
					c-1.4,0.3-2.8,0.3-4.2,0.3c-3.5,0.1-7,0.3-10.5,0.5c-1.5,0.1-3,0.2-4.3,1.1c-1.9,1.3-2,3.4-0.3,4.7c2.6,2,6.5,2.3,9.7,2.6
					c3.5,0.4,7.1,0.5,10.6,0.7c2.3,0.1,4.7,0.3,7,0.4C100.1,324.7,102.6,325.1,104.1,324z"/>
			</g>
			<g>
				<path class="st13" d="M118.3,374.7c0.2-0.1,0.3-0.3,0.4-0.4c1.3-1.6,1.2-4.4,1.5-6.4c0.4-2.5,0.8-5,1.3-7.5
					c-4.2,0.6-8.4-1.2-12.6-0.6c-0.1,1.3-0.6,2.7-1.4,3.8c-0.8,1-1.7,1.2-2.9,1.4c-1.4,0.3-2.8,0.3-4.2,0.3c-3.5,0.1-7,0.3-10.5,0.5
					c-1.5,0.1-3,0.2-4.3,1.1c-1.9,1.3-2,3.4-0.3,4.7c2.6,2,6.5,2.3,9.7,2.6c3.5,0.4,7.1,0.5,10.6,0.7c2.3,0.1,4.7,0.3,7,0.4
					C114.3,375.4,116.8,375.8,118.3,374.7z"/>
			</g>
			<g>
				<path class="st8" d="M211.8,265.1c-0.5-0.6-1.3-1.1-2.1-1.2c-2.1-0.2-4.5,2-5.9,3.3c-1.7,1.6-3.1,3.6-3.8,5.9
					c-0.6,2-1.4,6,0.6,7.5c2.4,1.9,6.5-0.8,8.3-2.4c3-2.8,5.4-7.6,3.8-11.8C212.4,266,212.1,265.5,211.8,265.1z"/>
			</g>
			<g>
				<path class="st14" d="M213.2,149.7c0.8,1.1,0.5,2.5,0.4,3.8c-0.1,1.3-0.1,2.6-0.4,3.9c-0.6,2.6-2,5.1-4,7
					c-1,0.9-2.5,1.8-3.7,1.1c-1.1-0.6-1.4-2-1.4-3.3c-0.1-3.8,0.9-7.5,2.9-10.8c0.9-1.4,2.1-2.9,3.8-2.9
					C211.7,148.5,212.6,148.9,213.2,149.7z"/>
			</g>
			<g>
				<path class="st8" d="M216.6,150.8c-4.6-0.3-8.6,3.4-10.6,7.6c-1.4,2.8-2.2,6.1-1.8,9.2c0.4,3.2,2,6.3,4.6,8.1
					c2.8,2,6.5,2.2,9.8,1.4c2-0.5,3.9-1.3,5.5-2.5c0.6-0.4,1.3-0.9,1.9-1.3c0.4-0.3,0.8-0.8,1.3-1c0.3-0.1,0.6-0.1,0.9-0.1
					c0.8-0.1,1.6-0.4,2.3-0.8c0.5-0.3,1-0.8,1.2-1.4c0.2-0.4,0.2-0.8,0.3-1.2c0.1-1.4,0.1-2.7,0.4-4c0.4-1.6,0.6-3.5-0.4-4.9
					c-0.8-1-2.1-1.4-3.1-2.2c-1.1-0.9-1.3-2.3-2.1-3.5c-1.9-2.5-5.4-4-8.2-2.7"/>
			</g>
			<g>
				<path class="st14" d="M223.6,145c-0.2-2.4-1.5-4.8-3.5-6.1c-2.4-1.5-5.6-1.6-8-0.1c-5.1,3.3-3.2,10.7,1.2,13.7
					c4,2.7,12.3,0.8,14.3,6.3c1.1,2.9-1.4,6-1.2,9.2c0.9-0.1,1.5-0.9,2-1.6c0.5-0.7,1.4-1.4,2.2-1.1c0.6,0.2,0.9,1,1,1.7
					c0.1,0.9,0.1,1.9-0.3,2.7c-0.4,0.8-1.1,1.5-2,1.7c-0.5,0.1-0.9,0-1.4,0c-1.4,0.1-2.6,1.1-3.3,2.3c-0.7,1.2-1.9,3.7,0.3,2.6
					c1.2-0.6,2.3-1.4,3.3-2.3c3-2.4,5.5-5.5,6.8-9.1c1-2.7,1.1-5.6,0.3-8.3c-0.2-0.8-0.6-1.6-1.2-2.2c-0.6-0.6-1.5-0.9-2.3-0.7
					c0-1.4-0.1-2.9-0.5-4.3c-0.4-1.4-1.1-2.7-2.3-3.5c-1.6-1-3.8-0.9-5.3,0.3C223.6,145.7,223.6,145.4,223.6,145z"/>
			</g>
		</g>
		<g>
			<g>
				<path class="st7" d="M185.3,154.8c-0.2,0.2-0.4,0.5-0.5,0.8c-1.6,3.9-2.9,8-3.8,12.1c-0.3,1.1-0.4,2.4,0.3,3.2
					c0.6,0.7,1.7,0.7,2.6,0.3c0.8-0.4,1.5-1.1,2.1-1.8c3.2-4.1,5-9,6.3-14"/>
			</g>
			<g>
				<path class="st15" d="M203.6,154.4c-0.7,2.9-2.5,5.5-5.4,6c-1.2,0.2-2.4,0-3.7-0.3c-2.5-0.7-5.1-2.1-7.2-2.7
					c-1.7-0.5-3.4-0.9-5.2-1.2c-1.8-0.3-3.5-0.5-5.4-0.6c-7.1-0.4-14.3,0.3-21.4,0.4l16.3-38.4c3.5,6.2,7.3,12.3,12.1,17.6
					c1.3,1.4,2.7,2.8,4.2,4.1c0.9,0.8,1.9,1.6,2.9,2.3c2.5,1.9,4.8,3.8,7.7,5.2c0.5,0.2,1,0.4,1.4,0.7c0.9,0.5,1.8,1,2.5,1.7
					C203.8,150.5,204.1,152.6,203.6,154.4z"/>
			</g>
			<path class="st16" d="M173.7,131.8c-0.3,2.2-0.8,4.4-1.6,6.7c-1.3,3.8-3.1,7.2-5.1,9.9c-4.2,5.6-9.5,8.6-14,7.1
				c-6.7-2.2-9-13.5-5.1-25.1c3.9-11.6,12.4-19.2,19.1-17C172.5,115.2,175,122.8,173.7,131.8z"/>
			<path class="st13" d="M171.7,132.1c0,0.3-0.1,0.6-0.1,0.9c0,0.1,0,0.3-0.1,0.4c-0.2,1.4-0.6,2.9-1.1,4.4
				c-0.7,1.9-1.4,3.8-2.4,5.4c-0.2,0.3-0.4,0.6-0.5,0.9c-0.5,0.8-0.9,1.5-1.5,2.2c-3.6,4.8-8.1,7.3-12,6.1
				c-5.7-1.9-7.7-11.5-4.3-21.5c3.3-9.9,10.6-16.4,16.4-14.5C170.7,118,172.8,124.5,171.7,132.1z"/>
			<g>
				<linearGradient id="SVGID_1_" gradientUnits="userSpaceOnUse" x1="164.5373" y1="136.8775" x2="172.4689" y2="140.0839">
					<stop  offset="0" style="stop-color:#FF9100;stop-opacity:0.97"/>
					<stop  offset="0.2321" style="stop-color:#BD7210;stop-opacity:0.97"/>
					<stop  offset="0.5392" style="stop-color:#6C4B24;stop-opacity:0.97"/>
					<stop  offset="0.7573" style="stop-color:#393230;stop-opacity:0.97"/>
					<stop  offset="0.864" style="stop-color:#252935;stop-opacity:0.97"/>
				</linearGradient>
				<path class="st17" d="M171.3,134.7c0,0.1,0,0.2-0.1,0.3c-0.2,1.2-0.5,2.3-0.9,3.5c-0.5,1.6-1.2,3-1.9,4.3
					c-0.1,0.2-0.3,0.5-0.4,0.7c-0.9,0-2.7-0.2-3.6-0.2c-0.2,0-0.4,0-0.6,0c-0.8,0-3.1-0.2-3.3-0.3c0,0,0.2,0,0.3-0.5
					c0.1-0.3,0.2-0.6,0.3-0.9c0.4-1.3,0.8-2.6,1.3-3.9c0.9-2.6,1.9-5.1,2.6-7.8c0.2-0.3,0.4-0.5,0.6-0.8
					C165.9,129.6,170.1,133.6,171.3,134.7z"/>
			</g>
			<path class="st1" d="M166.7,134.9c-0.1,0.7-0.3,1.5-0.5,2.3c-0.4,1.3-1,2.5-1.7,3.4c-1.4,1.9-3.2,2.9-4.8,2.4
				c-2.3-0.8-3.1-4.6-1.7-8.6c1.3-4,4.2-6.6,6.5-5.8C166.2,129.2,167.1,131.8,166.7,134.9z"/>
			<g>
				<path class="st13" d="M203.6,154.4c-0.7,2.9-2.5,5.5-5.4,6c-1.2,0.2-2.4,0-3.7-0.3c2.9-2.4,5.4-7.2,5.5-12.8
					c0.9,0.5,1.8,1,2.5,1.7C203.8,150.5,204.1,152.6,203.6,154.4z"/>
			</g>
		</g>
		<g>
			<g class="st4">
				<g>
					<path class="st18" d="M275,104.9c-5,19.6-12.2,38.5-20.9,56.8c-0.3,0.7,0.6,1.2,1,0.6c9.7-17.9,16.4-37.3,20.6-57.2
						C275.9,104.6,275.2,104.4,275,104.9L275,104.9z"/>
				</g>
			</g>
			<g class="st4">
				<g>
					<path class="st18" d="M270.9,142.5c-5.9,19.4-14.1,37.9-23.7,55.7c-0.4,0.7,0.6,1.2,1,0.6c10.6-17.4,18.2-36.4,23.4-56.1
						C271.7,142.3,271,142.1,270.9,142.5L270.9,142.5z"/>
				</g>
			</g>
			<g class="st4">
				<g>
					<path class="st18" d="M261.3,122.2c-2.1,8-5.6,15.7-8.4,23.4c-0.2,0.5,0.6,0.9,0.9,0.4c4-7.5,5.9-15.6,7.8-23.8
						C261.6,122.1,261.4,122,261.3,122.2L261.3,122.2z"/>
				</g>
			</g>
		</g>
		<g>
			<g class="st4">
				<g>
					<path class="st18" d="M145.9,352.7c24.3-13.8,47-31.8,64.5-53.7c0.4-0.5-0.3-1.3-0.8-0.8c-9.6,10.1-19.3,19.8-29.9,28.9
						c-10.7,9.1-22.2,17.4-34.2,24.9C145,352.2,145.4,352.9,145.9,352.7L145.9,352.7z"/>
				</g>
			</g>
			<g class="st4">
				<g>
					<path class="st18" d="M202.8,324.6c-4.1,6.1-9.2,11.3-15,15.7c-0.8,0.6-0.1,1.9,0.8,1.3c6.4-4.3,11.3-9.9,15-16.6
						C203.9,324.6,203.1,324.1,202.8,324.6L202.8,324.6z"/>
				</g>
			</g>
			<g>
				<g>
					<path class="st18" d="M195.7,298.1c-4.8,5.4-10,10.6-15.5,15.4c-5.5,4.8-11.6,8.7-17.3,13.3c-0.4,0.4,0.1,1,0.6,0.7
						c6.4-3.2,12.4-8.3,17.7-13c5.5-4.9,10.5-10.2,14.9-16C196.3,298.2,195.9,297.9,195.7,298.1L195.7,298.1z"/>
				</g>
			</g>
		</g>
		<g class="st19">
			<path class="st1" d="M247.1,89.9c-2.6,0.8-5.6,2.4-8.2,2.9c-2.4,0.4-2.5-1.4-1-2.9c2.1-2,4.4-4,6.5-6
				c19.7-18.8,38.5-38.6,56.3-59.1c0.6,3.1-5.6,33-9.2,44.5C291.1,70.6,252.1,88.3,247.1,89.9z"/>
		</g>
		<g class="st20">
			<path class="st1" d="M210.8,213.4c-3,15.5-13.6,28.3-24.5,39.8c-16-3.3-22.7-7.4-25.5-9.9l0,0c7.6-9.6,15.2-19.2,21.8-29.5
				c3.1-4.9,6.1-10.1,11-13.2c4.9-3.1,12.2-3.3,15.7,1.4C211.7,205.1,211.6,209.5,210.8,213.4z"/>
		</g>
		<g>
			<g>
				<g>
					<path class="st21" d="M268.2,255.8c16.5-15.3,33.4-30.3,49.4-46.2c0.4-0.4-0.2-0.9-0.6-0.6c-16.8,15-32.8,30.9-49.1,46.5
						C267.7,255.7,268,256,268.2,255.8L268.2,255.8z"/>
				</g>
			</g>
			<g>
				<g>
					<path class="st21" d="M264,256.7c1.4-0.1,2.8-0.4,4.3-0.6c-0.2-0.2-0.4-0.3-0.6-0.5c-0.1,1.3-0.5,2.8-0.3,4.2
						c0,0.3,0.5,0.2,0.6,0c0.5-1.3,0.5-2.8,0.7-4.2c0-0.3-0.3-0.5-0.6-0.5c-1.4,0.3-2.7,0.7-4.1,1.2
						C263.8,256.4,263.8,256.8,264,256.7L264,256.7z"/>
				</g>
			</g>
		</g>
		
			<linearGradient id="SVGID_2_" gradientUnits="userSpaceOnUse" x1="350.1242" y1="-37.7627" x2="361.7921" y2="18.4764" gradientTransform="matrix(0.9903 0.1393 -0.1393 0.9903 28.8648 -4.4523)">
			<stop  offset="0" style="stop-color:#D5005B;stop-opacity:0.97"/>
			<stop  offset="3.261257e-002" style="stop-color:#C4005F;stop-opacity:0.97"/>
			<stop  offset="0.123" style="stop-color:#9A0069;stop-opacity:0.97"/>
			<stop  offset="0.2154" style="stop-color:#780071;stop-opacity:0.97"/>
			<stop  offset="0.3089" style="stop-color:#5D0077;stop-opacity:0.97"/>
			<stop  offset="0.4038" style="stop-color:#4A007B;stop-opacity:0.97"/>
			<stop  offset="0.5011" style="stop-color:#3F007E;stop-opacity:0.97"/>
			<stop  offset="0.6045" style="stop-color:#3B007F;stop-opacity:0.97"/>
		</linearGradient>
		<path class="st22" d="M404.1,26.8l-5-0.7c-0.2-1.3-0.5-2.6-1-3.8l4.1-3.1c0.6-0.5,0.7-1.3,0.3-2l-3.9-5.2c-0.5-0.6-1.3-0.7-2-0.3
			l-4.2,3.1c-1-0.7-2.1-1.4-3.2-1.9l0.7-5.3c0.1-0.8-0.4-1.5-1.2-1.6l-6.4-0.9c-0.8-0.1-1.5,0.4-1.6,1.2l-0.7,5.3
			c-1.2,0.2-2.4,0.5-3.6,0.9l-3.2-4.3c-0.5-0.6-1.3-0.7-2-0.3L366,12c-0.6,0.5-0.7,1.3-0.3,2l3.2,4.2c-0.8,1-1.4,2.1-2,3.2l-5.2-0.7
			c-0.8-0.1-1.5,0.4-1.6,1.2l-0.9,6.4c-0.1,0.8,0.4,1.5,1.2,1.6l5,0.7c0.2,1.3,0.4,2.6,0.9,3.8l-4,3c-0.6,0.5-0.7,1.3-0.3,2l3.9,5.2
			c0.5,0.6,1.3,0.7,2,0.3l3.9-2.9c1.1,0.8,2.2,1.6,3.5,2.1l-0.7,4.8c-0.1,0.8,0.4,1.5,1.2,1.6l6.4,0.9c0.8,0.1,1.5-0.4,1.6-1.2
			l0.7-4.7c1.4-0.2,2.7-0.5,4-1l2.9,3.8c0.5,0.6,1.3,0.7,2,0.3l5.2-3.9c0.6-0.5,0.7-1.3,0.3-2l-2.9-3.8c0.8-1.1,1.5-2.3,2-3.5
			l4.9,0.7c0.8,0.1,1.5-0.4,1.6-1.2l0.9-6.4C405.4,27.6,404.8,26.9,404.1,26.8z M381,37.8c-5.1-0.7-8.7-5.4-7.9-10.5
			c0.7-5.1,5.4-8.7,10.5-7.9c5.1,0.7,8.7,5.4,7.9,10.5C390.8,35,386.1,38.6,381,37.8z"/>
		<g>
			<g>
				<path class="st18" d="M282.2,300.6c-17.7,33.8-41.9,64.3-70.8,89.2c-8.3,7.2-17,13.9-26,20.2c-0.2,0.2,0,0.5,0.2,0.4
					c31.6-21.5,58.8-49.5,80.1-81.3c6.1-9.2,11.7-18.6,16.7-28.4C282.5,300.6,282.3,300.5,282.2,300.6L282.2,300.6z"/>
			</g>
		</g>
		<g>
			<g>
				<path class="st18" d="M272.6,336.5c-7.3,11.7-15.9,22.6-25.4,32.5c-0.1,0.1,0.1,0.3,0.2,0.2c9.7-9.9,18.1-20.9,25.4-32.6
					C272.9,336.5,272.7,336.4,272.6,336.5L272.6,336.5z"/>
			</g>
		</g>
		<g>
			<g>
				<g>
					<path class="st18" d="M104.9,389.2c-20.1,13.4-39.7,27.7-58.2,43.3c-0.1,0.1,0.1,0.3,0.2,0.2C65.8,417.6,85,403,105,389.4
						C105.2,389.3,105,389.1,104.9,389.2L104.9,389.2z"/>
				</g>
			</g>
			<g>
				<g>
					<path class="st18" d="M80,395.7c-9.8,6.5-19.1,13.6-27.7,21.5c-0.1,0.1,0.1,0.3,0.2,0.2c8.7-7.8,17.9-15,27.6-21.5
						C80.3,395.9,80.1,395.6,80,395.7L80,395.7z"/>
				</g>
			</g>
			<g>
				<g>
					<path class="st18" d="M77.9,385.8c-24.2,15.7-47.6,32.5-70,50.6c-0.2,0.1,0.1,0.3,0.2,0.2C30.6,418.8,54,401.8,78,386
						C78.2,386,78,385.8,77.9,385.8L77.9,385.8z"/>
				</g>
			</g>
		</g>
		<g>
			<path class="st8" d="M183.3,166.9c1.7-0.6,2.9-2.1,3.5-3.8c0.7-1.8,0.6-3.7-1.2-4.8c-0.6-0.4-1.3-0.7-1.9-0.7c-1.2,0-2.2,1-3,1.9
				c-0.6,0.8-1.2,1.7-1.6,2.7c-0.3,0.8-0.8,2.1-0.4,2.9C179.5,166.7,181.8,167.4,183.3,166.9z"/>
		</g>
		<g>
			<g>
				<path class="st23" d="M140.7,83.1c0.1,0.2,0.1,0.3,0.2,0.5"/>
				<path class="st24" d="M142.8,88.5c3.6,9,7.7,17.9,12.2,26.6"/>
				<path class="st23" d="M156.2,117.4c0.1,0.1,0.2,0.3,0.2,0.4"/>
			</g>
		</g>
		<g>
			<g>
				<path class="st23" d="M88.9,95.1c0.1,0.1,0.2,0.2,0.4,0.3"/>
				<path class="st25" d="M93.2,98.9c14.9,12.9,31.6,23.7,49.5,32.1"/>
				<path class="st23" d="M145,132.1c0.2,0.1,0.3,0.1,0.5,0.2"/>
			</g>
		</g>
		<g>
			<g>
				<path class="st23" d="M65.9,117.7c0.1,0.1,0.3,0.1,0.4,0.2"/>
				<path class="st26" d="M70.9,119.9c20.1,8.4,51.7,15.1,72.5,18.2"/>
				<path class="st23" d="M145.8,138.5c0.2,0,0.3,0,0.5,0.1"/>
			</g>
		</g>
		<g>
			<g>
				<path class="st23" d="M99.3,146.1c0.2,0,0.3,0,0.5,0"/>
				<path class="st27" d="M105,146.4c11.6,0.6,23.2,0.9,34.7-0.5"/>
				<path class="st23" d="M142.2,145.5c0.2,0,0.3-0.1,0.5-0.1"/>
			</g>
		</g>
		<g>
			<g>
				<path class="st1" d="M130.3,195.1c-7.6-5.2-9.6-14-5.2-22c1.8-3.3-3.6-5.5-5.4-2.2c-5.5,10.2-2.4,22.4,7.1,28.9
					C129.9,201.9,133.4,197.3,130.3,195.1L130.3,195.1z"/>
			</g>
			<g>
				<path class="st1" d="M136.8,187.5c-2.6-1.7-4.9-6.5-3.2-9.5c1.9-3.2-2.7-6.7-4.7-3.5c-3.4,5.7-1.2,14,4.3,17.7
					C136.4,194.2,140,189.6,136.8,187.5L136.8,187.5z"/>
			</g>
			<g>
				<path class="st1" d="M141.1,183.6c3.5-1.5,1.2-6.8-2.3-5.4C135.4,179.6,137.6,185,141.1,183.6L141.1,183.6z"/>
			</g>
		</g>
	</g>
</g>
</svg>
