<?xml version="1.0" encoding="utf-8"?>
<!-- Generator: Adobe Illustrator 19.0.0, SVG Export Plug-In . SVG Version: 6.00 Build 0)  -->
<svg version="1.1" xmlns="http://www.w3.org/2000/svg" xmlns:xlink="http://www.w3.org/1999/xlink" x="0px" y="0px"
	 viewBox="0 0 586.4 476" style="enable-background:new 0 0 586.4 476;" xml:space="preserve">
<style type="text/css">
	.st0{display:none;}
	.st1{display:inline;fill:url(#SVGID_1_);}
	.st2{fill:#FFFFFF;}
	.st3{fill:#BECCFD;}
	.st4{fill:none;}
	.st5{fill:#9FB5F4;}
	.st6{fill:#5B79C4;}
	.st7{fill:#A4B5FD;}
	.st8{fill:#E5B3CD;}
	.st9{fill:#2A2B7D;}
	.st10{fill:#1A1947;}
	.st11{fill:#DFE5FF;}
	.st12{fill:none;stroke:#FFFFFF;stroke-width:0.7063;stroke-miterlimit:10;}
	.st13{fill:none;stroke:#FFFFFF;stroke-width:0.5935;stroke-miterlimit:10;}
	.st14{fill:none;stroke:#FFFFFF;stroke-width:0.4739;stroke-miterlimit:10;}
	.st15{fill:#FFD258;}
	.st16{fill:#FFB936;}
	.st17{font-family:'UbuntuTitling-Bold';}
	.st18{font-size:41.5626px;}
	.st19{fill:#64B5F6;}
	.st20{fill:#2C417C;}
	.st21{fill:#CE4B59;}
	.st22{fill:#FDD540;}
	.st23{fill:#F3A9B8;}
	.st24{fill:#E87D91;}
	.st25{fill:none;stroke:#1A1947;stroke-width:9.442900e-002;stroke-miterlimit:10;}
	.st26{fill:none;stroke:#1A1947;stroke-width:9.364400e-002;stroke-miterlimit:10;}
	.st27{fill:none;stroke:#1A1947;stroke-width:0.1046;stroke-miterlimit:10;}
	.st28{fill:#F990A1;}
	.st29{fill:none;stroke:#1A1947;stroke-width:0.1044;stroke-miterlimit:10;}
</style>
<g id="BACKGROUND" class="st0">
	<radialGradient id="SVGID_1_" cx="281.4023" cy="234.2014" r="716.5588" gradientUnits="userSpaceOnUse">
		<stop  offset="0" style="stop-color:#FFFFFF"/>
		<stop  offset="1" style="stop-color:#B3B3B3"/>
	</radialGradient>
	<rect x="-93.6" y="-15.8" class="st1" width="750" height="500"/>
</g>
<g id="OBJECTS">
	<g>
		<path class="st2" d="M132,139.5h59.7c0,0-1.3-13.6-16-17.2c-14.7-3.6-20.2,9.3-20.2,9.3S141.7,122.7,132,139.5z"/>
		<g>
			<g>
				<path class="st3" d="M569.2,275.2l-81.4,106.9l-2.3,6.1l2.6,0.9c0,0,0.2-0.5,0.7-1.3l0.1,0.1C488.8,388,583.4,290.1,569.2,275.2
					z"/>
				<path class="st3" d="M477.2,387l4.2,0.7l22.3-137.5C484,254.9,477.2,387,477.2,387z"/>
				<path class="st3" d="M503.5,313.8c7.5-31.7,11.9-61.8,2.1-63.6c-0.5-0.1-1-0.1-1.5,0l-22.3,137.6l0.5,0.1l0.9-0.5l0.1,0l4.2-5.5
					l51.1-137C528.4,242.7,514.7,277.8,503.5,313.8z"/>
				<path class="st3" d="M568.6,274.6c-9.3-6.9-32.6,25-52.3,56.3c17.2-38.2,34-81.7,22.8-85.9c-0.1,0-0.1,0-0.2-0.1l-50.6,135.9
					l80.7-105.9C568.8,274.8,568.7,274.7,568.6,274.6z"/>
				<path class="st2" d="M503.6,250.2l-22.3,137.5l0.4,0.1L504,250.2C503.9,250.2,503.8,250.2,503.6,250.2z"/>
				<path class="st2" d="M538.5,244.9l-51.1,137l0.8-1.1L538.9,245C538.8,244.9,538.6,244.9,538.5,244.9z"/>
				<path class="st2" d="M568.9,274.9l-80.7,105.9l-0.5,1.3l81.4-106.9C569.1,275.1,569,275,568.9,274.9z"/>
			</g>
			<g>
				<path class="st2" d="M579.4,346.8c0-0.6-0.2-1.2-0.6-1.7c-4.5-6.4-26.1,8.9-45.3,24.6c18.6-20.2,37.9-43.8,32.9-49.7l-64,76
					L579.4,346.8z"/>
				<path class="st2" d="M566.2,319.8c0,0-0.1-0.1-0.1-0.1c-5.7-4.6-22.2,15.3-37.2,36.3c11.4-18.6,20.6-37,14.6-40.3
					c0,0-0.1,0-0.1,0l-41.5,80.5L566.2,319.8z"/>
				<polygon class="st2" points="499.3,398.6 499.6,398.8 500.4,397.9 				"/>
				<path class="st2" d="M543,315.5c-13.1-4.8-46.3,81.7-46.3,81.7l2.2,1.2l2.1-1.3L543,315.5z"/>
				<path class="st2" d="M501.6,397.1l-0.5,0.6l-0.5,1l2.7,2.2c0,0,0.2-0.2,0.7-0.7l0,0.1c0,0,74.8-38.8,75.4-53.1L501.6,397.1z"/>
				<path class="st3" d="M501.6,397.1l77.8-49.9c0-0.2,0-0.3,0-0.5l-77,49.3l64-76c-0.1-0.1-0.2-0.2-0.3-0.3l-64.3,76.3l41.5-80.5
					c-0.1-0.1-0.2-0.1-0.4-0.2l-42,81.6l-2.1,1.3l0.4,0.2l1.2-0.7l-0.8,0.9l0.2,0.1l0.7-0.1l0,0l0.5-1L501.6,397.1z"/>
			</g>
			<g>
				<path class="st3" d="M68.6,334.8l38.9,97.1l2.6-1.1C110.1,430.8,83.6,331.1,68.6,334.8z"/>
				<path class="st3" d="M68,335c-7,2.9,1,24.3,11.4,46.3c-14.1-24.9-29.8-48.8-36.7-44.7l64.2,95.5l0.2-0.1l-38.9-97.1
					C68.1,334.9,68.1,335,68,335z"/>
				<path class="st3" d="M101.7,433.4L101.7,433.4c0.5,0.5,0.7,0.8,0.7,0.8l2.6-1.7L25,364C18.2,377.8,101.7,433.4,101.7,433.4z"/>
				<path class="st3" d="M72.7,396c-19.3-19.7-41.4-39.3-47.2-32.8c-0.1,0.1-0.2,0.3-0.3,0.4l80.2,68.7l0.4-0.2l0.7,0.2l0,0
					l-64.2-95.5C35.5,342.1,54.3,371,72.7,396z"/>
				<polygon class="st2" points="25.2,363.6 25,364 105.1,432.5 105.4,432.3 				"/>
				<path class="st2" d="M42.6,336.6c-0.1,0.1-0.1,0.1-0.2,0.2l64.2,95.5l0.4-0.2l-64.2-95.5C42.7,336.6,42.6,336.6,42.6,336.6z"/>
				<path class="st2" d="M68.2,334.9l38.9,97.1l0.4-0.1l-38.9-97.1C68.4,334.8,68.3,334.9,68.2,334.9z"/>
			</g>
			<g>
				<path class="st2" d="M37.2,255.4c-24.2,11.4,70.6,157.8,70.6,157.8l0.1-0.1c0.3,1.1,0.5,1.7,0.5,1.7l4.6-0.7l-74.9-159
					C37.8,255.2,37.5,255.2,37.2,255.4z"/>
				<path class="st2" d="M87.7,336.8c-16.1-41.5-36.3-84.6-49.3-81.8L113.4,414l1.4-0.2l1,0.8l0.9,0L80,226.6
					C65.6,229,75.7,286.1,87.7,336.8z"/>
				<path class="st2" d="M119.8,241.1c-12.4-0.3-14.1,37.5-12.4,78c-5.3-47.1-13.9-93.7-26.9-92.5L117,414.6l1.4,0l1.6-173.5
					C120,241.2,119.9,241.1,119.8,241.1z"/>
				<path class="st2" d="M120.4,241.2l-1.6,173.4l3.4,0.1C122.2,414.7,146,244.8,120.4,241.2z"/>
				<path class="st3" d="M80.1,226.6C80.1,226.6,80.1,226.6,80.1,226.6l36.5,188l0.4,0L80.4,226.6C80.3,226.6,80.2,226.6,80.1,226.6
					z"/>
				<path class="st3" d="M38.1,255.1l74.9,159l0.4-0.1L38.4,254.9C38.3,255,38.2,255,38.1,255.1z"/>
				<path class="st3" d="M120,241.2l-1.6,173.5l0.4,0l1.6-173.4C120.3,241.2,120.2,241.2,120,241.2z"/>
			</g>
			<g>
				<polygon class="st4" points="503.3,325.9 503.4,326.3 503.5,326.3 503.6,325.9 				"/>
				<polygon class="st5" points="472.7,442.7 490,467 511.5,439.4 493.7,413 				"/>
				<path class="st5" d="M462.6,429.1l20.5-1.8l22-31.1c-1.5,1.8-3,3.6-4.6,5.5c2.9-3.5,5.5-7.2,7.9-10.8l-33.1,6.5L462.6,429.1z"/>
				<path class="st5" d="M551,388.5l-13.1-22c-7.1,4.2-15.1,10.8-24.2,20.2l16.4,28.6L551,388.5z"/>
				<path class="st5" d="M511.7,439l18.2-23.4L513.4,387c-1.9,2-3.9,4.2-5.9,6.4l-13.6,19.3L511.7,439z"/>
				<path class="st5" d="M580.2,381.7c-1.1-6.3-4.2-13.2-9.7-17.5l-11.3,14.5L580.2,381.7z"/>
				<path class="st5" d="M580.2,382.1l-21.3-3.1l-18.4,23.7l34.6,6.7c3.8-9.1,5.5-17.1,5.5-23C580.6,385,580.4,383.6,580.2,382.1z"
					/>
				<path class="st5" d="M570.1,364c-6.9-5.1-17.3-6.3-31.9,2.4l13.1,21.9L570.1,364z"/>
				<path class="st5" d="M510.3,308.2c-6.2-1.8-14.1-1-23.8,3.3c-4.1,1.8-7.9,4.5-11.4,7.9l21.1,24L510.3,308.2z"/>
				<path class="st5" d="M500.8,453.7l35.1,6.2c9.1-7.4,16.6-15.2,22.6-22.8l-39-7.4L500.8,453.7z"/>
				<path class="st5" d="M468,414.5l-24.1-25.1c-3.6,15.8-6.2,31.6-8,45.5l18.7,13.5L468,414.5z"/>
				<path class="st5" d="M435.8,435.3c-3.1,23.7-3.9,41.2-3.9,41.2h11.4l11-27.8L435.8,435.3z"/>
				<polygon class="st5" points="462.5,429.5 443.8,476.5 448.4,476.5 482.8,427.7 				"/>
				<path class="st5" d="M524.5,323.5c-2.4-7.6-7-13.1-13.9-15.2l-7,17.6L524.5,323.5z"/>
				<path class="st5" d="M496.1,343.8l-21.2-24.1c-7.4,7.4-13.6,18-18.8,30.3l26,29.2L496.1,343.8z"/>
				<path class="st5" d="M481.9,379.6l-26-29.2c-4.9,11.8-8.8,25.2-11.9,38.6l24.2,25.1L481.9,379.6z"/>
				<path class="st5" d="M475.4,396.9l33.3-6.5c7.6-11.8,12.8-24,15.5-35.4l-34.3,5.6L475.4,396.9z"/>
				<polygon class="st5" points="472.5,443 448.8,476.5 482.5,476.5 489.7,467.3 				"/>
				<path class="st5" d="M483,476.5h28.5c9-5.1,17-10.7,24-16.4l-35-6.1L483,476.5z"/>
				<path class="st5" d="M490,360.3l34.3-5.6c2.7-11.7,2.9-22.5,0.4-30.8l-21.2,2.4L490,360.3z"/>
				<path class="st5" d="M519.8,429.2l39,7.4c7.4-9.3,12.6-18.5,16.2-26.9l-34.7-6.8L519.8,429.2z"/>
				<path class="st6" d="M558.9,379l21.3,3.1c0-0.1,0-0.3-0.1-0.4l-21-3l11.3-14.5c-0.1-0.1-0.2-0.1-0.3-0.2l-18.9,24.3l-13.1-21.9
					c-0.1,0.1-0.2,0.1-0.3,0.2l13.1,22l-20.9,26.8l-16.4-28.6c-0.1,0.1-0.2,0.2-0.3,0.3l16.5,28.6L511.7,439l-17.8-26.3l13.6-19.3
					c-0.8,0.9-1.6,1.8-2.4,2.8l-22,31.1l-20.5,1.8l12.6-31.8l33.1-6.5l0.6-0.1l0.3-0.4l-0.6,0.1l-33.3,6.5l14.4-36.2l34.3-5.6
					c0-0.1,0.1-0.3,0.1-0.4l-34.3,5.6l13.5-34l-0.1,0l0-0.4l0.3,0l7-17.6c-0.1,0-0.2-0.1-0.4-0.1l-14,35.2l-21.1-24
					c-0.1,0.1-0.2,0.2-0.3,0.3l21.2,24.1l-14,35.3l-26-29.2c-0.1,0.1-0.1,0.3-0.2,0.4l26,29.2l-13.7,34.5L444,389
					c0,0.1-0.1,0.3-0.1,0.4l24.1,25.1l-13.5,33.9l-18.7-13.5c0,0.1,0,0.3-0.1,0.4l18.6,13.4l-11,27.8h0.4l18.7-47l20.4-1.8
					l-34.5,48.8h0.5l23.7-33.5l17.2,24.3l-7.2,9.2h0.5l17.5-22.5l35,6.1c0.1-0.1,0.3-0.2,0.4-0.3l-35.1-6.2l18.8-24.1l39,7.4
					c0.1-0.1,0.2-0.2,0.3-0.3l-39-7.4l20.4-26.2l34.7,6.8c0.1-0.1,0.1-0.2,0.1-0.4l-34.6-6.7L558.9,379z M490,467l-17.2-24.3
					l20.9-29.6l17.8,26.3L490,467z"/>
				<path class="st3" d="M503.5,326.3l21.2-2.4c0-0.1-0.1-0.2-0.1-0.4l-20.9,2.4L503.5,326.3z"/>
			</g>
			<g>
				<polygon class="st4" points="147.4,470 147.5,469.9 168,448.1 147.4,470 				"/>
				<path class="st5" d="M66.2,441.1H14.6c6.1,15.2,14.8,28.7,20.5,35.4h53.6L66.2,441.1z"/>
				<path class="st5" d="M41.2,401.8l-31.9-2.2C5.9,412,9,427,14.5,440.7H66L41.2,401.8z"/>
				<path class="st5" d="M150.4,476.5h23.3c-0.6-3.5-2.5-14.5-5.8-28.4l-20.5,21.7L150.4,476.5z"/>
				<path class="st5" d="M88.6,336.2c-15.5,2.4-21.3,11.5-21.8,23.1l33,2.4L88.6,336.2z"/>
				<polygon class="st5" points="146.9,469.5 138.1,449.3 107,449.3 123.3,476.5 150,476.5 146.9,469.5 				"/>
				<polygon class="st5" points="147.4,470 147.4,470 147.4,470 				"/>
				<path class="st5" d="M147.3,469.5l20.5-21.8c-3.7-15.8-9.4-35.9-17.2-54.7l-23.4,30.8L147.3,469.5z"/>
				<polygon class="st5" points="78.4,459.6 89.2,476.5 122.8,476.5 95.4,430.6 				"/>
				<path class="st5" d="M127.1,423.3l23.4-30.8c-6.1-14.7-13.5-28.6-22.4-38.9l-18.3,30L127.1,423.3z"/>
				<path class="st5" d="M99.9,362.2l-33.1-2.5c-0.4,11.6,4.4,25.6,9.9,37.9l39.3,1.3L99.9,362.2z"/>
				<path class="st5" d="M127.8,353.3c-9.8-11.4-21.5-18.5-35-17.5c-1.3,0.1-2.6,0.2-3.8,0.4l20.6,47L127.8,353.3z"/>
				<path class="st5" d="M78.2,459.2l16.9-29l-17-28.4c-4.5-6-9.8-12.1-15.9-16.8l-9.3,34.5L78.2,459.2z"/>
				<path class="st5" d="M137.9,448.9l-21.7-49.6L76.9,398c0.8,1.8,1.7,3.5,2.5,5.2l27.3,45.7H137.9z"/>
				<path class="st5" d="M61.9,384.7c-10-7.6-21.8-11.5-34.6-5.6L52.6,419L61.9,384.7z"/>
				<path class="st5" d="M26.9,379.3c-0.6,0.3-1.3,0.6-2,1c-8.5,4.6-13.3,11.3-15.5,19l31.6,2.1L26.9,379.3z"/>
				<polygon class="st7" points="150.4,476.5 147.5,469.9 147.4,470 150.4,476.5 				"/>
				<polygon class="st7" points="150.4,476.5 150.5,476.9 150.5,476.9 150.4,476.5 				"/>
				<path class="st6" d="M88.7,476.5h0.5l-10.7-16.9l16.9-29l27.5,45.9h0.5L107,449.3h31.1l9.4,20.7l20.5-21.8l-0.1-0.5l-20.5,21.8
					l-20-45.8l23.4-30.8c-0.1-0.1-0.1-0.3-0.2-0.4l-23.4,30.8l-17.4-39.7l18.3-30c-0.1-0.1-0.2-0.2-0.3-0.3l-18.3,29.9l-20.6-47
					c-0.1,0-0.3,0-0.4,0.1l11.2,25.5l-33-2.4c0,0.1,0,0.3,0,0.4l33.1,2.5l16.1,36.7l-39.3-1.3c0.1,0.1,0.1,0.3,0.2,0.4l39.3,1.3
					l21.7,49.6h-31.1l-27.3-45.7c0.2,0.4,0.4,0.8,0.6,1.3c-0.6-0.9-1.3-1.8-1.9-2.6l17,28.4l-16.9,29l-25.3-39.8l9.3-34.5
					c-0.1-0.1-0.2-0.2-0.3-0.3L52.6,419l-25.4-39.9c-0.1,0.1-0.2,0.1-0.4,0.2L41,401.4l-31.6-2.1c0,0.1-0.1,0.3-0.1,0.4l31.9,2.2
					L66,440.7H14.5c0.1,0.1,0.1,0.3,0.2,0.4h51.6L88.7,476.5z"/>
				<polygon class="st7" points="150.4,476.5 150.4,476.5 147.5,469.9 				"/>
				<rect x="150.5" y="476.5" class="st7" width="0" height="0.4"/>
				<polygon class="st7" points="150,476.5 150.1,476.9 150.5,476.9 150.4,476.5 				"/>
				<polygon class="st7" points="147.4,470 147.4,470 147.4,470 138.1,449.3 146.9,469.5 146.9,469.5 150,476.5 150.4,476.5 				"/>
			</g>
			<path class="st8" d="M305.4,331.2"/>
			<g>
				<rect x="266.1" y="414.7" class="st9" width="78.7" height="61.3"/>
				<path class="st10" d="M486.1,432.1H124.7c-2.5,0-4.5-2-4.5-4.5v-226c0-2.5,2-4.5,4.5-4.5h361.4c2.5,0,4.5,2,4.5,4.5v226
					C490.6,430.1,488.6,432.1,486.1,432.1z"/>
				<rect x="129.7" y="204.9" class="st2" width="348.7" height="218.1"/>
				<path class="st10" d="M257.4,476.5h95.8v-3.4c0-2.7-2.2-4.8-4.8-4.8h-86.1c-2.7,0-4.8,2.2-4.8,4.8V476.5z"/>
			</g>
			<g>
				<g>
					<path class="st11" d="M262.3,283.9l8.3-12.4l-18.5-18.9l-12.2,8.6c-4.8-2.8-10-5.1-15.5-6.5l-2.7-14.8h-26.1l-2.7,14.9
						c-5.5,1.5-10.7,3.8-15.5,6.6l-12.1-8.5l-18.5,18.9l8.4,12.5c-2.8,4.9-4.9,10.2-6.4,15.9l-14.4,2.8v26.7l14.6,2.8
						c1.5,5.6,3.7,10.9,6.5,15.8l-8.3,12.4l18.5,18.9l12.2-8.6c4.8,2.8,10,5.1,15.5,6.5l2.7,14.8h26.1l2.7-14.9
						c5.5-1.5,10.7-3.8,15.5-6.6l12.1,8.5l18.5-18.9l-8.4-12.5c2.8-4.9,4.9-10.2,6.4-15.9l14.4-2.8v-26.7l-14.6-2.8
						C267.3,294.1,265.1,288.8,262.3,283.9z M208.9,348.1c-17.2,0-31.2-14.3-31.2-31.9c0-17.6,14-31.9,31.2-31.9
						c17.2,0,31.2,14.3,31.2,31.9C240,333.8,226.1,348.1,208.9,348.1z"/>
					<path class="st11" d="M473,327.4v-22.5l-12.2-2.3c-1.2-4.7-3.1-9.2-5.5-13.3l7-10.4L446.7,263l-10.3,7.2c-4-2.4-8.4-4.3-13-5.5
						l-2.3-12.4h-21.9l-2.3,12.5c-4.6,1.3-9,3.2-13,5.6l-10.2-7.1l-15.5,15.9l7,10.5c-2.3,4.1-4.2,8.6-5.3,13.3l-12.1,2.3v22.5
						l12.2,2.3c1.2,4.7,3.1,9.2,5.5,13.3l-7,10.4l15.5,15.9l10.3-7.2c4,2.4,8.4,4.3,13,5.5l2.3,12.4h21.9l2.3-12.5
						c4.6-1.3,9-3.2,13-5.6l10.2,7.1l15.5-15.9l-7-10.5c2.3-4.1,4.2-8.6,5.3-13.3L473,327.4z M410.4,343.2
						c-14.5,0-26.2-12-26.2-26.8c0-14.8,11.7-26.8,26.2-26.8c14.5,0,26.2,12,26.2,26.8C436.6,331.2,424.9,343.2,410.4,343.2z"/>
					<path class="st11" d="M345.4,295.8l12.4-12.7l-5.6-8.4c1.9-3.3,3.3-6.9,4.3-10.7l9.7-1.8v-17.9l-9.8-1.9
						c-1-3.8-2.5-7.3-4.4-10.6l5.6-8.3l-12.4-12.7l-8.2,5.8c-3.2-1.9-6.7-3.4-10.4-4.4l-1.8-9.9h-17.5l-1.8,10
						c-3.7,1-7.2,2.5-10.4,4.5l-8.1-5.7l-12.4,12.7l5.6,8.4c-1.9,3.3-3.3,6.9-4.3,10.7l-9.7,1.8v17.9l9.8,1.9
						c1,3.8,2.5,7.3,4.4,10.6l-5.6,8.3l12.4,12.7l8.2-5.8c3.2,1.9,6.7,3.4,10.4,4.4l1.8,9.9h17.5l1.8-10c3.7-1,7.2-2.5,10.4-4.5
						L345.4,295.8z M316.1,274.8c-11.6,0-20.9-9.6-20.9-21.4s9.4-21.4,20.9-21.4c11.6,0,20.9,9.6,20.9,21.4S327.7,274.8,316.1,274.8
						z"/>
				</g>
				<g>
					<g>
						<path class="st2" d="M208.6,360.1c-23.5,0-42.7-19.6-42.7-43.7s19.2-43.7,42.7-43.7s42.7,19.6,42.7,43.7
							S232.1,360.1,208.6,360.1z M208.6,273.9c-22.9,0-41.5,19.1-41.5,42.5c0,23.4,18.6,42.5,41.5,42.5c22.9,0,41.5-19.1,41.5-42.5
							C250.1,293,231.5,273.9,208.6,273.9z"/>
					</g>
					<ellipse class="st12" cx="208.6" cy="316.4" rx="56" ry="57.3"/>
				</g>
				<g>
					<g>
						<path class="st2" d="M410.2,353.3c-19.8,0-35.9-16.5-35.9-36.7c0-20.2,16.1-36.7,35.9-36.7c19.8,0,35.9,16.5,35.9,36.7
							C446.1,336.8,430,353.3,410.2,353.3z M410.2,280.9c-19.2,0-34.9,16-34.9,35.7c0,19.7,15.7,35.7,34.9,35.7s34.9-16,34.9-35.7
							C445.1,296.9,429.4,280.9,410.2,280.9z"/>
					</g>
					<ellipse class="st13" cx="410.2" cy="316.6" rx="47" ry="48.2"/>
				</g>
				<g>
					<path class="st2" d="M316,282.9c-15.8,0-28.6-13.2-28.6-29.3c0-16.2,12.9-29.3,28.6-29.3c15.8,0,28.6,13.2,28.6,29.3
						C344.6,269.7,331.8,282.9,316,282.9z M316,225.1c-15.4,0-27.9,12.8-27.9,28.5c0,15.7,12.5,28.5,27.9,28.5
						c15.4,0,27.9-12.8,27.9-28.5C343.8,237.9,331.3,225.1,316,225.1z"/>
				</g>
				<ellipse class="st14" cx="316" cy="253.6" rx="37.6" ry="38.4"/>
			</g>
			<g>
				<ellipse class="st15" cx="307.8" cy="372.4" rx="28.3" ry="29"/>
				<ellipse class="st16" cx="307.8" cy="372.4" rx="23.3" ry="23.8"/>
				<text transform="matrix(0.9769 0 0 1 296.5875 384.8758)" class="st15 st17 st18">$</text>
			</g>
			<g>
				<g>
					<g>
						<polygon class="st2" points="257.3,179.3 222.4,170 235.3,119.4 270.2,128.7 						"/>
						<g>
							<polygon class="st11" points="264.9,134.3 237.2,126.9 237.6,125.4 265.3,132.8 							"/>
							<polygon class="st11" points="263.7,139.2 235.9,131.8 236.3,130.3 264.1,137.7 							"/>
							<polygon class="st11" points="262.4,144 234.7,136.6 235.1,135.1 262.8,142.5 							"/>
							<polygon class="st11" points="261.2,148.9 233.5,141.5 233.8,140 261.6,147.4 							"/>
							<polygon class="st11" points="260,153.8 232.2,146.4 232.6,144.9 260.3,152.3 							"/>
							<polygon class="st11" points="258.7,158.7 231,151.3 231.4,149.8 259.1,157.2 							"/>
							<polygon class="st11" points="257.5,163.6 229.7,156.2 230.1,154.6 257.9,162 							"/>
							<polygon class="st11" points="256.2,168.4 228.5,161 228.9,159.5 256.6,166.9 							"/>
							<polygon class="st11" points="255,173.3 227.3,165.9 227.6,164.4 255.4,171.8 							"/>
						</g>
					</g>
					<g>
						<polygon class="st3" points="368.6,157.5 334.2,168.4 319.1,118.5 353.5,107.6 						"/>
						<g>
							<polygon class="st2" points="351.9,115.1 324.5,123.8 324.1,122.3 351.5,113.7 							"/>
							<polygon class="st2" points="353.4,120 326,128.6 325.5,127.2 352.9,118.5 							"/>
							<polygon class="st2" points="354.8,124.8 327.4,133.5 327,132 354.4,123.3 							"/>
							<polygon class="st2" points="356.3,129.6 328.9,138.3 328.5,136.8 355.8,128.1 							"/>
							<polygon class="st2" points="357.7,134.4 330.4,143.1 329.9,141.6 357.3,132.9 							"/>
							<polygon class="st2" points="359.2,139.2 331.8,147.9 331.4,146.4 358.7,137.7 							"/>
							<polygon class="st2" points="360.7,144 333.3,152.7 332.8,151.2 360.2,142.5 							"/>
							<polygon class="st2" points="362.1,148.8 334.7,157.5 334.3,156 361.7,147.4 							"/>
							<polygon class="st2" points="363.6,153.7 336.2,162.3 335.7,160.9 363.1,152.2 							"/>
						</g>
					</g>
					<g>
						<g>
							<polygon class="st19" points="249.1,138.3 292.2,125.1 300.9,154.8 257.8,167.9 							"/>
						</g>
						<g>
							<polyline class="st19" points="299,154.2 274.2,143.7 259,166.4 							"/>
							<path class="st20" d="M274.1,143.5c0.1,0,0.1,0,0.2,0l24.9,10.4c0.1,0.1,0.2,0.2,0.1,0.4c-0.1,0.1-0.2,0.2-0.4,0.2
								l-24.7-10.4l-15.1,22.5c-0.1,0.1-0.3,0.2-0.4,0.1c-0.1-0.1-0.2-0.3-0.1-0.4l15.2-22.7C274,143.5,274,143.5,274.1,143.5z"/>
						</g>
						<g>
							<polyline class="st19" points="251,138.9 275.8,149.3 291,126.7 							"/>
							<path class="st20" d="M250.9,138.6c0.1,0,0.1,0,0.2,0l24.7,10.4l15.1-22.5c0.1-0.1,0.3-0.2,0.4-0.1c0.1,0.1,0.2,0.3,0.1,0.4
								L276,149.5c-0.1,0.1-0.2,0.2-0.3,0.1l-24.9-10.4c-0.1-0.1-0.2-0.2-0.1-0.4C250.7,138.7,250.8,138.7,250.9,138.6z"/>
						</g>
					</g>
					<path class="st21" d="M313.2,139.2c-5.3-17.5-36-8.8-19.2,13.9c13.6,18.5,29.6,20.4,29.6,20.4s12.1-10.8,13.1-34
						C338,111.1,307.9,121.7,313.2,139.2z"/>
					<g>
						<g>
							<polygon class="st19" points="339.9,145.3 354.9,116.8 399.9,141.6 384.8,170.2 							"/>
							<path class="st2" d="M398.4,142.1l-14,26.6l-43.1-23.8l14-26.6L398.4,142.1 M401.3,141.2l-1.8-1l-43.1-23.8l-1.8-1l-1,1.9
								l-14,26.6l-1,1.9l1.8,1l43.1,23.8l1.8,1l1-1.9l14-26.6L401.3,141.2L401.3,141.2z"/>
						</g>
						<polygon class="st10" points="341.3,144.9 366,137.4 371.1,155.1 379.5,152.5 384.3,168.9 						"/>
						<path class="st22" d="M376.9,138.9c-1.1,2-0.3,4.6,1.7,5.7c2,1.1,4.5,0.3,5.6-1.7c1.1-2,0.3-4.6-1.7-5.7
							C380.4,136.1,377.9,136.8,376.9,138.9z"/>
					</g>
				</g>
				<path class="st10" d="M405.8,156.1l-195.9,0.2l81.2,104.5v74.5c11,0.1,21.9-0.1,32.9,0v-74.5L405.8,156.1z"/>
			</g>
			<g>
				<path class="st10" d="M440.6,72.7c0,0,4.8-1,4.8,5.2c0,6.3-3.7,11.2-7.4,9.8C434.3,86.3,440.6,72.7,440.6,72.7z"/>
				<path class="st23" d="M410,102.3c0,0-3.8-0.8-4.2-0.1c-0.3,0.6,2.1,0.8,2.1,0.8s-2.2,0.6-3.4,0.7c-1.1,0.1-1,1.7,1.2,2.1
					c2.2,0.4,4.2-1.3,4.2-1.3L410,102.3z"/>
				<path class="st23" d="M431.1,96.9l-5.1,6.3l-16.6-1l0,2.3c0,0,9.4,3.8,16.5,3.9c3.8,0,7.6-2.6,10.4-5.1c2.2-1.9,1.9-5.7-0.5-7.2
					l0,0C434.3,95,432.3,95.4,431.1,96.9z"/>
				<polygon class="st23" points="449.1,128.9 455.3,194.1 451.2,194.1 438.5,137.7 430.8,194.1 426.9,194.1 427.9,128.9 				"/>
				<g>
					<path class="st23" d="M442.6,81c0,0,1.5-0.2,1.5,1.5c0,1.7-2,1.8-2,1.8L442.6,81z"/>
				</g>
				<path class="st24" d="M438,94.7L438,94.7c1.6,0,2.9-1.3,2.9-3v-5H435v5C435,93.4,436.4,94.7,438,94.7z"/>
				<path class="st23" d="M438,88.9L438,88.9c2.6,0,4.7-2.2,4.7-4.9v-3.8c0-2.7-2.1-4.9-4.7-4.9l0,0c-2.6,0-4.7,2.2-4.7,4.9v3.8
					C433.2,86.7,435.4,88.9,438,88.9z"/>
				<path class="st21" d="M436.8,85.4c0,0,0.6-0.5,1.2,0.1c0.5-0.6,1.1-0.1,1.1-0.1s-0.3,0.9-1.1,0.9
					C437,86.3,436.8,85.4,436.8,85.4z"/>
				<g>
					<ellipse class="st10" cx="440" cy="82.3" rx="0.4" ry="0.6"/>
					<ellipse class="st10" cx="436" cy="82.3" rx="0.4" ry="0.6"/>
				</g>
				<path class="st25" d="M439.6,85.1c0,0-0.4,0.5-1.6,0.5s-1.7-0.5-1.7-0.5"/>
				<path class="st24" d="M438.1,84.6v-2.3C438.1,82.3,436.3,84.6,438.1,84.6z"/>
				<path class="st21" d="M447.6,118.8c-1-3.1,0.3-6.5,0.6-9.6c0.4-3.4,0.4-6.9-0.2-10.3c-1.4-7.4-7.1-8.2-7.1-8.2S438.4,92,435,91
					c-5.2,4.1-8.1,9.7-5.2,23.2c0.6,2.8-0.7,5.8-1.4,8.5c-0.8,2.8-1.4,5.7-2,8.6c-1.3,6.6-2.1,13.4-2.8,20.1c0,0,15.8,4.1,31.7-0.3
					c0.4-0.1-0.3-7.6-0.4-8.3c-0.3-2.9-0.7-5.8-1.4-8.7c-0.6-2.8-1.5-5.7-2.6-8.4c-0.8-2-1.9-3.8-2.9-5.7
					C447.9,119.6,447.7,119.2,447.6,118.8z"/>
				<g>
					<path class="st25" d="M440.5,81.2c0,0-0.4-0.5-1.1-0.3"/>
					<path class="st25" d="M435.4,81.2c0,0,0.4-0.5,1.1-0.3"/>
				</g>
				<g>
					<g>
						<path class="st2" d="M400.4,74c-13,0-23.5,10.8-23.5,24s10.5,24,23.5,24c13,0,23.5-10.8,23.5-24S413.3,74,400.4,74z
							 M400.4,118c-10.8,0-19.6-9-19.6-20s8.8-20,19.6-20c10.8,0,19.6,9,19.6,20S411.2,118,400.4,118z"/>
						<path class="st21" d="M400.4,78c-10.8,0-19.6,9-19.6,20s8.8,20,19.6,20c10.8,0,19.6-9,19.6-20S411.2,78,400.4,78z M400.4,114
							c-8.6,0-15.6-7.2-15.6-16c0-8.8,7-16,15.6-16c8.6,0,15.6,7.2,15.6,16C416,106.8,409,114,400.4,114z"/>
						<path class="st2" d="M400.4,82c-8.6,0-15.6,7.2-15.6,16c0,8.8,7,16,15.6,16c8.6,0,15.6-7.2,15.6-16C416,89.1,409,82,400.4,82z
							 M400.4,110c-6.5,0-11.7-5.4-11.7-12c0-6.6,5.3-12,11.7-12c6.5,0,11.7,5.4,11.7,12C412.1,104.6,406.8,110,400.4,110z"/>
						<path class="st21" d="M400.4,86c-6.5,0-11.7,5.4-11.7,12c0,6.6,5.3,12,11.7,12c6.5,0,11.7-5.4,11.7-12
							C412.1,91.4,406.8,86,400.4,86z M400.4,106c-4.3,0-7.8-3.6-7.8-8s3.5-8,7.8-8c4.3,0,7.8,3.6,7.8,8S404.7,106,400.4,106z"/>
						<path class="st2" d="M400.4,90c-4.3,0-7.8,3.6-7.8,8s3.5,8,7.8,8c4.3,0,7.8-3.6,7.8-8S404.7,90,400.4,90z M400.4,102
							c-2.2,0-3.9-1.8-3.9-4c0-2.2,1.8-4,3.9-4s3.9,1.8,3.9,4C404.3,100.2,402.5,102,400.4,102z"/>
						<ellipse class="st21" cx="400.4" cy="98" rx="3.9" ry="4"/>
					</g>
					<polygon class="st10" points="419.2,78.7 419.2,74.3 415.4,78.3 414.3,82.7 399.9,97.5 400.9,98.5 415.3,83.7 419.7,82.6 
						423.5,78.7 					"/>
				</g>
				<g>
					<ellipse class="st24" cx="441.1" cy="84.2" rx="1.4" ry="1.4"/>
					<ellipse class="st24" cx="434.8" cy="84.2" rx="1.4" ry="1.4"/>
				</g>
				<path class="st23" d="M419.8,110.8c0,0-4.2,1-4.3,1.8c-0.1,0.6,2.5-0.2,2.5-0.2s-2,1.5-3.1,2.1c-1.1,0.6-0.3,2,2,1.4
					c2.3-0.6,3.8-3.1,3.8-3.1L419.8,110.8z"/>
				<path class="st23" d="M439,96.4l-2.7,8l-17.1,6.5l0.9,2.1c0,0,11-0.7,18.2-3.8c3.8-1.7,6.7-5.8,8.5-9.3c1.4-2.7-0.3-6.1-3.3-6.4
					l0,0C441.5,93.3,439.6,94.5,439,96.4z"/>
				<path class="st10" d="M440.6,72.7c0,0,2.2-2.8,4.9-0.4c2.8,2.4,1.6,6.5-1.2,5.4"/>
				<path class="st10" d="M440.9,72.7l2.6,6.9c0,0,0.2,2.3-1.3,2.7c-0.7-3.2-5-0.5-7.4-4.9c-1.1,3.6-2.1,4.3-2.1,4.3
					S429.8,72.7,440.9,72.7z"/>
				<path class="st10" d="M455.3,187.9l0.7,6.2h0.1c0,0,2.6-0.4,5.3,3c-7.6,0-10,0-10,0l-1.8-9.2H455.3z"/>
				<path class="st10" d="M420.6,197.1c2.6-3.4,5.3-3,5.3-3h0.1l0.7-6.2h5.8l-1.8,9.2l0,0l0,0C430.7,197.1,428.2,197.1,420.6,197.1z
					"/>
			</g>
			<g>
				<path class="st19" d="M409,354.6c-2.3-1.7-6.2-1.5-7.8,0.6c0,0,0,0-0.1,0.1c-1.9,2.5-5.4,3.3-4.5,6.7c1,3.4-3.7,4.6-0.2,8.4
					c3.5,3.9,13.8,4.2,16.1,1.5c2.4-2.7,1.7-8.8-0.8-10.9C409.8,359.3,411.7,356.6,409,354.6z"/>
				<path class="st24" d="M410,373.3c0,0,5.7,0.2,11.9,14.8l7.8-9.7h3.2c0,0-7.5,15.3-11.4,15.3C417.5,393.6,409.6,384.3,410,373.3z
					"/>
				<path class="st10" d="M391.7,473.6c0,0-2.6-0.4-5.2,2.9c7.5,0,10,0,10,0l0.1-2.9H391.7z"/>
				<path class="st10" d="M417.5,473.6c0,0,2.6-0.4,5.2,2.9c-7.5,0-10,0-10,0l-0.1-2.9H417.5z"/>
				<polygon class="st23" points="394.3,409.2 392.4,473.6 396.6,473.6 404.9,417.9 412.6,473.6 416.5,473.6 415.5,409.2 				"/>
				<path class="st10" d="M412.7,395c0.1-0.6,0.2-1.2,0.3-1.8c4-14.6,0.8-21.2-9.8-21.2c-10.7,0-7.9,15.2-6.4,20.8
					c0.2,0.6,0.3,1.4,0.3,2.1c0,1.5-3,10.8-2.8,14.3h21.2C415.5,404.9,413,398.9,412.7,395z"/>
				<g>
					<path class="st21" d="M469.6,352.7c-0.3-2.5-2.5-4.2-5-3.9c2.8-0.3,4.7-3.3,3.6-6.2c-0.8-1.9-2.8-3-4.8-2.7l-15.1,1.9
						c5.6-22.5-6.3-32.2-6.1-17.4c0,0.1,0,0.1,0,0.2c0.1,7.8-3.5,15.1-9.3,20.2c-5.1,4.3-11.8,10.4-15,14.5l2.7,22.4l22.3-2.8
						l9.1-1.1l15.8-2c2-0.2,3.7-1.8,4-3.8c0.4-3.1-2.1-5.5-4.9-5.2c2.4-0.3,4.2-2.6,3.9-5c-0.3-2.5-2.5-4.2-5-3.9
						C468.2,357.4,469.9,355.2,469.6,352.7z"/>
					<polygon class="st10" points="427,382.7 417.3,383.9 413.7,353.7 423.4,352.5 					"/>
				</g>
				<path class="st23" d="M417.3,379c0,0,1.7-4,2.4-4c0.6,0-0.6,2.4-0.6,2.4s1.8-1.8,2.6-2.8c0.8-1,1.9,0,1,2.2
					c-1,2.2-3.6,3.2-3.6,3.2L417.3,379z"/>
				<path class="st24" d="M406.6,375.4h-2.3c-1,0-1.8-0.8-1.8-1.8v-6.1h5.8v6.1C408.4,374.6,407.6,375.4,406.6,375.4z"/>
				<path class="st23" d="M401.7,375c1.6,2.4,6.8,11.8,6.8,11.8l9.1-8.5l3.2,0.5c0,0-9.6,14.3-13.6,14.3c-1.7,0-10.5-6.4-9.9-16.8
					C397.4,373.3,400.1,372.5,401.7,375z"/>
				<g>
					<path class="st23" d="M400.8,361.9c0,0-1.5-0.2-1.5,1.5c0,1.6,2,1.8,2,1.8L400.8,361.9z"/>
					<path class="st23" d="M410.1,361.9c0,0,1.5-0.2,1.5,1.5c0,1.6-2,1.8-2,1.8L410.1,361.9z"/>
				</g>
				<path class="st23" d="M407.3,369.7h-3.7c-1.6,0-2.9-1.3-2.9-2.9v-7.7c0-1.6,1.3-2.9,2.9-2.9h3.7c1.6,0,2.9,1.3,2.9,2.9v7.7
					C410.2,368.4,408.9,369.7,407.3,369.7z"/>
				<path class="st21" d="M404.2,366.3c0,0,0.7-0.4,1.3,0.1c0.6-0.6,1.2-0.1,1.2-0.1s-0.3,0.8-1.2,0.8
					C404.4,367,404.2,366.3,404.2,366.3z"/>
				<g>
					<ellipse class="st10" cx="403.5" cy="363.2" rx="0.4" ry="0.6"/>
					<ellipse class="st10" cx="407.5" cy="363.2" rx="0.4" ry="0.6"/>
				</g>
				<path class="st26" d="M403.8,365.9c0,0,0.4,0.5,1.6,0.5c1.2,0,1.7-0.5,1.7-0.5"/>
				<path class="st24" d="M405.5,365.5v-2.3C405.5,363.2,403.7,365.5,405.5,365.5z"/>
				<g>
					<path class="st26" d="M402.9,362.1c0,0,0.4-0.5,1.1-0.3"/>
					<path class="st26" d="M408,362.1c0,0-0.4-0.5-1.1-0.3"/>
				</g>
				<g>
					<ellipse class="st24" cx="402.4" cy="365" rx="1.4" ry="1.4"/>
					<ellipse class="st24" cx="408.6" cy="365" rx="1.4" ry="1.4"/>
				</g>
				<path class="st19" d="M400.3,360.7c0,0,5.1,1.5,8.3-4.2C402.6,353.4,399.8,358.1,400.3,360.7z"/>
				<path class="st21" d="M394.8,405.1c0,0,9.9,3.1,20.2,0c0,0,2.3,5.5,2.3,19.3c-3.5,3.1-10.2,1.8-11.8,1.2l-0.5-7.7l-0.5,7.7
					c-0.7-0.5-7.4,3.1-12-1.6C392,412.8,394.8,405.1,394.8,405.1z"/>
			</g>
			<g>
				<g>
					<g>
						<g>
							<path class="st24" d="M206.7,103.1c0-15.6-7.6-13.4-15.3-13.4s-7.3,13.4-7.3,13.4l-1.5,26.7h24.9L206.7,103.1z"/>
							<polygon class="st21" points="182.6,129.8 179,194.2 184.7,194.2 195.2,140.2 201.4,194.2 207.1,194.2 207.5,129.8 							
								"/>
						</g>
						<path class="st10" d="M207.5,194.2c0,0,3.3-0.4,6.5,2.9c-9.4,0-12.4,0-12.4,0l-0.2-2.9H207.5z"/>
						<path class="st10" d="M178.6,194.2c0,0-3.3-0.4-6.5,2.9c9.4,0,12.4,0,12.4,0l0.2-2.9H178.6z"/>
						<g>
							<path class="st23" d="M190,78.8c0,0-1.7-0.2-1.7,1.6c0,1.8,2.2,2,2.2,2L190,78.8z"/>
							<path class="st23" d="M200.3,78.8c0,0,1.7-0.2,1.7,1.6c0,1.8-2.2,2-2.2,2L200.3,78.8z"/>
						</g>
						<path class="st24" d="M196.5,93.9h-2.5c-1.1,0-2-0.9-2-2v-6.8h6.4v6.8C198.4,93,197.5,93.9,196.5,93.9z"/>
						<path class="st23" d="M197.2,87.5h-4.1c-1.8,0-3.2-1.4-3.2-3.2v-8.6c0-1.8,1.4-3.2,3.2-3.2h4.1c1.8,0,3.2,1.4,3.2,3.2v8.6
							C200.4,86,199,87.5,197.2,87.5z"/>
						<path class="st23" d="M182.5,60.3c0,0,0.9-4.9,0.1-5.4c-0.6-0.4-0.9,2.7-0.9,2.7s-0.6-2.8-0.8-4.3c-0.1-1.4-1.9-1.2-2.3,1.6
							c-0.4,2.8,1.5,5.4,1.5,5.4L182.5,60.3z"/>
						<g>
							<ellipse class="st10" cx="193" cy="80.1" rx="0.4" ry="0.7"/>
							<ellipse class="st10" cx="197.4" cy="80.1" rx="0.4" ry="0.7"/>
						</g>
						<path class="st27" d="M193.4,83.2c0,0,0.5,0.6,1.8,0.6c1.3,0,1.9-0.6,1.9-0.6"/>
						<path class="st24" d="M195.2,82.7v-2.6C195.2,80.1,193.2,82.7,195.2,82.7z"/>
						<g>
							<path class="st27" d="M192.3,79c0,0,0.4-0.5,1.2-0.4"/>
							<path class="st27" d="M198,79c0,0-0.4-0.5-1.2-0.4"/>
						</g>
						<g>
							<ellipse class="st24" cx="191.8" cy="82.2" rx="1.5" ry="1.6"/>
							<ellipse class="st24" cx="198.7" cy="82.2" rx="1.5" ry="1.6"/>
						</g>
						<path class="st23" d="M191.4,89.7l-8.8-8.3l0-21.9h-2.5c0,0-4.2,12-4.2,21c0,9,10.4,18.4,10.4,18.4L191.4,89.7z"/>
						<path class="st23" d="M207.8,60.3c0,0-0.9-4.9-0.1-5.4c0.6-0.4,0.9,2.7,0.9,2.7s0.6-2.8,0.8-4.3c0.1-1.4,1.9-1.2,2.3,1.6
							c0.4,2.8-1.5,5.4-1.5,5.4L207.8,60.3z"/>
						<path class="st23" d="M198.9,89.7l9.4-9.1l-0.5-21h2.5c0,0,4.2,12,4.2,21c0,9-10.4,18.4-10.4,18.4L198.9,89.7z"/>
						<path class="st10" d="M211.2,90.4c-2.8-5.3-6.7-5.9-6.7-5.9l-6.1,5.2c0,0.7-0.1,1.3-0.4,1.8c-1.1,2.4-4.6,2.4-5.7,0
							c-0.2-0.5-0.4-1.1-0.4-1.8l-6.1-5.2c0,0-3.9,0.6-6.7,5.9c2,4.9,4.4,7.9,4.4,7.9l-2,35.1c9.8,2,17.4,2,27.2,0l-2-35.1
							C206.8,98.4,209.2,95.4,211.2,90.4z"/>
					</g>
					<g>
						<path class="st15" d="M196.5,4c-22.2,0-24.9,23.9-15.5,33.4c9.3,9.6,10.5,17,10.5,17h5h5c0,0,1.1-7.5,10.5-17
							C221.4,27.8,218.7,4,196.5,4z"/>
						<path class="st10" d="M191.2,55.3h10.5c1,0,1.8-0.8,1.8-1.9l0,0c0-1-0.8-1.9-1.8-1.9h-10.5c-1,0-1.8,0.8-1.8,1.9l0,0
							C189.4,54.5,190.2,55.3,191.2,55.3z"/>
						<path class="st10" d="M191.2,59.1h10.5c1,0,1.8-0.8,1.8-1.9l0,0c0-1-0.8-1.9-1.8-1.9h-10.5c-1,0-1.8,0.8-1.8,1.9l0,0
							C189.4,58.2,190.2,59.1,191.2,59.1z"/>
						<path class="st10" d="M191.2,62.8h10.5c1,0,1.8-0.8,1.8-1.9l0,0c0-1-0.8-1.9-1.8-1.9h-10.5c-1,0-1.8,0.8-1.8,1.9l0,0
							C189.4,62,190.2,62.8,191.2,62.8z"/>
						<path class="st10" d="M191.2,62.8c0,0,0.6,3.7,5.3,3.7s5.3-3.7,5.3-3.7H191.2z"/>
						<g>
							<g>
								<path class="st10" d="M198.5,51.8c0-0.6-0.1-9.1,1.6-15.9c-2.2,0.4-5,0.4-7.2,0c1.6,6.8,1.6,15.3,1.6,15.9l-0.8,0
									c0-0.1,0.1-9.3-1.6-16.1c-3.9-0.9-6.5-3-7.4-5c-0.4-1-0.4-1.9,0.1-2.5c0.4-0.4,1.3-1,3.3-0.3c2.2,0.7,3.6,3.6,4.6,7.1
									c1.1,0.2,2.4,0.4,3.8,0.4c1.4,0,2.7-0.1,3.8-0.4c0.9-3.5,2.4-6.4,4.6-7.1c2-0.7,2.9-0.1,3.3,0.3c0.5,0.6,0.5,1.5,0.1,2.5
									c-0.9,2-3.4,4.1-7.4,5c-1.7,6.8-1.6,15.9-1.6,16.1L198.5,51.8z M206.6,28.4c-0.4,0-0.9,0.1-1.4,0.3c-1.9,0.6-3.1,3.1-4,6.2
									c3.7-1,5.8-3,6.4-4.5c0.3-0.7,0.3-1.3,0-1.6C207.4,28.5,207,28.4,206.6,28.4z M186.4,28.4c-0.5,0-0.8,0.1-1,0.4
									c-0.3,0.3-0.3,0.9,0,1.6c0.7,1.5,2.8,3.5,6.4,4.5c-0.9-3.1-2.1-5.6-4-6.2C187.3,28.5,186.8,28.4,186.4,28.4z"/>
							</g>
						</g>
					</g>
				</g>
				<path class="st10" d="M195.2,71.5c0,0-6.1,0.2-6.1,5.6c0,1.8,1.2,3,1.2,3s3.7-1.3,4.8-5.5c0.8,2.9,3.6,3.6,3.6,3.6
					s0.6,1.5,1.6,1.5C202.2,77.8,201.1,71.5,195.2,71.5z"/>
			</g>
			<g>
				<path class="st28" d="M196.7,369.1c0,0-13.5,0.3-14.6,16.9c-3-12.9-4-16.9-4-16.9h-3.7c0,0-0.3,27.9,7.2,27.9
					S196.7,369.1,196.7,369.1z"/>
				<path class="st28" d="M204.1,369.3c0,0,10.7-0.7,15.4,21.8c4.8,22.5,4.3,28.3,4.3,28.3h-2.6
					C221.3,419.4,206.6,381.9,204.1,369.3z"/>
				<g>
					<path class="st24" d="M188.1,382.6c0-15.6,8.4-13.3,16.1-13.3c7.6,0,7.3,13.3,7.3,13.3l1.5,26.7h-24.9V382.6z"/>
					<polygon class="st21" points="212.9,409.3 216.5,473.6 210.9,473.6 200.3,419.7 194.1,473.6 188.4,473.6 188.1,409.3 					"/>
				</g>
				<path class="st10" d="M188.1,473.6c0,0-3.3-0.4-6.5,2.9c9.4,0,12.4,0,12.4,0l0.2-2.9H188.1z"/>
				<path class="st10" d="M216.9,473.6c0,0,3.3-0.4,6.5,2.9c-9.4,0-12.4,0-12.4,0l-0.2-2.9H216.9z"/>
				<path class="st10" d="M177.7,357h-2.4v5.1h2.4c1.4,0,2.5-1.1,2.5-2.5l0,0C180.2,358.1,179,357,177.7,357z"/>
				<polygon class="st10" points="174.7,362.1 160.8,365.5 160.8,353.6 174.7,357 				"/>
				<g>
					<path class="st28" d="M205.8,358.3c0,0,1.7-0.2,1.7,1.6c0,1.8-2.2,2-2.2,2L205.8,358.3z"/>
					<path class="st28" d="M195.5,358.3c0,0-1.7-0.2-1.7,1.6c0,1.8,2.2,2,2.2,2L195.5,358.3z"/>
				</g>
				<rect x="174.7" y="357" class="st21" width="1.2" height="5.1"/>
				<rect x="174.7" y="362.1" class="st21" width="1.2" height="5.1"/>
				<path class="st24" d="M200.7,373.4L200.7,373.4c1.8,0,3.2-1.5,3.2-3.3v-5.5h-6.4v5.5C197.5,371.9,198.9,373.4,200.7,373.4z"/>
				<path class="st28" d="M174.4,369.1c0,0-3.3-3.6,0-4.8c3.3-1.1,3.7,4.8,3.7,4.8H174.4z"/>
				<path class="st28" d="M200.7,367L200.7,367c2.9,0,5.2-2.4,5.2-5.4v-4.2c0-3-2.4-5.4-5.2-5.4l0,0c-2.9,0-5.2,2.4-5.2,5.4v4.2
					C195.4,364.6,197.8,367,200.7,367z"/>
				<path class="st21" d="M205.9,361c0,0-1.1-2.6-1.1-6.6c-3.3,2.1-8.4,0-8.4,0s0.2,4.5-1,6.6c-1.8-3.9-1.1-10.4,5.2-10.4
					C207.1,350.6,207.7,357,205.9,361z"/>
				<path class="st28" d="M221.2,418.9c0,0-0.9,4.9-0.1,5.4c0.6,0.4,0.9-2.7,0.9-2.7s0.6,2.8,0.8,4.3c0.1,1.4,1.9,1.2,2.3-1.5
					c0.4-2.8-1.5-5.4-1.5-5.4L221.2,418.9z"/>
				<g>
					<ellipse class="st24" cx="204.1" cy="361.8" rx="1.5" ry="1.6"/>
					<ellipse class="st24" cx="197.2" cy="361.8" rx="1.5" ry="1.6"/>
				</g>
				<g>
					<ellipse class="st10" cx="202.9" cy="359.7" rx="0.4" ry="0.7"/>
					<ellipse class="st10" cx="198.5" cy="359.7" rx="0.4" ry="0.7"/>
				</g>
				<path class="st21" d="M196,359.7c0,0,1.7,3.1,4.8,3.1c3.1,0,4.8-3.1,4.8-3.1h0.9c0,0,1.2,8.2-5.7,8.2c-7,0-5.7-8-5.7-8
					L196,359.7z"/>
				<path class="st29" d="M202.5,362.8c0,0-0.5,0.6-1.8,0.6s-1.9-0.6-1.9-0.6"/>
				<path class="st24" d="M200.7,362.3v-2.6C200.7,359.7,202.7,362.3,200.7,362.3z"/>
				<g>
					<path class="st29" d="M203.5,358.5c0,0-0.4-0.5-1.2-0.4"/>
					<path class="st29" d="M197.9,358.5c0,0,0.4-0.5,1.2-0.4"/>
				</g>
				<path class="st19" d="M197.5,368.2c0,0-12.4,1-15.7,13.9c3,3,6.3,5.4,6.3,5.4l-0.7,25.5c0,0,9.7,1,26.6,0
					c-0.7-10.3-2.3-25.3-2.3-25.3l6.2-6.4c0,0-3.5-13.2-14-13.2c0,0,0,4.3-3.2,4.3C197.5,372.5,197.5,368.2,197.5,368.2z"/>
			</g>
			<polygon class="st3" points="501.7,207.4 501.7,202.1 500.1,207.4 			"/>
			<path class="st3" d="M523.8,280.9c0-0.1,0-0.3,0.1-0.4"/>
		</g>
		<path class="st2" d="M497.3,182.2h45.1c0,0-2.1-8.1-14.5-5.3c-6.3-12.7-20.8-10.7-22.6,1.3C496.3,176.1,497.3,182.2,497.3,182.2z"
			/>
		<path class="st2" d="M335.9,51.5h54c0,0-2.5-9.7-17.3-6.3c-7.6-15.2-24.9-12.7-27,1.5C334.6,44.2,335.9,51.5,335.9,51.5z"/>
		<path class="st2" d="M81.4,122.5h66.1c0,0-4-9.7-15.3-6.9c-6-24.4-29.9-14.2-29.9-5.1C91.1,107.9,81.4,114.9,81.4,122.5z"/>
		<path class="st2" d="M-42.7,314.9H7.9c0,0-1.1-11.5-13.5-14.5c-12.4-3-17.1,7.9-17.1,7.9S-34.5,300.7-42.7,314.9z"/>
	</g>
</g>
<g id="DESIGNED_BY_FREEPIK">
</g>
</svg>
