<?xml version="1.0" encoding="iso-8859-1"?>
<!-- Generator: Adobe Illustrator 19.0.0, SVG Export Plug-In . SVG Version: 6.00 Build 0)  -->
<svg version="1.1" id="Layer_1" xmlns="http://www.w3.org/2000/svg" xmlns:xlink="http://www.w3.org/1999/xlink" x="0px" y="0px"
	 viewBox="0 0 509.287 509.287" style="enable-background:new 0 0 509.287 509.287;" xml:space="preserve">
<circle style="fill:#6EB1E1;" cx="254.644" cy="254.644" r="254.644"/>
<path style="fill:#F0582F;" d="M460.461,453.001H48.826c-17.632,0-29.838-16.276-26.787-35.264l30.517-182.082H457.07
	l30.517,182.082C490.299,436.726,478.093,453.001,460.461,453.001z"/>
<path style="fill:#414753;" d="M425.197,294.315H84.09L65.78,403.836c-2.713,15.258,7.46,28.482,21.701,28.482h334.665
	c14.241,0,24.413-13.224,21.701-28.482L425.197,294.315z"/>
<path style="fill:#646B79;" d="M468.26,182.421l-37.637-39.332l0,0H78.665l0,0l-37.637,39.332v46.453h11.189v7.121h404.514v-7.121
	h11.189v-46.453H468.26z M422.485,193.272H86.803l8.816-21.701H413.33L422.485,193.272z"/>
<rect x="121.388" y="56.286" style="fill:#F1F3F7;" width="266.511" height="136.646"/>
<g>
	<path style="fill:#FFFFFC;" d="M122.744,302.453h-15.258c-2.034,0-4.069,1.695-4.069,4.069v13.563c0,2.034,1.695,4.069,4.069,4.069
		h15.258c2.034,0,4.069-1.695,4.069-4.069v-13.563C126.474,304.148,124.779,302.453,122.744,302.453z"/>
	<path style="fill:#FFFFFC;" d="M150.209,302.453h-15.258c-2.034,0-4.069,1.695-4.069,4.069v13.563c0,2.034,1.695,4.069,4.069,4.069
		h15.258c2.034,0,4.069-1.695,4.069-4.069v-13.563C153.939,304.148,152.244,302.453,150.209,302.453z"/>
	<path style="fill:#FFFFFC;" d="M177.674,302.453h-15.258c-2.034,0-4.069,1.695-4.069,4.069v13.563c0,2.034,1.695,4.069,4.069,4.069
		h15.258c2.034,0,4.069-1.695,4.069-4.069v-13.563C181.404,304.148,179.709,302.453,177.674,302.453z"/>
	<path style="fill:#FFFFFC;" d="M204.8,302.453h-15.258c-2.034,0-4.069,1.695-4.069,4.069v13.563c0,2.034,1.695,4.069,4.069,4.069
		H204.8c2.034,0,4.069-1.695,4.069-4.069v-13.563C208.869,304.148,207.174,302.453,204.8,302.453z"/>
	<path style="fill:#FFFFFC;" d="M232.265,302.453h-15.258c-2.034,0-4.069,1.695-4.069,4.069v13.563c0,2.034,1.695,4.069,4.069,4.069
		h15.258c2.034,0,4.069-1.695,4.069-4.069v-13.563C236.334,304.148,234.638,302.453,232.265,302.453z"/>
	<path style="fill:#FFFFFC;" d="M259.73,302.453h-15.258c-2.034,0-4.069,1.695-4.069,4.069v13.563c0,2.034,1.695,4.069,4.069,4.069
		h15.258c2.034,0,4.069-1.695,4.069-4.069v-13.563C263.799,304.148,262.103,302.453,259.73,302.453z"/>
	<path style="fill:#FFFFFC;" d="M287.195,302.453h-15.258c-2.034,0-4.069,1.695-4.069,4.069v13.563c0,2.034,1.695,4.069,4.069,4.069
		h15.258c2.034,0,4.069-1.695,4.069-4.069v-13.563C291.264,304.148,289.229,302.453,287.195,302.453z"/>
	<path style="fill:#FFFFFC;" d="M314.66,302.453h-15.258c-2.034,0-4.069,1.695-4.069,4.069v13.563c0,2.034,1.695,4.069,4.069,4.069
		h15.258c2.034,0,4.069-1.695,4.069-4.069v-13.563C318.389,304.148,316.694,302.453,314.66,302.453z"/>
	<path style="fill:#FFFFFC;" d="M342.125,302.453h-15.258c-2.034,0-4.069,1.695-4.069,4.069v13.563c0,2.034,1.695,4.069,4.069,4.069
		h15.258c2.034,0,4.069-1.695,4.069-4.069v-13.563C345.854,304.148,344.159,302.453,342.125,302.453z"/>
	<path style="fill:#FFFFFC;" d="M369.589,302.453h-15.258c-2.034,0-4.069,1.695-4.069,4.069v13.563c0,2.034,1.695,4.069,4.069,4.069
		h15.258c2.034,0,4.069-1.695,4.069-4.069v-13.563C373.319,304.148,371.624,302.453,369.589,302.453z"/>
	<path style="fill:#FFFFFC;" d="M397.054,302.453h-15.258c-2.034,0-4.069,1.695-4.069,4.069v13.563c0,2.034,1.695,4.069,4.069,4.069
		h15.258c2.034,0,4.069-1.695,4.069-4.069v-13.563C400.784,304.148,399.089,302.453,397.054,302.453z"/>
	<path style="fill:#FFFFFC;" d="M122.744,364.503h-15.258c-2.034,0-4.069,1.695-4.069,4.069v13.563c0,2.034,1.695,4.069,4.069,4.069
		h15.258c2.034,0,4.069-1.695,4.069-4.069v-13.563C126.474,366.199,124.779,364.503,122.744,364.503z"/>
	<path style="fill:#FFFFFC;" d="M150.209,364.503h-15.258c-2.034,0-4.069,1.695-4.069,4.069v13.563c0,2.034,1.695,4.069,4.069,4.069
		h15.258c2.034,0,4.069-1.695,4.069-4.069v-13.563C153.939,366.199,152.244,364.503,150.209,364.503z"/>
	<path style="fill:#FFFFFC;" d="M177.674,364.503h-15.258c-2.034,0-4.069,1.695-4.069,4.069v13.563c0,2.034,1.695,4.069,4.069,4.069
		h15.258c2.034,0,4.069-1.695,4.069-4.069v-13.563C181.404,366.199,179.709,364.503,177.674,364.503z"/>
	<path style="fill:#FFFFFC;" d="M204.8,364.503h-15.258c-2.034,0-4.069,1.695-4.069,4.069v13.563c0,2.034,1.695,4.069,4.069,4.069
		H204.8c2.034,0,4.069-1.695,4.069-4.069v-13.563C208.869,366.199,207.174,364.503,204.8,364.503z"/>
	<path style="fill:#FFFFFC;" d="M232.265,364.503h-15.258c-2.034,0-4.069,1.695-4.069,4.069v13.563c0,2.034,1.695,4.069,4.069,4.069
		h15.258c2.034,0,4.069-1.695,4.069-4.069v-13.563C236.334,366.199,234.638,364.503,232.265,364.503z"/>
	<path style="fill:#FFFFFC;" d="M259.73,364.503h-15.258c-2.034,0-4.069,1.695-4.069,4.069v13.563c0,2.034,1.695,4.069,4.069,4.069
		h15.258c2.034,0,4.069-1.695,4.069-4.069v-13.563C263.799,366.199,262.103,364.503,259.73,364.503z"/>
	<path style="fill:#FFFFFC;" d="M287.195,364.503h-15.258c-2.034,0-4.069,1.695-4.069,4.069v13.563c0,2.034,1.695,4.069,4.069,4.069
		h15.258c2.034,0,4.069-1.695,4.069-4.069v-13.563C291.264,366.199,289.229,364.503,287.195,364.503z"/>
	<path style="fill:#FFFFFC;" d="M314.66,364.503h-15.258c-2.034,0-4.069,1.695-4.069,4.069v13.563c0,2.034,1.695,4.069,4.069,4.069
		h15.258c2.034,0,4.069-1.695,4.069-4.069v-13.563C318.389,366.199,316.694,364.503,314.66,364.503z"/>
	<path style="fill:#FFFFFC;" d="M342.125,364.503h-15.258c-2.034,0-4.069,1.695-4.069,4.069v13.563c0,2.034,1.695,4.069,4.069,4.069
		h15.258c2.034,0,4.069-1.695,4.069-4.069v-13.563C345.854,366.199,344.159,364.503,342.125,364.503z"/>
	<path style="fill:#FFFFFC;" d="M369.589,364.503h-15.258c-2.034,0-4.069,1.695-4.069,4.069v13.563c0,2.034,1.695,4.069,4.069,4.069
		h15.258c2.034,0,4.069-1.695,4.069-4.069v-13.563C373.319,366.199,371.624,364.503,369.589,364.503z"/>
	<path style="fill:#FFFFFC;" d="M397.054,364.503h-15.258c-2.034,0-4.069,1.695-4.069,4.069v13.563c0,2.034,1.695,4.069,4.069,4.069
		h15.258c2.034,0,4.069-1.695,4.069-4.069v-13.563C400.784,366.199,399.089,364.503,397.054,364.503z"/>
	<path style="fill:#FFFFFC;" d="M108.842,333.309H93.584c-2.034,0-4.069,1.695-4.069,4.069v13.563c0,2.034,1.695,4.069,4.069,4.069
		h15.258c2.034,0,4.069-1.695,4.069-4.069v-13.563C112.911,335.004,111.216,333.309,108.842,333.309z"/>
	<path style="fill:#FFFFFC;" d="M136.307,333.309h-15.258c-2.034,0-4.069,1.695-4.069,4.069v13.563c0,2.034,1.695,4.069,4.069,4.069
		h15.258c2.034,0,4.069-1.695,4.069-4.069v-13.563C140.376,335.004,138.681,333.309,136.307,333.309z"/>
	<path style="fill:#FFFFFC;" d="M163.772,333.309h-15.258c-2.034,0-4.069,1.695-4.069,4.069v13.563c0,2.034,1.695,4.069,4.069,4.069
		h15.258c2.034,0,4.069-1.695,4.069-4.069v-13.563C167.841,335.004,166.146,333.309,163.772,333.309z"/>
	<path style="fill:#FFFFFC;" d="M191.237,333.309h-15.258c-2.034,0-4.069,1.695-4.069,4.069v13.563c0,2.034,1.695,4.069,4.069,4.069
		h15.258c2.034,0,4.069-1.695,4.069-4.069v-13.563C195.306,335.004,193.272,333.309,191.237,333.309z"/>
	<path style="fill:#FFFFFC;" d="M218.702,333.309h-15.258c-2.034,0-4.069,1.695-4.069,4.069v13.563c0,2.034,1.695,4.069,4.069,4.069
		h15.258c2.034,0,4.069-1.695,4.069-4.069v-13.563C222.432,335.004,220.736,333.309,218.702,333.309z"/>
	<path style="fill:#FFFFFC;" d="M246.167,333.309h-15.258c-2.034,0-4.069,1.695-4.069,4.069v13.563c0,2.034,1.695,4.069,4.069,4.069
		h15.258c2.034,0,4.069-1.695,4.069-4.069v-13.563C249.897,335.004,248.201,333.309,246.167,333.309z"/>
	<path style="fill:#FFFFFC;" d="M273.632,333.309h-15.258c-2.034,0-4.069,1.695-4.069,4.069v13.563c0,2.034,1.695,4.069,4.069,4.069
		h15.258c2.034,0,4.069-1.695,4.069-4.069v-13.563C277.362,335.004,275.666,333.309,273.632,333.309z"/>
	<path style="fill:#FFFFFC;" d="M300.758,333.309h-15.258c-2.034,0-4.069,1.695-4.069,4.069v13.563c0,2.034,1.695,4.069,4.069,4.069
		h15.258c2.034,0,4.069-1.695,4.069-4.069v-13.563C304.827,335.004,303.131,333.309,300.758,333.309z"/>
	<path style="fill:#FFFFFC;" d="M328.223,333.309h-15.258c-2.034,0-4.069,1.695-4.069,4.069v13.563c0,2.034,1.695,4.069,4.069,4.069
		h15.258c2.034,0,4.069-1.695,4.069-4.069v-13.563C332.291,335.004,330.596,333.309,328.223,333.309z"/>
	<path style="fill:#FFFFFC;" d="M355.687,333.309h-15.258c-2.034,0-4.069,1.695-4.069,4.069v13.563c0,2.034,1.695,4.069,4.069,4.069
		h15.258c2.034,0,4.069-1.695,4.069-4.069v-13.563C359.756,335.004,358.061,333.309,355.687,333.309z"/>
	<path style="fill:#FFFFFC;" d="M383.152,333.309h-15.258c-2.034,0-4.069,1.695-4.069,4.069v13.563c0,2.034,1.695,4.069,4.069,4.069
		h15.258c2.034,0,4.069-1.695,4.069-4.069v-13.563C387.221,335.004,385.187,333.309,383.152,333.309z"/>
	<path style="fill:#FFFFFC;" d="M410.617,333.309h-15.258c-2.034,0-4.069,1.695-4.069,4.069v13.563c0,2.034,1.695,4.069,4.069,4.069
		h15.258c2.034,0,4.069-1.695,4.069-4.069v-13.563C414.347,335.004,412.652,333.309,410.617,333.309z"/>
	<path style="fill:#FFFFFC;" d="M343.481,397.732H161.06c-1.356,0-2.374,1.356-2.374,2.713v14.241c0,1.695,1.017,2.713,2.374,2.713
		h182.76c1.356,0,2.373-1.356,2.373-2.713v-14.241C345.854,399.089,344.837,397.732,343.481,397.732z"/>
</g>
<g>
	<rect x="157.669" y="94.94" style="fill:#BDBDBE;" width="111.894" height="12.546"/>
	<rect x="157.669" y="132.917" style="fill:#BDBDBE;" width="194.289" height="12.546"/>
	<rect x="157.669" y="171.232" style="fill:#BDBDBE;" width="194.289" height="12.546"/>
</g>
<g>
</g>
<g>
</g>
<g>
</g>
<g>
</g>
<g>
</g>
<g>
</g>
<g>
</g>
<g>
</g>
<g>
</g>
<g>
</g>
<g>
</g>
<g>
</g>
<g>
</g>
<g>
</g>
<g>
</g>
</svg>
