<?xml version="1.0" encoding="utf-8"?>
<!-- Generator: Adobe Illustrator 19.0.0, SVG Export Plug-In . SVG Version: 6.00 Build 0)  -->
<svg version="1.1" id="OBJECTS" xmlns="http://www.w3.org/2000/svg" xmlns:xlink="http://www.w3.org/1999/xlink" x="0px" y="0px"
	 viewBox="0 0 559 500" style="enable-background:new 0 0 559 500;" xml:space="preserve">
<style type="text/css">
	.st0{opacity:0.8;fill:#E5DCFF;}
	.st1{fill:#FFFFFF;}
	.st2{fill:#FEFEFE;}
	.st3{fill:#FDFDFD;}
	.st4{fill:#FCFCFC;}
	.st5{fill:#FBFBFB;}
	.st6{fill:#FAFAFA;}
	.st7{fill:#F9F9FA;}
	.st8{fill:#F8F8F9;}
	.st9{fill:#F7F8F8;}
	.st10{fill:#F6F7F7;}
	.st11{fill:#F5F6F6;}
	.st12{fill:#F4F5F5;}
	.st13{fill:#F3F4F4;}
	.st14{fill:#F2F3F3;}
	.st15{fill:#F1F2F2;}
	.st16{fill:#F0F1F1;}
	.st17{fill:#EFF0F0;}
	.st18{fill:#EEEFEF;}
	.st19{fill:#EDEEEF;}
	.st20{fill:#ECEDEE;}
	.st21{fill:#EBECED;}
	.st22{fill:#EAEBEC;}
	.st23{fill:#E9EAEB;}
	.st24{fill:#E8E9EA;}
	.st25{fill:#E8E9E9;}
	.st26{fill:#E7E8E8;}
	.st27{fill:#E6E7E7;}
	.st28{fill:#E5E6E6;}
	.st29{fill:#E4E5E5;}
	.st30{fill:#E3E4E4;}
	.st31{fill:#E2E3E4;}
	.st32{fill:#E1E2E3;}
	.st33{fill:#E0E1E2;}
	.st34{fill:#DFE0E1;}
	.st35{fill:#DEDFE0;}
	.st36{fill:#DDDEDF;}
	.st37{fill:#DCDDDE;}
	.st38{fill:#DBDCDD;}
	.st39{fill:#DADBDC;}
	.st40{fill:#D9DADB;}
	.st41{fill:#D8DADA;}
	.st42{fill:#D7D9D9;}
	.st43{fill:#D6D8D9;}
	.st44{fill:#D5D7D8;}
	.st45{fill:#D4D6D7;}
	.st46{fill:#D3D5D6;}
	.st47{fill:#D2D4D5;}
	.st48{fill:#D1D3D4;}
	.st49{fill:#6136C9;}
	.st50{fill:#B38FF7;}
	.st51{fill:#FFCE55;}
	.st52{fill:#DB3931;}
	.st53{fill:#00A79D;}
	.st54{fill:#5FC8D7;}
	.st55{fill:#F7941D;}
	.st56{fill:#EF4065;}
	.st57{fill:#F16680;}
	.st58{fill:#8CECF4;}
	.st59{fill:#006838;}
	.st60{fill:#F8E4D2;}
	.st61{fill:#BB4738;}
	.st62{opacity:0.5;fill:#BB4738;}
	.st63{fill:#FFBBA6;}
	.st64{opacity:0.5;fill:#FFCE55;}
	.st65{fill:#FFFDEB;}
	.st66{fill:#FEE0CF;}
	.st67{fill:#0B5F99;}
	.st68{fill:#647FA0;}
	.st69{fill:#7991B4;}
	.st70{fill:#A2C4ED;}
	.st71{opacity:0.5;fill:#7991B4;}
	.st72{fill:#FFE7C4;}
	.st73{fill:#FFC9AE;}
	.st74{opacity:0.5;fill:#0B5F99;}
	.st75{opacity:0.5;fill:#F4E0CB;}
	.st76{opacity:0.5;fill:#FEE0CF;}
	.st77{opacity:0.5;fill:#FFBBA6;}
	.st78{fill:#BE1E2D;}
	.st79{opacity:0.5;fill:#BE1E2D;}
	.st80{fill:#00998A;}
	.st81{opacity:0.5;fill:#00A79D;}
	.st82{opacity:0.5;fill:#F16680;}
	.st83{fill:#594A42;}
	.st84{fill:#877F7D;}
	.st85{opacity:0.5;fill:#FC957A;}
	.st86{opacity:0.5;fill:#594A42;}
	.st87{opacity:0.5;fill:#877F7D;}
	.st88{fill:#DDC2BF;}
	.st89{fill:#FCE2E0;}
	.st90{opacity:0.5;fill:#DDC2BF;}
	.st91{fill:#9D2E24;}
	.st92{opacity:0.5;fill:#9D2E24;}
	.st93{fill:#8C67E8;}
	.st94{opacity:0.5;fill:#B38FF7;}
	.st95{fill:#A59C9A;}
</style>
<g>
	<g>
		<g>
			<ellipse class="st0" cx="55.2" cy="479.8" rx="47.8" ry="12.2"/>
			<ellipse class="st0" cx="493.9" cy="464.9" rx="47.8" ry="12.2"/>
			<path class="st0" d="M319.6,442.4c-21.3,0-39.3,2-45.5,4.8c-5.7-1.9-18.7-3.3-33.9-3.3c-20.4,0-37,2.4-37,5.4
				c0,3,16.6,5.4,37,5.4c15.2,0,28.2-1.3,33.9-3.3c6.2,2.8,24.2,4.8,45.5,4.8c26.4,0,47.8-3.1,47.8-7
				C367.5,445.5,346,442.4,319.6,442.4z"/>
			<g>
				<g>
					<g>
						<g>
							<path class="st1" d="M463.7,122H92.6c-14.2,0-25.7,11.5-25.7,25.7v204.6c0,14.2,11.5,25.7,25.7,25.7h371.2
								c14.2,0,25.7-11.5,25.7-25.7V147.7C489.4,133.5,477.9,122,463.7,122z"/>
							<path class="st2" d="M464.1,121.6H93c-14.2,0-25.7,11.5-25.7,25.7v204.6c0,14.2,11.5,25.7,25.7,25.7h371.2
								c14.2,0,25.7-11.5,25.7-25.7V147.3C489.8,133.1,478.3,121.6,464.1,121.6z"/>
							<path class="st3" d="M464.5,121.2H93.4c-14.2,0-25.7,11.5-25.7,25.7v204.6c0,14.2,11.5,25.7,25.7,25.7h371.2
								c14.2,0,25.7-11.5,25.7-25.7V146.9C490.2,132.7,478.7,121.2,464.5,121.2z"/>
							<path class="st4" d="M465,120.8H93.8c-14.2,0-25.7,11.5-25.7,25.7V351c0,14.2,11.5,25.7,25.7,25.7H465
								c14.2,0,25.7-11.5,25.7-25.7V146.5C490.6,132.3,479.1,120.8,465,120.8z"/>
							<path class="st5" d="M465.4,120.4H94.2c-14.2,0-25.7,11.5-25.7,25.7v204.6c0,14.2,11.5,25.7,25.7,25.7h371.2
								c14.2,0,25.7-11.5,25.7-25.7V146.1C491.1,131.9,479.6,120.4,465.4,120.4z"/>
							<path class="st6" d="M465.8,120H94.6C80.5,120,69,131.5,69,145.6v204.6c0,14.2,11.5,25.7,25.7,25.7h371.2
								c14.2,0,25.7-11.5,25.7-25.7V145.6C491.5,131.5,480,120,465.8,120z"/>
							<path class="st7" d="M466.2,119.5H95.1c-14.2,0-25.7,11.5-25.7,25.7v204.6c0,14.2,11.5,25.7,25.7,25.7h371.2
								c14.2,0,25.7-11.5,25.7-25.7V145.2C491.9,131,480.4,119.5,466.2,119.5z"/>
							<path class="st8" d="M466.6,119.1H95.5c-14.2,0-25.7,11.5-25.7,25.7v204.6c0,14.2,11.5,25.7,25.7,25.7h371.2
								c14.2,0,25.7-11.5,25.7-25.7V144.8C492.3,130.6,480.8,119.1,466.6,119.1z"/>
							<path class="st9" d="M467.1,118.7H95.9c-14.2,0-25.7,11.5-25.7,25.7V349c0,14.2,11.5,25.7,25.7,25.7h371.2
								c14.2,0,25.7-11.5,25.7-25.7V144.4C492.7,130.2,481.2,118.7,467.1,118.7z"/>
							<path class="st10" d="M467.5,118.3H96.3c-14.2,0-25.7,11.5-25.7,25.7v204.6c0,14.2,11.5,25.7,25.7,25.7h371.2
								c14.2,0,25.7-11.5,25.7-25.7V144C493.1,129.8,481.7,118.3,467.5,118.3z"/>
							<path class="st11" d="M467.9,117.9H96.7c-14.2,0-25.7,11.5-25.7,25.7v204.6c0,14.2,11.5,25.7,25.7,25.7h371.2
								c14.2,0,25.7-11.5,25.7-25.7V143.5C493.6,129.4,482.1,117.9,467.9,117.9z"/>
							<path class="st12" d="M468.3,117.5H97.2c-14.2,0-25.7,11.5-25.7,25.7v204.6c0,14.2,11.5,25.7,25.7,25.7h371.2
								c14.2,0,25.7-11.5,25.7-25.7V143.1C494,128.9,482.5,117.5,468.3,117.5z"/>
							<path class="st13" d="M468.7,117H97.6c-14.2,0-25.7,11.5-25.7,25.7v204.6c0,14.2,11.5,25.7,25.7,25.7h371.2
								c14.2,0,25.7-11.5,25.7-25.7V142.7C494.4,128.5,482.9,117,468.7,117z"/>
							<path class="st14" d="M469.1,116.6H98c-14.2,0-25.7,11.5-25.7,25.7v204.6c0,14.2,11.5,25.7,25.7,25.7h371.2
								c14.2,0,25.7-11.5,25.7-25.7V142.3C494.8,128.1,483.3,116.6,469.1,116.6z"/>
							<path class="st15" d="M469.6,116.2H98.4c-14.2,0-25.7,11.5-25.7,25.7v204.6c0,14.2,11.5,25.7,25.7,25.7h371.2
								c14.2,0,25.7-11.5,25.7-25.7V141.9C495.2,127.7,483.7,116.2,469.6,116.2z"/>
							<path class="st16" d="M470,115.8H98.8c-14.2,0-25.7,11.5-25.7,25.7V346c0,14.2,11.5,25.7,25.7,25.7H470
								c14.2,0,25.7-11.5,25.7-25.7V141.5C495.7,127.3,484.2,115.8,470,115.8z"/>
							<path class="st17" d="M470.4,115.4H99.2c-14.2,0-25.7,11.5-25.7,25.7v204.6c0,14.2,11.5,25.7,25.7,25.7h371.2
								c14.2,0,25.7-11.5,25.7-25.7V141C496.1,126.9,484.6,115.4,470.4,115.4z"/>
							<path class="st18" d="M470.8,114.9H99.7c-14.2,0-25.7,11.5-25.7,25.7v204.6c0,14.2,11.5,25.7,25.7,25.7h371.2
								c14.2,0,25.7-11.5,25.7-25.7V140.6C496.5,126.4,485,114.9,470.8,114.9z"/>
							<path class="st19" d="M471.2,114.5H100.1c-14.2,0-25.7,11.5-25.7,25.7v204.6c0,14.2,11.5,25.7,25.7,25.7h371.2
								c14.2,0,25.7-11.5,25.7-25.7V140.2C496.9,126,485.4,114.5,471.2,114.5z"/>
							<path class="st20" d="M471.6,114.1H100.5c-14.2,0-25.7,11.5-25.7,25.7v204.6c0,14.2,11.5,25.7,25.7,25.7h371.2
								c14.2,0,25.7-11.5,25.7-25.7V139.8C497.3,125.6,485.8,114.1,471.6,114.1z"/>
							<path class="st21" d="M472.1,113.7H100.9c-14.2,0-25.7,11.5-25.7,25.7v204.6c0,14.2,11.5,25.7,25.7,25.7h371.2
								c14.2,0,25.7-11.5,25.7-25.7V139.4C497.7,125.2,486.2,113.7,472.1,113.7z"/>
							<path class="st22" d="M472.5,113.3H101.3c-14.2,0-25.7,11.5-25.7,25.7v204.6c0,14.2,11.5,25.7,25.7,25.7h371.2
								c14.2,0,25.7-11.5,25.7-25.7V139C498.2,124.8,486.7,113.3,472.5,113.3z"/>
							<path class="st23" d="M472.9,112.9H101.7c-14.2,0-25.7,11.5-25.7,25.7v204.6c0,14.2,11.5,25.7,25.7,25.7h371.2
								c14.2,0,25.7-11.5,25.7-25.7V138.5C498.6,124.4,487.1,112.9,472.9,112.9z"/>
							<path class="st24" d="M473.3,112.4H102.2c-14.2,0-25.7,11.5-25.7,25.7v204.6c0,14.2,11.5,25.7,25.7,25.7h371.2
								c14.2,0,25.7-11.5,25.7-25.7V138.1C499,123.9,487.5,112.4,473.3,112.4z"/>
							<path class="st25" d="M473.7,112H102.6c-14.2,0-25.7,11.5-25.7,25.7v204.6c0,14.2,11.5,25.7,25.7,25.7h371.2
								c14.2,0,25.7-11.5,25.7-25.7V137.7C499.4,123.5,487.9,112,473.7,112z"/>
							<path class="st26" d="M474.2,111.6H103c-14.2,0-25.7,11.5-25.7,25.7v204.6c0,14.2,11.5,25.7,25.7,25.7h371.2
								c14.2,0,25.7-11.5,25.7-25.7V137.3C499.8,123.1,488.3,111.6,474.2,111.6z"/>
							<path class="st27" d="M474.6,111.2H103.4c-14.2,0-25.7,11.5-25.7,25.7v204.6c0,14.2,11.5,25.7,25.7,25.7h371.2
								c14.2,0,25.7-11.5,25.7-25.7V136.9C500.3,122.7,488.8,111.2,474.6,111.2z"/>
							<path class="st28" d="M475,110.8H103.8c-14.2,0-25.7,11.5-25.7,25.7V341c0,14.2,11.5,25.7,25.7,25.7H475
								c14.2,0,25.7-11.5,25.7-25.7V136.4C500.7,122.3,489.2,110.8,475,110.8z"/>
							<path class="st29" d="M475.4,110.4H104.3c-14.2,0-25.7,11.5-25.7,25.7v204.6c0,14.2,11.5,25.7,25.7,25.7h371.2
								c14.2,0,25.7-11.5,25.7-25.7V136C501.1,121.8,489.6,110.4,475.4,110.4z"/>
							<path class="st30" d="M475.8,109.9H104.7c-14.2,0-25.7,11.5-25.7,25.7v204.6c0,14.2,11.5,25.7,25.7,25.7h371.2
								c14.2,0,25.7-11.5,25.7-25.7V135.6C501.5,121.4,490,109.9,475.8,109.9z"/>
							<path class="st31" d="M476.2,109.5H105.1c-14.2,0-25.7,11.5-25.7,25.7v204.6c0,14.2,11.5,25.7,25.7,25.7h371.2
								c14.2,0,25.7-11.5,25.7-25.7V135.2C501.9,121,490.4,109.5,476.2,109.5z"/>
							<path class="st32" d="M476.7,109.1H105.5c-14.2,0-25.7,11.5-25.7,25.7v204.6c0,14.2,11.5,25.7,25.7,25.7h371.2
								c14.2,0,25.7-11.5,25.7-25.7V134.8C502.3,120.6,490.8,109.1,476.7,109.1z"/>
							<path class="st33" d="M477.1,108.7H105.9c-14.2,0-25.7,11.5-25.7,25.7v204.6c0,14.2,11.5,25.7,25.7,25.7h371.2
								c14.2,0,25.7-11.5,25.7-25.7V134.4C502.8,120.2,491.3,108.7,477.1,108.7z"/>
							<path class="st34" d="M477.5,108.3H106.3c-14.2,0-25.7,11.5-25.7,25.7v204.6c0,14.2,11.5,25.7,25.7,25.7h371.2
								c14.2,0,25.7-11.5,25.7-25.7V133.9C503.2,119.8,491.7,108.3,477.5,108.3z"/>
							<path class="st35" d="M477.9,107.8H106.8c-14.2,0-25.7,11.5-25.7,25.7v204.6c0,14.2,11.5,25.7,25.7,25.7h371.2
								c14.2,0,25.7-11.5,25.7-25.7V133.5C503.6,119.3,492.1,107.8,477.9,107.8z"/>
							<path class="st36" d="M478.3,107.4H107.2c-14.2,0-25.7,11.5-25.7,25.7v204.6c0,14.2,11.5,25.7,25.7,25.7h371.2
								c14.2,0,25.7-11.5,25.7-25.7V133.1C504,118.9,492.5,107.4,478.3,107.4z"/>
							<path class="st37" d="M478.8,107H107.6c-14.2,0-25.7,11.5-25.7,25.7v204.6c0,14.2,11.5,25.7,25.7,25.7h371.2
								c14.2,0,25.7-11.5,25.7-25.7V132.7C504.4,118.5,492.9,107,478.8,107z"/>
							<path class="st38" d="M479.2,106.6H108c-14.2,0-25.7,11.5-25.7,25.7v204.6c0,14.2,11.5,25.7,25.7,25.7h371.2
								c14.2,0,25.7-11.5,25.7-25.7V132.3C504.8,118.1,493.4,106.6,479.2,106.6z"/>
							<path class="st39" d="M479.6,106.2H108.4c-14.2,0-25.7,11.5-25.7,25.7v204.6c0,14.2,11.5,25.7,25.7,25.7h371.2
								c14.2,0,25.7-11.5,25.7-25.7V131.9C505.3,117.7,493.8,106.2,479.6,106.2z"/>
							<path class="st40" d="M480,105.8H108.8c-14.2,0-25.7,11.5-25.7,25.7V336c0,14.2,11.5,25.7,25.7,25.7H480
								c14.2,0,25.7-11.5,25.7-25.7V131.4C505.7,117.3,494.2,105.8,480,105.8z"/>
							<path class="st41" d="M480.4,105.3H109.3c-14.2,0-25.7,11.5-25.7,25.7v204.6c0,14.2,11.5,25.7,25.7,25.7h371.2
								c14.2,0,25.7-11.5,25.7-25.7V131C506.1,116.8,494.6,105.3,480.4,105.3z"/>
							<path class="st42" d="M480.8,104.9H109.7c-14.2,0-25.7,11.5-25.7,25.7v204.6c0,14.2,11.5,25.7,25.7,25.7h371.2
								c14.2,0,25.7-11.5,25.7-25.7V130.6C506.5,116.4,495,104.9,480.8,104.9z"/>
							<path class="st43" d="M481.3,104.5H110.1c-14.2,0-25.7,11.5-25.7,25.7v204.6c0,14.2,11.5,25.7,25.7,25.7h371.2
								c14.2,0,25.7-11.5,25.7-25.7V130.2C506.9,116,495.4,104.5,481.3,104.5z"/>
							<path class="st44" d="M481.7,104.1H110.5c-14.2,0-25.7,11.5-25.7,25.7v204.6c0,14.2,11.5,25.7,25.7,25.7h371.2
								c14.2,0,25.7-11.5,25.7-25.7V129.8C507.4,115.6,495.9,104.1,481.7,104.1z"/>
							<path class="st45" d="M482.1,103.7H110.9c-14.2,0-25.7,11.5-25.7,25.7v204.6c0,14.2,11.5,25.7,25.7,25.7h371.2
								c14.2,0,25.7-11.5,25.7-25.7V129.3C507.8,115.2,496.3,103.7,482.1,103.7z"/>
							<path class="st46" d="M482.5,103.2H111.4c-14.2,0-25.7,11.5-25.7,25.7v204.6c0,14.2,11.5,25.7,25.7,25.7h371.2
								c14.2,0,25.7-11.5,25.7-25.7V128.9C508.2,114.7,496.7,103.2,482.5,103.2z"/>
							<path class="st47" d="M482.9,102.8H111.8c-14.2,0-25.7,11.5-25.7,25.7v204.6c0,14.2,11.5,25.7,25.7,25.7h371.2
								c14.2,0,25.7-11.5,25.7-25.7V128.5C508.6,114.3,497.1,102.8,482.9,102.8z"/>
							<path class="st48" d="M483.3,102.4H112.2c-14.2,0-25.7,11.5-25.7,25.7v204.6c0,14.2,11.5,25.7,25.7,25.7h371.2
								c14.2,0,25.7-11.5,25.7-25.7V128.1C509,113.9,497.5,102.4,483.3,102.4z"/>
						</g>
					</g>
					<path class="st49" d="M483.3,102.4H112.2c-14.2,0-25.7,11.5-25.7,25.7v204.6c0,14.2,11.5,25.7,25.7,25.7h371.2
						c14.2,0,25.7-11.5,25.7-25.7V128.1C509,113.9,497.5,102.4,483.3,102.4z"/>
					<path class="st50" d="M473.7,116.1H133.2c-7.1,0-12.8,5.7-12.8,12.8v203c0,7.1,5.7,12.8,12.8,12.8h340.5
						c7.1,0,12.8-5.7,12.8-12.8v-203C486.5,121.8,480.7,116.1,473.7,116.1z"/>
					<circle class="st50" cx="103.7" cy="230.4" r="8.6"/>
					<path class="st1" d="M460.4,130.3H148.5c-6.2,0-11.2,5-11.2,11.2v176.2c0,6.2,5,11.2,11.2,11.2h311.9c6.2,0,11.2-5,11.2-11.2
						V141.6C471.6,135.4,466.6,130.3,460.4,130.3z"/>
					<path class="st51" d="M460.4,130.3H148.5c-6.2,0-11.2,5-11.2,11.2v18.9h334.3v-18.9C471.6,135.4,466.6,130.3,460.4,130.3z"/>
					<path class="st52" d="M409.2,218.3c-13,0.3-22.6-11.7-34.5-16.7c-15.2-6.4-33.9-0.4-45.1,11.8c-5.3,5.7-10,13.2-17.7,14.5
						c-10.9,1.9-19.8-9.8-30.8-11c-16.3-1.8-26.9,18.9-43.1,21.5c-14.7,2.4-29.9-10.9-43.6-5c-6,2.5-9.9,8.1-14.8,12.4
						c-4.8,4.3-12.2,7.4-17.6,3.8v21.5h286.4v-73.4C435.1,203.6,423.7,217.9,409.2,218.3z"/>
					<circle class="st51" cx="173.1" cy="297.1" r="10.3"/>
					<rect x="192.4" y="291.6" class="st51" width="99.3" height="11"/>
					<rect x="349.1" y="281.9" class="st53" width="99.3" height="5.5"/>
					<rect x="349.1" y="294.3" class="st53" width="99.3" height="5.5"/>
					<rect x="349.1" y="306.7" class="st53" width="99.3" height="5.5"/>
					<rect x="162" y="172.9" class="st53" width="50.1" height="17.8"/>
					<circle class="st54" cx="451.6" cy="145.4" r="5.8"/>
					<circle class="st55" cx="404.6" cy="145.4" r="5.8"/>
					<circle class="st56" cx="428.4" cy="145.4" r="5.8"/>
				</g>
				<path class="st57" d="M428,387.7h-3.9c-0.3-1-0.7-1.9-1.2-2.8l2.7-2.7c1-1,1-2.7,0-3.7l-2.7-2.7c-1-1-2.7-1-3.7,0l-2.7,2.7
					c-0.9-0.5-1.8-0.9-2.8-1.2v-3.9c0-1.4-1.2-2.6-2.6-2.6h-3.8c-1.4,0-2.6,1.2-2.6,2.6v3.9c-1,0.3-1.9,0.7-2.8,1.2l-2.7-2.7
					c-1-1-2.7-1-3.7,0l-2.7,2.7c-1,1-1,2.7,0,3.7l2.7,2.7c-0.5,0.9-0.9,1.8-1.2,2.8h-3.9c-1.4,0-2.6,1.2-2.6,2.6v3.8
					c0,1.4,1.2,2.6,2.6,2.6h3.9c0.3,1,0.7,1.9,1.2,2.8l-2.7,2.7c-1,1-1,2.7,0,3.7l2.7,2.7c1,1,2.7,1,3.7,0l2.7-2.7
					c0.9,0.5,1.8,0.9,2.8,1.2v3.9c0,1.4,1.2,2.6,2.6,2.6h3.8c1.4,0,2.6-1.2,2.6-2.6v-3.9c1-0.3,1.9-0.7,2.8-1.2l2.7,2.7
					c1,1,2.7,1,3.7,0l2.7-2.7c1-1,1-2.7,0-3.7l-2.7-2.7c0.5-0.9,0.9-1.8,1.2-2.8h3.9c1.4,0,2.6-1.2,2.6-2.6v-3.8
					C430.6,388.9,429.5,387.7,428,387.7z M409.3,399.6c-4.1,0-7.4-3.3-7.4-7.4c0-4.1,3.3-7.4,7.4-7.4c4.1,0,7.4,3.3,7.4,7.4
					C416.7,396.3,413.4,399.6,409.3,399.6z"/>
				<g>
					<path class="st50" d="M195.9,378h-27.7c-3.3,0-5.9,2.6-5.9,5.9v27.7c0,3.3,2.6,5.9,5.9,5.9h27.7c3.3,0,5.9-2.6,5.9-5.9v-27.7
						C201.8,380.7,199.2,378,195.9,378z"/>
					<g>
						<path class="st1" d="M179.6,406.3l-7.4-7.4c-0.9-0.9-0.9-2.3,0-3.2c0.9-0.9,2.3-0.9,3.2,0l4.3,4.3l10.1-10.1
							c0.9-0.9,2.3-0.9,3.2,0c0.9,0.9,0.9,2.3,0,3.2L179.6,406.3z"/>
					</g>
				</g>
				<g>
					<path class="st51" d="M499.3,38.1l-11.4,29.2c3.3,1.1,6.9,1.8,10.6,1.8c15.1,0,27.7-10.3,31.4-24.2L499.3,38.1z"/>
					<path class="st57" d="M499,35.3l31.4,6.9c0.3-1.8,0.5-3.7,0.5-5.7c0-17.9-14.5-32.4-32.4-32.4c-10.1,0-19.2,4.7-25.2,12
						L499,35.3z"/>
					<path class="st53" d="M496.9,37l-25.1-18.8c-3.6,5.2-5.7,11.6-5.7,18.4c0,13.3,8,24.7,19.4,29.7L496.9,37z"/>
				</g>
				<g>
					<rect x="494.2" y="122.7" class="st54" width="58.6" height="36.8"/>
					<polygon class="st58" points="494.2,122.7 523.5,142.9 552.8,122.7 					"/>
				</g>
				<g>
					<g>
						<g>
							<path class="st1" d="M511.3,197.8H319.2c-5.6,0-10.2,4.5-10.2,10.2v133.1c0,5.6,4.5,10.2,10.2,10.2h192.2
								c5.6,0,10.2-4.5,10.2-10.2V208C521.5,202.4,516.9,197.8,511.3,197.8z"/>
							<path class="st2" d="M511.6,197.5H319.5c-5.6,0-10.2,4.5-10.2,10.2v133.1c0,5.6,4.5,10.2,10.2,10.2h192.2
								c5.6,0,10.2-4.5,10.2-10.2V207.7C521.8,202.1,517.3,197.5,511.6,197.5z"/>
							<path class="st3" d="M512,197.2H319.8c-5.6,0-10.2,4.5-10.2,10.2v133.1c0,5.6,4.5,10.2,10.2,10.2H512
								c5.6,0,10.2-4.5,10.2-10.2V207.4C522.1,201.8,517.6,197.2,512,197.2z"/>
							<path class="st4" d="M512.3,196.9H320.1c-5.6,0-10.2,4.5-10.2,10.2v133.1c0,5.6,4.5,10.2,10.2,10.2h192.2
								c5.6,0,10.2-4.5,10.2-10.2V207.1C522.4,201.5,517.9,196.9,512.3,196.9z"/>
							<path class="st5" d="M512.6,196.6H320.4c-5.6,0-10.2,4.5-10.2,10.2v133.1c0,5.6,4.5,10.2,10.2,10.2h192.2
								c5.6,0,10.2-4.5,10.2-10.2V206.7C522.7,201.1,518.2,196.6,512.6,196.6z"/>
							<path class="st6" d="M512.9,196.3H320.7c-5.6,0-10.2,4.5-10.2,10.2v133.1c0,5.6,4.5,10.2,10.2,10.2h192.2
								c5.6,0,10.2-4.5,10.2-10.2V206.4C523.1,200.8,518.5,196.3,512.9,196.3z"/>
							<path class="st7" d="M513.2,196H321.1c-5.6,0-10.2,4.5-10.2,10.2v133.1c0,5.6,4.5,10.2,10.2,10.2h192.2
								c5.6,0,10.2-4.5,10.2-10.2V206.1C523.4,200.5,518.8,196,513.2,196z"/>
							<path class="st8" d="M513.5,195.7H321.4c-5.6,0-10.2,4.5-10.2,10.2v133.1c0,5.6,4.5,10.2,10.2,10.2h192.2
								c5.6,0,10.2-4.5,10.2-10.2V205.8C523.7,200.2,519.1,195.7,513.5,195.7z"/>
							<path class="st9" d="M513.8,195.3H321.7c-5.6,0-10.2,4.5-10.2,10.2v133.1c0,5.6,4.5,10.2,10.2,10.2h192.2
								c5.6,0,10.2-4.5,10.2-10.2V205.5C524,199.9,519.4,195.3,513.8,195.3z"/>
							<path class="st10" d="M514.2,195H322c-5.6,0-10.2,4.5-10.2,10.2v133.1c0,5.6,4.5,10.2,10.2,10.2h192.2
								c5.6,0,10.2-4.5,10.2-10.2V205.2C524.3,199.6,519.8,195,514.2,195z"/>
							<path class="st11" d="M514.5,194.7H322.3c-5.6,0-10.2,4.5-10.2,10.2V338c0,5.6,4.5,10.2,10.2,10.2h192.2
								c5.6,0,10.2-4.5,10.2-10.2V204.9C524.6,199.3,520.1,194.7,514.5,194.7z"/>
							<path class="st12" d="M514.8,194.4H322.6c-5.6,0-10.2,4.5-10.2,10.2v133.1c0,5.6,4.5,10.2,10.2,10.2h192.2
								c5.6,0,10.2-4.5,10.2-10.2V204.6C524.9,198.9,520.4,194.4,514.8,194.4z"/>
							<path class="st13" d="M515.1,194.1H322.9c-5.6,0-10.2,4.5-10.2,10.2v133.1c0,5.6,4.5,10.2,10.2,10.2h192.2
								c5.6,0,10.2-4.5,10.2-10.2V204.2C525.2,198.6,520.7,194.1,515.1,194.1z"/>
							<path class="st14" d="M515.4,193.8H323.2c-5.6,0-10.2,4.5-10.2,10.2V337c0,5.6,4.5,10.2,10.2,10.2h192.2
								c5.6,0,10.2-4.5,10.2-10.2V203.9C525.6,198.3,521,193.8,515.4,193.8z"/>
							<path class="st15" d="M515.7,193.5H323.6c-5.6,0-10.2,4.5-10.2,10.2v133.1c0,5.6,4.5,10.2,10.2,10.2h192.2
								c5.6,0,10.2-4.5,10.2-10.2V203.6C525.9,198,521.3,193.5,515.7,193.5z"/>
							<path class="st16" d="M516,193.2H323.9c-5.6,0-10.2,4.5-10.2,10.2v133.1c0,5.6,4.5,10.2,10.2,10.2H516
								c5.6,0,10.2-4.5,10.2-10.2V203.3C526.2,197.7,521.6,193.2,516,193.2z"/>
							<path class="st17" d="M516.3,192.8H324.2c-5.6,0-10.2,4.5-10.2,10.2v133.1c0,5.6,4.5,10.2,10.2,10.2h192.2
								c5.6,0,10.2-4.5,10.2-10.2V203C526.5,197.4,522,192.8,516.3,192.8z"/>
							<path class="st18" d="M516.7,192.5H324.5c-5.6,0-10.2,4.5-10.2,10.2v133.1c0,5.6,4.5,10.2,10.2,10.2h192.2
								c5.6,0,10.2-4.5,10.2-10.2V202.7C526.8,197.1,522.3,192.5,516.7,192.5z"/>
							<path class="st19" d="M517,192.2H324.8c-5.6,0-10.2,4.5-10.2,10.2v133.1c0,5.6,4.5,10.2,10.2,10.2H517
								c5.6,0,10.2-4.5,10.2-10.2V202.4C527.1,196.8,522.6,192.2,517,192.2z"/>
							<path class="st20" d="M517.3,191.9H325.1c-5.6,0-10.2,4.5-10.2,10.2v133.1c0,5.6,4.5,10.2,10.2,10.2h192.2
								c5.6,0,10.2-4.5,10.2-10.2V202C527.4,196.4,522.9,191.9,517.3,191.9z"/>
							<path class="st21" d="M517.6,191.6H325.4c-5.6,0-10.2,4.5-10.2,10.2v133.1c0,5.6,4.5,10.2,10.2,10.2h192.2
								c5.6,0,10.2-4.5,10.2-10.2V201.7C527.7,196.1,523.2,191.6,517.6,191.6z"/>
							<path class="st22" d="M517.9,191.3H325.7c-5.6,0-10.2,4.5-10.2,10.2v133.1c0,5.6,4.5,10.2,10.2,10.2h192.2
								c5.6,0,10.2-4.5,10.2-10.2V201.4C528.1,195.8,523.5,191.3,517.9,191.3z"/>
							<path class="st23" d="M518.2,191H326.1c-5.6,0-10.2,4.5-10.2,10.2v133.1c0,5.6,4.5,10.2,10.2,10.2h192.2
								c5.6,0,10.2-4.5,10.2-10.2V201.1C528.4,195.5,523.8,191,518.2,191z"/>
							<path class="st24" d="M518.5,190.6H326.4c-5.6,0-10.2,4.5-10.2,10.2v133.1c0,5.6,4.5,10.2,10.2,10.2h192.2
								c5.6,0,10.2-4.5,10.2-10.2V200.8C528.7,195.2,524.1,190.6,518.5,190.6z"/>
							<path class="st25" d="M518.9,190.3H326.7c-5.6,0-10.2,4.5-10.2,10.2v133.1c0,5.6,4.5,10.2,10.2,10.2h192.2
								c5.6,0,10.2-4.5,10.2-10.2V200.5C529,194.9,524.5,190.3,518.9,190.3z"/>
							<path class="st26" d="M519.2,190H327c-5.6,0-10.2,4.5-10.2,10.2v133.1c0,5.6,4.5,10.2,10.2,10.2h192.2
								c5.6,0,10.2-4.5,10.2-10.2V200.2C529.3,194.6,524.8,190,519.2,190z"/>
							<path class="st27" d="M519.5,189.7H327.3c-5.6,0-10.2,4.5-10.2,10.2v133.1c0,5.6,4.5,10.2,10.2,10.2h192.2
								c5.6,0,10.2-4.5,10.2-10.2V199.9C529.6,194.3,525.1,189.7,519.5,189.7z"/>
							<path class="st28" d="M519.8,189.4H327.6c-5.6,0-10.2,4.5-10.2,10.2v133.1c0,5.6,4.5,10.2,10.2,10.2h192.2
								c5.6,0,10.2-4.5,10.2-10.2V199.5C529.9,193.9,525.4,189.4,519.8,189.4z"/>
							<path class="st29" d="M520.1,189.1H327.9c-5.6,0-10.2,4.5-10.2,10.2v133.1c0,5.6,4.5,10.2,10.2,10.2h192.2
								c5.6,0,10.2-4.5,10.2-10.2V199.2C530.3,193.6,525.7,189.1,520.1,189.1z"/>
							<path class="st30" d="M520.4,188.8H328.3c-5.6,0-10.2,4.5-10.2,10.2V332c0,5.6,4.5,10.2,10.2,10.2h192.2
								c5.6,0,10.2-4.5,10.2-10.2V198.9C530.6,193.3,526,188.8,520.4,188.8z"/>
							<path class="st31" d="M520.7,188.5H328.6c-5.6,0-10.2,4.5-10.2,10.2v133.1c0,5.6,4.5,10.2,10.2,10.2h192.2
								c5.6,0,10.2-4.5,10.2-10.2V198.6C530.9,193,526.3,188.5,520.7,188.5z"/>
							<path class="st32" d="M521,188.1H328.9c-5.6,0-10.2,4.5-10.2,10.2v133.1c0,5.6,4.5,10.2,10.2,10.2H521
								c5.6,0,10.2-4.5,10.2-10.2V198.3C531.2,192.7,526.6,188.1,521,188.1z"/>
							<path class="st33" d="M521.4,187.8H329.2c-5.6,0-10.2,4.5-10.2,10.2v133.1c0,5.6,4.5,10.2,10.2,10.2h192.2
								c5.6,0,10.2-4.5,10.2-10.2V198C531.5,192.4,527,187.8,521.4,187.8z"/>
							<path class="st34" d="M521.7,187.5H329.5c-5.6,0-10.2,4.5-10.2,10.2v133.1c0,5.6,4.5,10.2,10.2,10.2h192.2
								c5.6,0,10.2-4.5,10.2-10.2V197.7C531.8,192.1,527.3,187.5,521.7,187.5z"/>
							<path class="st35" d="M522,187.2H329.8c-5.6,0-10.2,4.5-10.2,10.2v133.1c0,5.6,4.5,10.2,10.2,10.2H522
								c5.6,0,10.2-4.5,10.2-10.2V197.4C532.1,191.7,527.6,187.2,522,187.2z"/>
							<path class="st36" d="M522.3,186.9H330.1c-5.6,0-10.2,4.5-10.2,10.2v133.1c0,5.6,4.5,10.2,10.2,10.2h192.2
								c5.6,0,10.2-4.5,10.2-10.2V197C532.4,191.4,527.9,186.9,522.3,186.9z"/>
							<path class="st37" d="M522.6,186.6H330.4c-5.6,0-10.2,4.5-10.2,10.2v133.1c0,5.6,4.5,10.2,10.2,10.2h192.2
								c5.6,0,10.2-4.5,10.2-10.2V196.7C532.8,191.1,528.2,186.6,522.6,186.6z"/>
							<path class="st38" d="M522.9,186.3H330.8c-5.6,0-10.2,4.5-10.2,10.2v133.1c0,5.6,4.5,10.2,10.2,10.2h192.2
								c5.6,0,10.2-4.5,10.2-10.2V196.4C533.1,190.8,528.5,186.3,522.9,186.3z"/>
							<path class="st39" d="M523.2,185.9H331.1c-5.6,0-10.2,4.5-10.2,10.2v133.1c0,5.6,4.5,10.2,10.2,10.2h192.2
								c5.6,0,10.2-4.5,10.2-10.2V196.1C533.4,190.5,528.8,185.9,523.2,185.9z"/>
							<path class="st40" d="M523.5,185.6H331.4c-5.6,0-10.2,4.5-10.2,10.2v133.1c0,5.6,4.5,10.2,10.2,10.2h192.2
								c5.6,0,10.2-4.5,10.2-10.2V195.8C533.7,190.2,529.2,185.6,523.5,185.6z"/>
							<path class="st41" d="M523.9,185.3H331.7c-5.6,0-10.2,4.5-10.2,10.2v133.1c0,5.6,4.5,10.2,10.2,10.2h192.2
								c5.6,0,10.2-4.5,10.2-10.2V195.5C534,189.9,529.5,185.3,523.9,185.3z"/>
							<path class="st42" d="M524.2,185H332c-5.6,0-10.2,4.5-10.2,10.2v133.1c0,5.6,4.5,10.2,10.2,10.2h192.2
								c5.6,0,10.2-4.5,10.2-10.2V195.2C534.3,189.6,529.8,185,524.2,185z"/>
							<path class="st43" d="M524.5,184.7H332.3c-5.6,0-10.2,4.5-10.2,10.2v133.1c0,5.6,4.5,10.2,10.2,10.2h192.2
								c5.6,0,10.2-4.5,10.2-10.2V194.8C534.6,189.2,530.1,184.7,524.5,184.7z"/>
							<path class="st44" d="M524.8,184.4H332.6c-5.6,0-10.2,4.5-10.2,10.2v133.1c0,5.6,4.5,10.2,10.2,10.2h192.2
								c5.6,0,10.2-4.5,10.2-10.2V194.5C535,188.9,530.4,184.4,524.8,184.4z"/>
							<path class="st45" d="M525.1,184.1H333c-5.6,0-10.2,4.5-10.2,10.2v133.1c0,5.6,4.5,10.2,10.2,10.2h192.2
								c5.6,0,10.2-4.5,10.2-10.2V194.2C535.3,188.6,530.7,184.1,525.1,184.1z"/>
							<path class="st46" d="M525.4,183.8H333.3c-5.6,0-10.2,4.5-10.2,10.2V327c0,5.6,4.5,10.2,10.2,10.2h192.2
								c5.6,0,10.2-4.5,10.2-10.2V193.9C535.6,188.3,531,183.8,525.4,183.8z"/>
							<path class="st47" d="M525.7,183.4H333.6c-5.6,0-10.2,4.5-10.2,10.2v133.1c0,5.6,4.5,10.2,10.2,10.2h192.2
								c5.6,0,10.2-4.5,10.2-10.2V193.6C535.9,188,531.3,183.4,525.7,183.4z"/>
							<path class="st48" d="M526.1,183.1H333.9c-5.6,0-10.2,4.5-10.2,10.2v133.1c0,5.6,4.5,10.2,10.2,10.2h192.2
								c5.6,0,10.2-4.5,10.2-10.2V193.3C536.2,187.7,531.7,183.1,526.1,183.1z"/>
						</g>
					</g>
					<path class="st1" d="M526.1,183.1H333.9c-5.6,0-10.2,4.5-10.2,10.2v133.1c0,5.6,4.5,10.2,10.2,10.2h192.2
						c5.6,0,10.2-4.5,10.2-10.2V193.3C536.2,187.7,531.7,183.1,526.1,183.1z"/>
					<rect x="341.3" y="229" class="st57" width="177.3" height="90"/>
					<circle class="st51" cx="351.9" cy="204.3" r="10.6"/>
					<rect x="374.3" y="194.6" class="st53" width="74.5" height="7.2"/>
					<rect x="374.3" y="210.9" class="st51" width="123.3" height="3.1"/>
					<polygon class="st1" points="446.6,274 418.4,260.1 418.4,287.8 					"/>
				</g>
				<g>
					<rect x="96.7" y="40.6" class="st54" width="7" height="6.6"/>
					<rect x="92.9" y="35.4" class="st54" width="14.7" height="5.2"/>
					<circle class="st53" cx="100.2" cy="68.9" r="23.6"/>
					<circle class="st58" cx="100.2" cy="68.9" r="20.1"/>
					<g>
						<path class="st52" d="M116.9,73.3c0,0-0.1,0-0.1,0c-0.3-0.1-0.5-0.4-0.5-0.7c0.3-1.2,0.4-2.4,0.4-3.7
							c0-7.8-5.5-14.6-13.2-16.2c-0.3-0.1-0.5-0.4-0.5-0.7c0.1-0.3,0.4-0.5,0.7-0.5c8.2,1.7,14.1,9,14.1,17.4c0,1.3-0.1,2.7-0.4,4
							C117.4,73.1,117.2,73.3,116.9,73.3z"/>
					</g>
					<circle class="st52" cx="100.2" cy="68.9" r="2.4"/>
					<g>
						<path class="st52" d="M100.2,69.5c-0.3,0-0.6-0.3-0.6-0.6V50.5c0-0.3,0.3-0.6,0.6-0.6c0.3,0,0.6,0.3,0.6,0.6v18.4
							C100.8,69.2,100.6,69.5,100.2,69.5z"/>
					</g>
					<g>
						<path class="st52" d="M113,75.3c-0.1,0-0.2,0-0.3-0.1L100,69.4c-0.3-0.1-0.4-0.5-0.3-0.8c0.1-0.3,0.5-0.4,0.8-0.3l12.8,5.8
							c0.3,0.1,0.4,0.5,0.3,0.8C113.5,75.2,113.3,75.3,113,75.3z"/>
					</g>
					<circle class="st59" cx="100.2" cy="86.4" r="0.8"/>
					<circle class="st59" cx="87.8" cy="81.3" r="0.8"/>
					<circle class="st59" cx="82.7" cy="68.9" r="0.8"/>
					<circle class="st59" cx="87.8" cy="56.5" r="0.8"/>
					<circle class="st59" cx="112.6" cy="81.3" r="0.8"/>
					<path class="st57" d="M88.7,41.6H30.2l49.4,6c2.6-2.3,5.7-4,9.1-5V41.6z"/>
					<path class="st57" d="M43.7,53.9l27.9,5.9c0.7-2.1,1.6-4.1,2.7-5.9H43.7z"/>
					<path class="st57" d="M70.2,66.3H53.6L70.2,72c-0.1-0.9-0.1-1.9-0.1-2.9C70.1,68.2,70.1,67.3,70.2,66.3z"/>
					<path class="st57" d="M61.9,78.7l12.4,5.7c-1.1-1.8-1.9-3.7-2.6-5.7H61.9z"/>
				</g>
				<g>
					<rect x="8.1" y="264.7" class="st57" width="7.3" height="19.2"/>
					<path class="st57" d="M44.5,267.1c-0.5-1.3-1.7-2.1-3.1-2.1l-14-0.5c2-2.1,2.1-7.6,2.1-10.3c0-0.8-0.7-1.4-1.5-1.4l0,0
						c-0.6,0-1.1,0.3-1.3,0.9c-0.5,1.1-1.6,3.2-3.7,5.2c-2.4,2.2-4.6,5.9-4.6,5.9v19.2h2.9h0.5H36c2.1,0,3.8-1.8,3.8-3.9
						c0-0.5,0-1,0-1.5c0-2.8,5.6-5.2,5.6-7.4C45.4,269.9,44.9,268.4,44.5,267.1z"/>
				</g>
				<g>
					<polygon class="st51" points="87.7,139 41.9,139 41.9,228.9 111.3,228.9 111.3,162.6 					"/>
					<polygon class="st55" points="87.7,139 111.3,162.6 87.7,162.6 					"/>
					<rect x="51.8" y="152.2" class="st1" width="24.8" height="4.5"/>
					<rect x="51.8" y="172.7" class="st1" width="49.4" height="4.5"/>
					<rect x="51.8" y="184.7" class="st1" width="49.4" height="4.5"/>
					<rect x="51.8" y="196.7" class="st1" width="49.4" height="4.5"/>
					<rect x="51.8" y="208.7" class="st1" width="49.4" height="4.5"/>
				</g>
				<g>
					<path class="st60" d="M238.7,432.7c0,0-3.3,3.5-4,6.2c-0.7,2.6-1,3.7-2.2,3.4c-1.1-0.3-11.6-4.9-14.6-6.8s7.1-1.5,11.3-1.1
						c4.2,0.5,6.9-3.8,6.9-3.8L238.7,432.7z"/>
					<path class="st59" d="M234.7,438.9c0.1-0.5,0.3-1,0.6-1.4c-0.8-0.3-1.6-0.8-2.8-0.4c-2.3,1-7.2-1.8-8.9-3
						c-4-0.1-7.8,0.2-5.8,1.4c3,1.9,13.5,6.5,14.6,6.8C233.7,442.6,234.1,441.6,234.7,438.9z"/>
					<path class="st61" d="M322.6,390.7c0,0-0.3,16.7-29.5,15.4c-18-0.4-27-3.8-27-3.8s-16.6,23.1-28.6,32.2l-3.7-2.1
						c0,0,20.6-39,26.3-42.3c4.4-2.3,43.4-3.4,43.4-3.4L322.6,390.7z"/>
					<path class="st62" d="M253.8,397.8c1,5.2,2.1,12.5,1.8,18c6-7.3,10.5-13.6,10.5-13.6s1.5,0.6,4.5,1.3
						c0.5-3.4,1.4-10.2,1.7-11.2c0.2-0.7,0.6-2.4,0.5-4.1c-6.2,0.5-11.3,1.1-12.7,1.9C258.8,390.9,256.5,393.9,253.8,397.8z"/>
					<path class="st60" d="M257.3,435.7c0,0-1.3,4.6-0.7,7.3c0.6,2.6,0.8,3.8-0.4,4c-1.1,0.3-12.6,1-16.1,0.7
						c-3.5-0.3,5.6-4.6,9.5-6.2c3.9-1.5,4.3-6.6,4.3-6.6L257.3,435.7z"/>
					<path class="st61" d="M325.7,391.3c0,0,4.6,11-3.3,16.6c-7.9,5.6-49.5-5.1-49.5-5.1s-0.3,18-15.8,35.6l-4.4-1.3
						c0,0,9-38.8,14.6-46.8c9.7-3.5,36.3-3.4,36.3-3.4L325.7,391.3z"/>
					<path class="st59" d="M256.6,443.1c-0.1-0.5-0.1-1-0.2-1.5c-0.8,0.1-1.8,0-2.6,1c-1.6,1.9-7.2,1.7-9.3,1.4
						c-3.6,1.8-6.8,3.7-4.5,3.9c3.5,0.3,15-0.4,16.1-0.7C257.4,446.8,257.2,445.7,256.6,443.1z"/>
					<path class="st62" d="M322.4,407.8c7.9-5.6,3.3-16.6,3.3-16.6l-22.1-4.6c0,0-2.4,0-5.9,0.1c0.2,1,11.9,8.5,12.8,13
						c1,4.6-34.2,0.5-37.6,2.9C272.9,402.8,314.5,413.4,322.4,407.8z"/>
					<path class="st63" d="M271.5,369.5c0,0-1.7,0.5-2.6,0.1c-1-0.3-2.7-1.6-4.3-1.2c-1.6,0.4-3.4,3.5-4.2,4.5c-0.7,1,2.3,0,3.8-1
						c1.5-1,2.6,1.5,4.3,1.2c1.7-0.2,3.9-0.8,3.9-0.8L271.5,369.5z"/>
					<path class="st51" d="M310.9,333.6c-4.4-1.1-8.8,1.8-9.6,6.3c-0.4,2.1-0.8,4.2-1.2,6.2c-0.5,2.4-1.1,4.7-1.7,6.9
						c-0.3,1.1-0.7,2.1-1,3c0,0-0.2,0.6-0.3,0.6c-0.5,1.2-1.2,1.6-2.4,2.2c-1,0.6-2.1,1.1-3.3,1.6c-2.2,1.1-4.5,2.1-6.9,3.1
						c-4.7,2-9.4,3.8-14.2,5.6l1,4.2c5.1-0.7,10.2-1.5,15.4-2.4c2.6-0.5,5.1-1,7.7-1.6c1.3-0.3,2.6-0.6,3.9-1c0.7-0.2,1.3-0.4,2-0.6
						l1.1-0.4l0.5-0.2c0.3-0.1,0.6-0.4,1-0.5c0.6-0.4,1.4-0.9,1.8-1.3l1.1-1.1l0.5-0.6l0.4-0.5l0.8-1c0.9-1.3,1.7-2.6,2.4-3.9
						c1.4-2.5,2.6-5,3.7-7.4c1-2.1,1.9-4.2,2.7-6.3C318.3,339.8,315.7,334.8,310.9,333.6z"/>
					<path class="st64" d="M305.9,363.8l0.5-0.7l0.4-0.6l0.8-1.2c0.9-1.5,1.7-3,2.4-4.4c1.4-2.9,2.6-5.7,3.7-8.6
						c1-2.4,1.9-4.8,2.7-7.3c0.2-0.5,0.3-1,0.4-1.5c-0.6-2.9-2.8-5.3-5.9-6c-4.4-1.1-8.8,1.8-9.6,6.3c-0.4,2.1-0.8,4.2-1.2,6.2
						c-0.5,2.4-1.1,4.7-1.7,6.9c-0.3,1.1-0.7,2.1-1,3c0,0-0.2,0.6-0.3,0.6c-0.5,1.2-1.2,1.6-2.4,2.2c0,0,0,0,0,0
						c0.7,3,1.6,7.1,1.6,10c0.7-0.2,1.4-0.3,2.1-0.5c0.7-0.2,1.3-0.4,2-0.6l1.1-0.4l0.5-0.2c0.3-0.1,0.6-0.4,1-0.5
						c0.2-0.1,0.5-0.3,0.7-0.5c0.4-0.3,0.8-0.7,1.1-1L305.9,363.8z"/>
					<path class="st63" d="M281.3,379.8c0,0-1.7,0.5-2.6,0.1c-1-0.3-2.7-1.6-4.3-1.2c-1.6,0.4-3.4,3.5-4.2,4.5c-0.7,1,2.3,0,3.8-1
						c1.5-1,2.6,1.5,4.3,1.2c1.7-0.2,3.9-0.8,3.9-0.8L281.3,379.8z"/>
					<path class="st53" d="M343.5,427.5v-17h2.8v-2.6h-60.2c-4.9,0-8.9,4-8.9,8.9v4.5c0,4.9,4,8.9,8.9,8.9h60.2v-2.6H343.5z"/>
					<path class="st51" d="M324.3,367.7c0.5-7.3,1.3-14.7,0.4-22c-0.7-5.6-3.9-11.6-9.8-13c-3.2-0.8-5.7,0-8.1,1.4
						c-1.2,0.7-2.4,1.6-3.7,2.5c-4.4,3.3-10.3,10.1-8.9,16.5c0.8,3.4,1.9,5.3,4,7.9c2.3,2.9,3.2,6.2,3.3,9.9
						c0,1.1-1.9,12.7-3.4,14.8c-0.2,0.3-0.1,0.6,0.2,0.8c5.3,3.8,17.4,12.4,29.8,7.6C328.6,389.9,323.5,379.3,324.3,367.7z"/>
					<path class="st65" d="M287.4,410.5c-3.9,0-7,3.1-7,7v3.1c0,3.9,3.1,7,7,7H345v-17H287.4z"/>
					<path class="st61" d="M290.9,447v-14.3h-2.8v-2.6h60.2c4.9,0,8.9,4,8.9,8.9v1.7c0,4.9-4,8.9-8.9,8.9h-60.2V447H290.9z"/>
					<path class="st66" d="M347.1,432.7c3.9,0,7,3.1,7,7v0.3c0,3.9-3.1,7-7,7h-57.7v-14.3H347.1z"/>
					<path class="st63" d="M303.4,308.4c-4.3,0.1-8.9,2-9,6c-0.2,5.2,1.6,6.7,1.6,8.4c0,1.7-0.8,3.4-0.7,3.9
						c0.1,0.5,2.6-0.2,2.9,0.3c0.3,0.5,3,4,5.3,3.8c3-0.3,5.9-3.3,7.4-5.5c2.8-4.2,3.7-12.9-1.6-15.8
						C307.7,308.7,305.6,308.3,303.4,308.4z"/>
					<path class="st63" d="M313.2,333.4c-4.2-4.7-3.8-10.5-3.8-10.5s-4.9,0.2-3.8,2.8c1,2.7,0.2,9,0.2,9s-6.3,5.1-2.7,6.1
						c3.2,0.9,8.1-3.1,10.2-5.6C313.7,334.6,313.7,333.9,313.2,333.4z"/>
					<path class="st67" d="M292.3,317c0,0,0.2,1.5,7.9,1.1c2.6-0.5,2.3,3.4,3.1,6c0.6,2,1.5-1.1,3.4-3.7c1.9-2.6,3.6,2.4,1.3,3.8
						c-2.3,1.5,1.8,7.7-5.2,10.5c3,1.4,9.8-0.6,14.7-4.4c4.9-3.8-1.5-19.3-5.1-22.9C308.8,303.9,290.9,302.3,292.3,317z"/>
					<g>
						<rect x="256.3" y="386.1" class="st68" width="35.2" height="3.5"/>
						<polygon class="st69" points="236.9,366.5 259.3,366.5 271.8,389.6 249.5,389.6 						"/>
						<path class="st70" d="M255.2,378.1c0.6,1.6,0.2,2.8-0.8,2.8c-1.1,0-2.4-1.3-3-2.8c-0.6-1.6-0.2-2.8,0.8-2.8
							S254.6,376.6,255.2,378.1z"/>
						<path class="st71" d="M249.5,389.6h22.3l-3.1-5.6c-11.3,1.8-20.5-2.8-26-6.8L249.5,389.6z"/>
					</g>
					<polygon class="st72" points="302.6,418.8 307.6,418.8 305.3,421 					"/>
					<polygon class="st73" points="322.6,436.2 327.7,436.2 325.3,438.3 					"/>
					<polygon class="st72" points="328.1,421 336,421 332.3,424.3 					"/>
					<polygon class="st73" points="297.8,438.2 305.8,438.2 302,441.6 					"/>
					<polygon class="st72" points="287.3,413.5 293.8,413.5 290.8,416.3 					"/>
					<polygon class="st73" points="339.2,442.5 345.8,442.5 342.7,445.3 					"/>
					<path class="st64" d="M306.8,344.4c0,0,0.8,11.9,1.8,17.7c0.8,4.5-3,7.9-7.1,9.9c-0.2,1.5-0.7,4.3-1.3,7.1
						c6.6-1.3,19-3.9,19-4.9c0-1.3,2-14.1,1.1-16.8C319.5,354.6,308.2,344.2,306.8,344.4z"/>
					<path class="st64" d="M324.3,367.7c0-0.3,0-0.5,0.1-0.8c-1.7-0.3-3.5-0.6-3.8-0.4c-0.5,0.5-12.9,14.5-16.9,16.4
						c0,0,15-2.9,16.9-1.7c1.8,1.1,5,8.6,4.1,13.9c1.1-0.2,2.3-0.5,3.4-1C328.6,389.9,323.5,379.3,324.3,367.7z"/>
					<path class="st51" d="M323.6,355c-0.5-3.6-1-7.1-1.6-10.6c-0.8-4.5-5.4-7.3-9.8-6c-4.2,1.3-6.5,5.8-5.1,10
						c1.1,3.1,2.1,6.2,2.9,9.3c0.8,2.8,1.5,5.7,2,8.3c0.1,0.7,0.2,1.3,0.3,1.9c0.1,0.7,0.1,1.2,0.1,1.6l0,0.4c0,0.1,0,0.1,0,0.2
						l0,0.2c-0.5,0.4-1.2,0.8-2,1.2c-1.2,0.6-2.5,1.1-3.8,1.5c-2.7,0.9-5.6,1.7-8.5,2.4c-5.9,1.4-11.9,2.5-18,3.4l0.3,5.2
						c6.3,0.1,12.6-0.1,18.9-0.6c3.2-0.3,6.4-0.6,9.6-1.2c1.6-0.3,3.3-0.7,5-1.2c1.7-0.6,3.5-1.1,5.7-2.6c1.1-0.9,2.4-1.7,3.4-4
						c0.3-0.6,0.3-0.7,0.4-1.1l0.3-1l0.2-1l0.1-0.8c0.1-1,0.3-2.1,0.3-3c0-0.9,0.1-1.9,0-2.7C324.3,361.4,324,358.2,323.6,355z"/>
					<path class="st74" d="M310.5,316.2c-0.7-3-2.9-3-7.5-0.4c-3.5,1.9-8.4,0.2-10.7-0.8c0,0.7,0,1.3,0.1,2.1c0,0,0.2,1.5,7.9,1.1
						c2.6-0.5,2.3,3.4,3.1,6c0.6,2,1.5-1.1,3.4-3.7c1.9-2.6,3.6,2.4,1.3,3.8c-2.3,1.5,1.8,7.7-5.2,10.5c3,1.4,9.8-0.6,14.7-4.4
						c2.2-1.7,2.1-5.7,1.1-9.9C315.1,324.1,311.2,319.1,310.5,316.2z"/>
					<path class="st75" d="M280.4,417.5v3.1c0,2.4,1.2,4.4,3,5.7c-2.5-7.3,0.4-10.4,3.9-10.4c3.2,0,49.3,0,57.8,0v-5.4h-57.7
						C283.5,410.5,280.4,413.6,280.4,417.5z"/>
					<path class="st76" d="M347.1,432.7h-57.7v3.4c8.4,0,53.1,0,56.4,0c3,0,7,3.3,7.3,7.3c0.6-1,1-2.2,1-3.5v-0.3
						C354.1,435.8,350.9,432.7,347.1,432.7z"/>
				</g>
				<g>
					<path class="st63" d="M353.6,82.1v-0.7c0-2.7-3.3-3.9-5.1-1.9l-11.7,13c-0.4,0.3-0.8,0.6-1.3,0.8c-0.2,0.1-0.6,0.2-1,0.3
						l-1.2,0.3l-12.8,4.1c-1.2,0.4-2.4,0.5-3.6,0.2c-0.7-0.1-1.3-0.3-1.9-0.5c-1.6-0.7-2.3-1.4-3.5-1.1c-1.2,0.3-5.7,2.4-6.1,4.4
						c-0.4,2,4.5-1.1,5.6-1c1.2,0.1,1.7,1.9,3.2,1.7c1.5-0.2,15-1.7,15-1.7l5.1-0.6l1.3-0.1c0.4-0.1,0.8-0.1,1.5-0.2
						c1.1-0.2,2.3-0.7,3.3-1.2c0.5-0.3,1-0.6,1.5-1l1-0.8l2-1.6l4-3.1l0,0C351.5,89.5,353.6,85.3,353.6,82.1z"/>
					<path class="st77" d="M350.6,80.1c-0.5-0.3-1-0.7-1.5-1c-0.2,0.1-0.4,0.3-0.6,0.5l-7.6,8.5c0.2,2.5,0.5,6.2-0.1,7
						c-0.7,1.2-4.9,3.1-7.9,4.7l1.4-0.2l1.3-0.1c0.4-0.1,0.8-0.1,1.5-0.2c1.1-0.2,2.3-0.7,3.3-1.2c0.5-0.3,1-0.6,1.5-1l1-0.8l2-1.6
						l4-3.1c1.4-1.1,2.7-2.9,3.5-4.9C352.2,83.9,351.6,80.8,350.6,80.1z"/>
					<path class="st78" d="M331.2,59.6c0,0,9.2-6.2,17-0.7c6.9,4.9,11.5-2.3,16.3-0.9c4.9,1.4,3.9,8.7,8.8,11.5
						c3.1,1.7,6.4,2.8,10,2.5c3.5-0.3,6.8-1.2,9.2,2c2,2.8,2.9,6.5,2.9,9.9c0,4.6-3.1,7.5-7.2,8.9c-5.1,1.9-10.7,2.4-14.9-1.7
						c-4.5-4.4-3.4-6.8-9.6-8.4c-6.2-1.6-16.1,6.9-23.3-1.4c-4.5-4-1.6-13.6-3.8-16.1C334.4,62.7,329.5,62.9,331.2,59.6z"/>
					<path class="st79" d="M392.6,74c-2.4-3.2-5.7-2.3-9.2-2c-1,0.1-1.9,0-2.8-0.1c0.3,2.2-0.1,4.4-2.1,5.9
						c-4.6,3.3-11.8-6-14.4-8.8c-2.5-2.7-7.1-2.8-12,2.6c-3.6,4-10,6.7-13.1,7.8c0.4,0.8,0.9,1.4,1.5,2c7.2,8.2,17.1-0.3,23.3,1.4
						c6.2,1.6,5.2,4,9.6,8.4c4.1,4.1,9.7,3.6,14.9,1.7c4.1-1.5,7.2-4.4,7.2-8.9C395.4,80.6,394.6,76.8,392.6,74z"/>
					<path class="st63" d="M452,100.1c0,0,3.1-0.8,4.2-2.1c1.1-1.2,2.1-2.2,2.9-1.2c0.7,1,5.2,7.2,6.4,7.8c1.2,0.7,2.8,2.7,2.1,3.5
						c-0.7,0.8-4.7-0.9-7.1-3c-2.4-2.1-7.9-2-7.9-2L452,100.1z"/>
					<path class="st63" d="M435.8,70.9c0,0,1.6-2.8,1.4-4.5c-0.1-1.6-0.1-3.1,1.1-2.9c1.2,0.2,8.8,1.3,10.1,0.8
						c1.3-0.4,3.9-0.1,3.9,0.9c0.1,1.1-3.9,2.7-7.1,3c-3.1,0.3-6.9,4.3-6.9,4.3L435.8,70.9z"/>
					<path class="st80" d="M379.4,96.8c0,0,8.7-9.8,41.7-1.9c0.4-8.7,14.6-25.1,14.6-25.1l4.6,1.5c0,0-13.1,29.5-16,34.3
						c-4.4,0.8-27,4-44.1,1.6C377.5,103.8,379.4,96.8,379.4,96.8z"/>
					<path class="st53" d="M453,99.2l-6,0.2l0,0c0,0-9.6-1.3-13.8-1c-4.2,0.3-10.8,2-10.8,2s-17.8-8.6-26.5-10.2
						c-8.7-1.6-15.3,2.2-15.3,2.2c-1.7,4.6-2.3,11-0.4,14.8c6.3,2.4,35.3,0.8,41.6,0.8c6.3,0,32.1-3.6,32.1-3.6L453,99.2z"/>
					<path class="st81" d="M441.2,106c0,0-25.3,0.5-31.7,0c-6.4-0.5-24-2-24.2-5.6c-0.2-2.7-1.7-7-2.4-9.1c-1.5,0.5-2.3,1-2.3,1
						c-1.7,4.6-2.3,11-0.4,14.8c6.3,2.4,35.3,0.8,41.6,0.8C425.1,108,433.7,107,441.2,106z"/>
					<path class="st57" d="M350.1,73.2c0,0-4.8,2.8-5.1,6.4c-0.4,3.7-4.6,15.3,0,16.7c4.6,1.5,7.4-2,11,1.8c3.7,3.9,11,7.5,25.2,9.7
						c1.5-4.8,2-8.8,0-16.7c-2.9-1.3-6.8-0.9-13.8-7.4C360.4,77.5,355.3,69.9,350.1,73.2z"/>
					<path class="st63" d="M333.5,61.4c-2.9,1.7-5.4,4.7-3.9,7.6c1.9,3.9,3.7,4.3,4.3,5.6c0.7,1.3,0.8,2.8,1,3.1s1.7-1.1,2.1-0.8
						c0.4,0.3,3.6,1.9,5.1,0.9c2-1.3,2.8-4.5,3-6.7c0.3-4.1-2.5-10.7-7.2-10.9C336.6,60,335,60.5,333.5,61.4z"/>
					<path class="st63" d="M350,74.9c-4.4-1.2-7-4.9-7-4.9s-2.8,2-1.2,3.2c1.7,1.2,3.6,5.3,3.6,5.3s-2,7.7,0.6,6.9
						c2.3-0.7,4.5-7.1,4.7-9.5C350.7,75.4,350.4,75,350,74.9z"/>
					<path class="st78" d="M327.5,70.2c0,0,3,2.2,7.3-1.2c1-1.2,3.1,1.2,3.9,3.6c0.8,2.4,0.7-2.1,0.8-3.9c0.1-1.8,4.3,1.5,2.3,4.4
						c1,0.9,2.4,1.7,4.5-0.5c2.1-2.2,0.6-6.8-1.2-10c-1.8-3.3-5.2-6.9-10.8-4.6C328.6,60.4,324.1,64.8,327.5,70.2z"/>
					<g>
						<rect x="298.9" y="104.7" class="st54" width="27.8" height="2.7"/>
						<polygon class="st54" points="289.2,79.9 292.4,79.9 301.9,107.4 298.8,107.4 						"/>
					</g>
					<path class="st82" d="M381.2,108c0.3-1.1,0.6-2.2,0.9-3.3c-5.1-0.5-18.6-4.7-19.4-11c-0.4-11-5.6-15.1-5.6-15.1l-2,15.9
						c0,0,1.1,2.4,2.3,5C361.3,102.9,368.5,106,381.2,108z"/>
					<path class="st63" d="M358,80.1c-0.3-0.6-0.6-1.1-1-1.6c-1.5-1.9-4.8-1.9-5.9,0.1c-1.4,2.6-1.2,6.4-1.1,9.3
						c0.2,3.9,1.5,7.8,1.4,11.7c-1.1,0.1-5.5,0.9-6.6,1c-2.3,0.2-4.5,0.4-6.8,0.7c-2.4,0.3-5,0.9-7.4,1c0,0-2.7,0.1-4.2-0.6
						c-1.5-0.6-2.2-1.3-3.2-1c-1.1,0.3-5.3,2.2-5.7,4.1c-0.4,1.9,4.2-1.1,5.2-1c1.1,0.1,1.6,1.8,3,1.6c1.4-0.2,4.1-0.8,4.9-0.8
						c8.5,1.6,19.1,1.4,24,1.2c1.6-0.1,3-1.2,3.4-2.8C359.5,96.7,361.5,86.6,358,80.1z"/>
					<path class="st77" d="M355.5,102.8c-2.7,2.3-14,3-14.2,3c5.4,0.3,10.4,0.2,13.4,0.1c1.6-0.1,3-1.2,3.4-2.8
						c1.4-6.4,3.4-16.6-0.1-23c-0.3-0.6-0.6-1.1-1-1.6C357,78.6,361,96.1,355.5,102.8z"/>
				</g>
				<g>
					<path class="st57" d="M189.1,56.2c-4-7.3-21.4-6.7-21.4-6.7s-17.3-0.7-21.4,6.7c-2.9,5.2,2.7,23.3,4.2,34.6
						c3.7,0.7,13,1.8,17.2,1.8c4.2,0,13.5-1.1,17.2-1.8C186.3,79.6,192,61.5,189.1,56.2z"/>
					<path class="st82" d="M151.1,64.3c-1.7,0.6-3.1,3.6-4.3,7.2c1.2,6.5,3,13.8,3.7,19.3c3.7,0.7,13,1.8,17.2,1.8
						c4.2,0,13.5-1.1,17.2-1.8c0.4-3.2,1.2-7.1,2-11c-1.7-1.3-5.9-3-15.6-4.9C153.6,71.4,151.1,64.3,151.1,64.3z"/>
					<g>
						<path class="st57" d="M187.2,54c0,0,6.9,5.9,9.9,21.4c2.6,13.4-8,14.7-12.2,16.1c-2.9,0.5-0.5-6.7-0.5-6.7l5.5-3.7
							c0,0-4.4-12.3-5.7-16.9C182.9,59.7,187.2,54,187.2,54z"/>
						<path class="st82" d="M191.3,80.6c-1.3-0.2-3.2-4.4-3.2-4.5c1,2.8,1.8,5,1.8,5l-5.5,3.7c0,0-0.4,1.4-0.7,2.9
							c6.1-1.5,7.8-5.2,8.4-5.4C192.6,82.2,192.6,80.8,191.3,80.6z"/>
					</g>
					<g>
						<path class="st57" d="M148.2,54c0,0-6.9,5.9-9.9,21.4c-2.6,13.4,8,14.7,12.2,16.1c2.9,0.5,0.5-6.7,0.5-6.7l-5.5-3.7
							c0,0,4.4-12.3,5.7-16.9C152.5,59.7,148.2,54,148.2,54z"/>
						<path class="st82" d="M144,80.6c1.3-0.2,3.2-4.4,3.2-4.5c-1,2.8-1.8,5-1.8,5l5.5,3.7c0,0,0.4,1.4,0.7,2.9
							c-6.1-1.5-7.8-5.2-8.4-5.4C142.7,82.2,142.7,80.8,144,80.6z"/>
					</g>
					<path class="st83" d="M195.4,139.4c0,0,0.4,4,4.8,5.6c4.4,1.6,6.8,1.1,7.2,2.9c0.4,1.8,0,1.9,0,1.9s-11.6,0.5-14.6,0
						c-3-0.5-1.1-9.8-1.1-9.8L195.4,139.4z"/>
					<path class="st83" d="M140.4,139.4c0,0-0.4,4-4.8,5.6c-4.4,1.6-6.8,1.1-7.2,2.9c-0.4,1.8,0,1.9,0,1.9s11.6,0.5,14.6,0
						c3-0.5,1.1-9.8,1.1-9.8L140.4,139.4z"/>
					<path class="st84" d="M197.9,102.9c-0.2-4.3-3-8.1-7-9.6c-4.2-1.6-8.2-2.5-8.2-2.5l-15-1.6l-15,1.6c0,0-4,0.9-8.2,2.5
						c-4.1,1.5-6.8,5.3-7,9.6c-0.5,10.7,0.6,30.2,1,38c2.3,1.7,6.5,1.1,6.5,1.1s3.8-14.6,4-27.8c1.2-8.3,6.2-11.5,18.7-11.5
						c12.5,0,17.6,3.2,18.7,11.5c0.2,13.2,4,27.8,4,27.8s4.2,0.6,6.5-1.1C197.3,133.1,198.4,113.6,197.9,102.9z"/>
					<path class="st63" d="M171.4,49.3c-1.2-0.8-1.5-4.6-1.5-4.6s-3.2-0.7-4,0c0.2,2.5-1.5,4.6-1.5,4.6c-2.7,3.1,1.5,4.7,3.5,4.7
						c2,0,4.3-1.1,4.7-2.5S171.4,49.3,171.4,49.3z"/>
					<path class="st77" d="M165.9,44.7c0.1,0.8-0.1,1.6-0.3,2.3c1.5,0.8,3.6,1.7,5.4,1.8c-0.9-1.3-1.1-4.1-1.1-4.1
						S166.7,44.1,165.9,44.7z"/>
					<path class="st63" d="M175.8,28.8c-3.1-5.6-12.9-5.6-16,0c-1.4,2.5-0.9,6-0.2,8.5c1,3.6,3.2,6.9,6.4,8.6
						c0.8,0.4,2.3,0.5,3.3,0.2c3.4-1.1,5.3-4.6,6.4-7.9c0.9-2.7,1.6-6.5,0.2-9.2C175.9,29,175.8,28.9,175.8,28.8z"/>
					<path class="st63" d="M175.4,37.1c0,0,1.8-2.1,2.9-0.9c1.1,1.3-1.3,4.8-2.5,4.9C174.5,41.2,174.3,39.2,175.4,37.1z"/>
					<path class="st63" d="M160.1,37.1c0,0-1.8-2.1-2.9-0.9c-1.1,1.3,1.3,4.8,2.5,4.9C161,41.2,161.2,39.2,160.1,37.1z"/>
					<path class="st83" d="M161.5,31.3c0,0,11.2,5.3,16.3,3c3.2-1.7,4.6-8.4,3.3-9.7c-1.3-1.2-2.3-0.9-3.8-0.7
						c-1.6,0.2-2.8-1.7-3.7-2.7c-0.9-1.1-0.7-0.3-2.5,0.6c-1.9,1-4.2,0.1-6.2,0.4c-3.8,0.6-6.1,3.6-7.1,7.1
						c-0.5,1.7-0.6,3.6-0.2,5.4c0.1,0.6,2.8,6.2,3.1,5.8C162.4,38.5,162.4,35.9,161.5,31.3z"/>
					<path class="st83" d="M174.1,32.8c0,0-1.3,6.1,0.6,7.7c1.5-2.5,2.4-4.9,2.4-7.2S174.1,32.8,174.1,32.8z"/>
					<path class="st85" d="M169.8,39.7c-0.3-0.7-1.2-2.1-1.7-3c-0.2-0.3-0.5-0.2-0.6,0.1c-0.4,1.2-1,3.6-0.5,3.7
						C167.8,40.6,170.3,40.7,169.8,39.7z"/>
					<path class="st86" d="M177.9,34.3c2.2-1.2,3.6-4.8,3.8-7.3c-1,2.1-3.2,5.5-6.9,5.2c-5.3-0.5-8.2-2.7-10.6-3.4s-4.2,0.7-4.5,3.4
						c-0.1,1.5-1.1,1.6-2.1,1.3c0,0.4,0.1,0.8,0.2,1.1c0.1,0.6,2.8,6.2,3.1,5.8c1.6-2,1.6-4.5,0.7-9.1
						C161.5,31.3,172.8,36.6,177.9,34.3z"/>
					<path class="st87" d="M190.7,137.5c-1.4-1.9-1.4-18.1-1.9-23c-0.4-4.9-1-5.5,1.1-7c2.1-1.5-2.1-1.2-3.9-1.5
						c-1.8-0.3-4.5-3.4-6.9-4.5c-2.4-1.1-6.6-1.1-5.7-2.2c1-1.1,3.8-1.5,2.3-1.9c-1.5-0.4-3.2-1.5-1.6-2.2s11.9-2.7,11.9-2.7
						c0.3-0.2,1.5-0.2,1.7-0.5c-2.8-0.9-5-1.4-5-1.4l-15-1.6l-15,1.6c0,0-2.2,0.5-5,1.4c0.2,0.3,1.4,0.2,1.7,0.5
						c0,0,10.3,2.1,11.9,2.7s-0.1,1.8-1.6,2.2c-1.5,0.4,1.3,0.8,2.3,1.9c1,1.1-3.2,1.1-5.7,2.2c-2.4,1.1-5.1,4.2-6.9,4.5
						c-1.8,0.3-6,0-3.9,1.5c2.1,1.5,1.5,2.2,1.1,7c-0.4,4.9-0.4,21.1-1.9,23c-0.9,1.3-3.8,1.3-6.3,1.5c0,0.7,0.1,1.3,0.1,1.9
						c2.3,1.7,6.5,1.1,6.5,1.1s3.8-14.6,4-27.8c1.2-8.3,6.2-11.5,18.7-11.5c12.5,0,17.6,3.2,18.7,11.5c0.2,13.2,4,27.8,4,27.8
						s4.2,0.6,6.5-1.1c0-0.6,0.1-1.2,0.1-1.9C194.5,138.9,191.6,138.8,190.7,137.5z"/>
					<g>
						<polygon class="st88" points="185.3,92.6 150,92.6 146.5,72.1 188.8,72.1 						"/>
						<path class="st89" d="M171.2,83.5c-0.4,1.1-1.9,1.8-3.5,1.8c-1.5,0-3.1-0.7-3.5-1.8c-0.5-1.4,0.9-2.9,3.5-2.9
							C170.2,80.6,171.7,82.1,171.2,83.5z"/>
						<path class="st90" d="M150,92.6h35.3l0.4-2.1c-18.3,0.2-32.1-9.7-38.6-15.4L150,92.6z"/>
					</g>
				</g>
				<g>
					<g>
						<path class="st1" d="M204.8,266.6H64.2c-6,0-10.8,4.8-10.8,10.8v89.1c0,6,4.8,10.8,10.8,10.8h140.6c6,0,10.8-4.8,10.8-10.8
							v-89.1C215.6,271.4,210.7,266.6,204.8,266.6z"/>
						<path class="st2" d="M205,266.4H64.4c-6,0-10.8,4.8-10.8,10.8v89.1c0,6,4.8,10.8,10.8,10.8H205c6,0,10.8-4.8,10.8-10.8v-89.1
							C215.8,271.3,210.9,266.4,205,266.4z"/>
						<path class="st3" d="M205.1,266.2H64.6c-6,0-10.8,4.8-10.8,10.8v89.1c0,6,4.8,10.8,10.8,10.8h140.6c6,0,10.8-4.8,10.8-10.8
							V277C215.9,271.1,211.1,266.2,205.1,266.2z"/>
						<path class="st4" d="M205.3,266.1H64.8c-6,0-10.8,4.8-10.8,10.8V366c0,6,4.8,10.8,10.8,10.8h140.6c6,0,10.8-4.8,10.8-10.8
							v-89.1C216.1,270.9,211.3,266.1,205.3,266.1z"/>
						<path class="st5" d="M205.5,265.9H64.9c-6,0-10.8,4.8-10.8,10.8v89.1c0,6,4.8,10.8,10.8,10.8h140.6c6,0,10.8-4.8,10.8-10.8
							v-89.1C216.3,270.7,211.5,265.9,205.5,265.9z"/>
						<path class="st6" d="M205.7,265.7H65.1c-6,0-10.8,4.8-10.8,10.8v89.1c0,6,4.8,10.8,10.8,10.8h140.6c6,0,10.8-4.8,10.8-10.8
							v-89.1C216.5,270.5,211.7,265.7,205.7,265.7z"/>
						<path class="st7" d="M205.9,265.5H65.3c-6,0-10.8,4.8-10.8,10.8v89.1c0,6,4.8,10.8,10.8,10.8h140.6c6,0,10.8-4.8,10.8-10.8
							v-89.1C216.7,270.3,211.8,265.5,205.9,265.5z"/>
						<path class="st8" d="M206.1,265.3H65.5c-6,0-10.8,4.8-10.8,10.8v89.1c0,6,4.8,10.8,10.8,10.8h140.6c6,0,10.8-4.8,10.8-10.8
							v-89.1C216.9,270.2,212,265.3,206.1,265.3z"/>
						<path class="st9" d="M206.2,265.1H65.7c-6,0-10.8,4.8-10.8,10.8v89.1c0,6,4.8,10.8,10.8,10.8h140.6c6,0,10.8-4.8,10.8-10.8
							v-89.1C217,270,212.2,265.1,206.2,265.1z"/>
						<path class="st10" d="M206.4,265H65.9c-6,0-10.8,4.8-10.8,10.8v89.1c0,6,4.8,10.8,10.8,10.8h140.6c6,0,10.8-4.8,10.8-10.8
							v-89.1C217.2,269.8,212.4,265,206.4,265z"/>
						<path class="st11" d="M206.6,264.8H66c-6,0-10.8,4.8-10.8,10.8v89.1c0,6,4.8,10.8,10.8,10.8h140.6c6,0,10.8-4.8,10.8-10.8
							v-89.1C217.4,269.6,212.6,264.8,206.6,264.8z"/>
						<path class="st12" d="M206.8,264.6H66.2c-6,0-10.8,4.8-10.8,10.8v89.1c0,6,4.8,10.8,10.8,10.8h140.6c6,0,10.8-4.8,10.8-10.8
							v-89.1C217.6,269.4,212.8,264.6,206.8,264.6z"/>
						<path class="st13" d="M207,264.4H66.4c-6,0-10.8,4.8-10.8,10.8v89.1c0,6,4.8,10.8,10.8,10.8H207c6,0,10.8-4.8,10.8-10.8v-89.1
							C217.8,269.2,212.9,264.4,207,264.4z"/>
						<path class="st14" d="M207.2,264.2H66.6c-6,0-10.8,4.8-10.8,10.8v89.1c0,6,4.8,10.8,10.8,10.8h140.6c6,0,10.8-4.8,10.8-10.8
							V275C217.9,269.1,213.1,264.2,207.2,264.2z"/>
						<path class="st15" d="M207.3,264H66.8c-6,0-10.8,4.8-10.8,10.8V364c0,6,4.8,10.8,10.8,10.8h140.6c6,0,10.8-4.8,10.8-10.8
							v-89.1C218.1,268.9,213.3,264,207.3,264z"/>
						<path class="st16" d="M207.5,263.9H67c-6,0-10.8,4.8-10.8,10.8v89.1c0,6,4.8,10.8,10.8,10.8h140.6c6,0,10.8-4.8,10.8-10.8
							v-89.1C218.3,268.7,213.5,263.9,207.5,263.9z"/>
						<path class="st17" d="M207.7,263.7H67.1c-6,0-10.8,4.8-10.8,10.8v89.1c0,6,4.8,10.8,10.8,10.8h140.6c6,0,10.8-4.8,10.8-10.8
							v-89.1C218.5,268.5,213.7,263.7,207.7,263.7z"/>
						<path class="st18" d="M207.9,263.5H67.3c-6,0-10.8,4.8-10.8,10.8v89.1c0,6,4.8,10.8,10.8,10.8h140.6c6,0,10.8-4.8,10.8-10.8
							v-89.1C218.7,268.3,213.9,263.5,207.9,263.5z"/>
						<path class="st19" d="M208.1,263.3H67.5c-6,0-10.8,4.8-10.8,10.8v89.1c0,6,4.8,10.8,10.8,10.8h140.6c6,0,10.8-4.8,10.8-10.8
							v-89.1C218.9,268.1,214,263.3,208.1,263.3z"/>
						<path class="st20" d="M208.3,263.1H67.7c-6,0-10.8,4.8-10.8,10.8v89.1c0,6,4.8,10.8,10.8,10.8h140.6c6,0,10.8-4.8,10.8-10.8
							v-89.1C219,268,214.2,263.1,208.3,263.1z"/>
						<path class="st21" d="M208.4,262.9H67.9c-6,0-10.8,4.8-10.8,10.8v89.1c0,6,4.8,10.8,10.8,10.8h140.6c6,0,10.8-4.8,10.8-10.8
							v-89.1C219.2,267.8,214.4,262.9,208.4,262.9z"/>
						<path class="st22" d="M208.6,262.8H68.1c-6,0-10.8,4.8-10.8,10.8v89.1c0,6,4.8,10.8,10.8,10.8h140.6c6,0,10.8-4.8,10.8-10.8
							v-89.1C219.4,267.6,214.6,262.8,208.6,262.8z"/>
						<path class="st23" d="M208.8,262.6H68.2c-6,0-10.8,4.8-10.8,10.8v89.1c0,6,4.8,10.8,10.8,10.8h140.6c6,0,10.8-4.8,10.8-10.8
							v-89.1C219.6,267.4,214.8,262.6,208.8,262.6z"/>
						<path class="st24" d="M209,262.4H68.4c-6,0-10.8,4.8-10.8,10.8v89.1c0,6,4.8,10.8,10.8,10.8H209c6,0,10.8-4.8,10.8-10.8v-89.1
							C219.8,267.2,214.9,262.4,209,262.4z"/>
						<path class="st25" d="M209.2,262.2H68.6c-6,0-10.8,4.8-10.8,10.8v89.1c0,6,4.8,10.8,10.8,10.8h140.6c6,0,10.8-4.8,10.8-10.8
							V273C220,267,215.1,262.2,209.2,262.2z"/>
						<path class="st26" d="M209.4,262H68.8c-6,0-10.8,4.8-10.8,10.8V362c0,6,4.8,10.8,10.8,10.8h140.6c6,0,10.8-4.8,10.8-10.8
							v-89.1C220.1,266.9,215.3,262,209.4,262z"/>
						<path class="st27" d="M209.5,261.8H69c-6,0-10.8,4.8-10.8,10.8v89.1c0,6,4.8,10.8,10.8,10.8h140.6c6,0,10.8-4.8,10.8-10.8
							v-89.1C220.3,266.7,215.5,261.8,209.5,261.8z"/>
						<path class="st28" d="M209.7,261.7H69.2c-6,0-10.8,4.8-10.8,10.8v89.1c0,6,4.8,10.8,10.8,10.8h140.6c6,0,10.8-4.8,10.8-10.8
							v-89.1C220.5,266.5,215.7,261.7,209.7,261.7z"/>
						<path class="st29" d="M209.9,261.5H69.3c-6,0-10.8,4.8-10.8,10.8v89.1c0,6,4.8,10.8,10.8,10.8h140.6c6,0,10.8-4.8,10.8-10.8
							v-89.1C220.7,266.3,215.9,261.5,209.9,261.5z"/>
						<path class="st30" d="M210.1,261.3H69.5c-6,0-10.8,4.8-10.8,10.8v89.1c0,6,4.8,10.8,10.8,10.8h140.6c6,0,10.8-4.8,10.8-10.8
							v-89.1C220.9,266.1,216,261.3,210.1,261.3z"/>
						<path class="st31" d="M210.3,261.1H69.7c-6,0-10.8,4.8-10.8,10.8V361c0,6,4.8,10.8,10.8,10.8h140.6c6,0,10.8-4.8,10.8-10.8
							v-89.1C221.1,265.9,216.2,261.1,210.3,261.1z"/>
						<path class="st32" d="M210.5,260.9H69.9c-6,0-10.8,4.8-10.8,10.8v89.1c0,6,4.8,10.8,10.8,10.8h140.6c6,0,10.8-4.8,10.8-10.8
							v-89.1C221.2,265.8,216.4,260.9,210.5,260.9z"/>
						<path class="st33" d="M210.6,260.7H70.1c-6,0-10.8,4.8-10.8,10.8v89.1c0,6,4.8,10.8,10.8,10.8h140.6c6,0,10.8-4.8,10.8-10.8
							v-89.1C221.4,265.6,216.6,260.7,210.6,260.7z"/>
						<path class="st34" d="M210.8,260.6H70.3c-6,0-10.8,4.8-10.8,10.8v89.1c0,6,4.8,10.8,10.8,10.8h140.6c6,0,10.8-4.8,10.8-10.8
							v-89.1C221.6,265.4,216.8,260.6,210.8,260.6z"/>
						<path class="st35" d="M211,260.4H70.4c-6,0-10.8,4.8-10.8,10.8v89.1c0,6,4.8,10.8,10.8,10.8H211c6,0,10.8-4.8,10.8-10.8v-89.1
							C221.8,265.2,217,260.4,211,260.4z"/>
						<path class="st36" d="M211.2,260.2H70.6c-6,0-10.8,4.8-10.8,10.8v89.1c0,6,4.8,10.8,10.8,10.8h140.6c6,0,10.8-4.8,10.8-10.8
							V271C222,265,217.1,260.2,211.2,260.2z"/>
						<path class="st37" d="M211.4,260H70.8c-6,0-10.8,4.8-10.8,10.8v89.1c0,6,4.8,10.8,10.8,10.8h140.6c6,0,10.8-4.8,10.8-10.8
							v-89.1C222.2,264.8,217.3,260,211.4,260z"/>
						<path class="st38" d="M211.6,259.8H71c-6,0-10.8,4.8-10.8,10.8v89.1c0,6,4.8,10.8,10.8,10.8h140.6c6,0,10.8-4.8,10.8-10.8
							v-89.1C222.3,264.7,217.5,259.8,211.6,259.8z"/>
						<path class="st39" d="M211.7,259.6H71.2c-6,0-10.8,4.8-10.8,10.8v89.1c0,6,4.8,10.8,10.8,10.8h140.6c6,0,10.8-4.8,10.8-10.8
							v-89.1C222.5,264.5,217.7,259.6,211.7,259.6z"/>
						<path class="st40" d="M211.9,259.5H71.4c-6,0-10.8,4.8-10.8,10.8v89.1c0,6,4.8,10.8,10.8,10.8h140.6c6,0,10.8-4.8,10.8-10.8
							v-89.1C222.7,264.3,217.9,259.5,211.9,259.5z"/>
						<path class="st41" d="M212.1,259.3H71.5c-6,0-10.8,4.8-10.8,10.8v89.1c0,6,4.8,10.8,10.8,10.8h140.6c6,0,10.8-4.8,10.8-10.8
							v-89.1C222.9,264.1,218.1,259.3,212.1,259.3z"/>
						<path class="st42" d="M212.3,259.1H71.7c-6,0-10.8,4.8-10.8,10.8V359c0,6,4.8,10.8,10.8,10.8h140.6c6,0,10.8-4.8,10.8-10.8
							v-89.1C223.1,263.9,218.2,259.1,212.3,259.1z"/>
						<path class="st43" d="M212.5,258.9H71.9c-6,0-10.8,4.8-10.8,10.8v89.1c0,6,4.8,10.8,10.8,10.8h140.6c6,0,10.8-4.8,10.8-10.8
							v-89.1C223.3,263.7,218.4,258.9,212.5,258.9z"/>
						<path class="st44" d="M212.7,258.7H72.1c-6,0-10.8,4.8-10.8,10.8v89.1c0,6,4.8,10.8,10.8,10.8h140.6c6,0,10.8-4.8,10.8-10.8
							v-89.1C223.4,263.6,218.6,258.7,212.7,258.7z"/>
						<path class="st45" d="M212.8,258.5H72.3c-6,0-10.8,4.8-10.8,10.8v89.1c0,6,4.8,10.8,10.8,10.8h140.6c6,0,10.8-4.8,10.8-10.8
							v-89.1C223.6,263.4,218.8,258.5,212.8,258.5z"/>
						<path class="st46" d="M213,258.4H72.5c-6,0-10.8,4.8-10.8,10.8v89.1c0,6,4.8,10.8,10.8,10.8H213c6,0,10.8-4.8,10.8-10.8v-89.1
							C223.8,263.2,219,258.4,213,258.4z"/>
						<path class="st47" d="M213.2,258.2H72.6c-6,0-10.8,4.8-10.8,10.8v89.1c0,6,4.8,10.8,10.8,10.8h140.6c6,0,10.8-4.8,10.8-10.8
							V269C224,263,219.2,258.2,213.2,258.2z"/>
						<path class="st48" d="M213.4,258H72.8c-6,0-10.8,4.8-10.8,10.8v89.1c0,6,4.8,10.8,10.8,10.8h140.6c6,0,10.8-4.8,10.8-10.8
							v-89.1C224.2,262.8,219.3,258,213.4,258z"/>
					</g>
					<g>
						<path class="st1" d="M213.4,258H72.8c-6,0-10.8,4.8-10.8,10.8v89.1c0,6,4.8,10.8,10.8,10.8h140.6c6,0,10.8-4.8,10.8-10.8
							v-89.1C224.1,262.8,219.3,258,213.4,258z"/>
						<path class="st53" d="M213.4,258H72.8c-6,0-10.8,4.8-10.8,10.8v15.1h162.1v-15.1C224.1,262.8,219.3,258,213.4,258z"/>
						<circle class="st56" cx="92.5" cy="270.9" r="3.7"/>
						<circle class="st55" cx="76.4" cy="270.9" r="3.7"/>
						<circle class="st54" cx="108.6" cy="270.9" r="3.7"/>
						<rect x="74" y="299.5" class="st52" width="9.6" height="44.4"/>
						<rect x="89.5" y="309.8" class="st51" width="9.6" height="34.1"/>
						<rect x="104.9" y="304.4" class="st54" width="9.6" height="39.4"/>
						<rect x="120.3" y="318.1" class="st59" width="9.6" height="26.3"/>
						<circle class="st54" cx="156.9" cy="305.1" r="11.9"/>
						<rect x="179.2" y="303" class="st51" width="31.6" height="4.1"/>
						<rect x="147.6" y="321.2" class="st84" width="63.1" height="4.1"/>
						<rect x="147.6" y="330.5" class="st84" width="63.1" height="4.1"/>
						<rect x="147.6" y="339.8" class="st84" width="63.1" height="4.1"/>
						<rect x="84.5" y="354" class="st51" width="22" height="4.1"/>
						<rect x="74" y="352" class="st52" width="8.2" height="8.2"/>
						<rect x="124.9" y="354" class="st51" width="22" height="4.1"/>
						<rect x="114.5" y="352" class="st54" width="8.2" height="8.2"/>
					</g>
				</g>
				<g>
					<path class="st83" d="M483.5,456.6c-0.1,0.3,0.1,4-4,5.1c-4.1,1.1-7.1,1.4-7.6,2.8c-0.5,1.4,0,1.4,0,1.4s12.7,0,15.2-0.8
						c0.8-1.3,0.5-8.6,0.5-8.6H483.5z"/>
					<path class="st83" d="M509.8,456.6c0,0.3,1,4-2.9,5.2c-3.9,1.2-6.8,1.5-7,3c-0.2,1.4,0.3,1.4,0.3,1.4s12.7-0.3,15.1-1.1
						c0.5-1.3-1.3-8.6-1.3-8.6L509.8,456.6z"/>
					<path class="st91" d="M479.7,367c0,0-2.7,47.4-1.8,56.7c0.9,9.3,4.9,34,4.9,34h5.5l-1.5-35.4c0,0,4.4-23.8,6.2-27.9
						c3.6,7.3,6,29.5,6,29.5l9.8,33.8h6.4c0,0-7-34.3-6.7-35.2c0.3-0.9,3.4-36.5-4.3-53.4C496.5,365.9,479.7,367,479.7,367z"/>
					<path class="st92" d="M479.2,376.6c3.7,1.6,13.6,5.7,19.3,5.9c5.8,0.2,9.6,11.1,11.1,18.4c-0.2-10.2-1.2-21.9-4.4-30.1
						c-6,0.5-16.3,1.5-18.2,2.1c-2.8,0.8-5.9-4.5-6.6-4c-0.2,0.1-0.4,0.2-0.7,0.4C479.5,370.9,479.4,373.5,479.2,376.6z"/>
					<path class="st63" d="M525.6,376c0,0-1.9,3.5-3.8,5.2c-1.9,1.7,1,1,2.6-0.9c0.7-0.7,0.9,2.1,0.1,3c-0.7,0.9-2.6,2-2.8,2.2
						c-0.2,0.2,2.2-0.2,3.7-1.2c-0.7,1.3-3.3,2.5-3.1,3c0.2,0.4,3.2,0.4,5.4-1.5c2.3-1.9,1.2-8.7,1-9.5
						C528.6,375.6,525.6,376,525.6,376z"/>
					<path class="st63" d="M474.5,296.8c0,0,4.8-1,7-1.4c2.3-0.4-1.3-0.9-3.4-1.3c0.2-1.3,3.7-4.9,5-6.2c1.3-1.2-1.4-0.2-3,1.2
						c-1,1-1.5,1.3-1.5,1.3s2.5-4.9,2.2-5.8c-0.3-0.9-5,1.7-6.2,2.9c-1.3,1.2-2.5,6.8-2.5,6.8L474.5,296.8z"/>
					<path class="st50" d="M528.8,345.8c-0.3-0.8-0.4-1.5-0.8-2.5c-0.4-0.9-1-2-1.4-2.6c-0.9-1.4-1.8-2.5-2.7-3.6
						c-1.8-2.1-3.7-4.1-5.5-6c-1.7-1.7-3.5-3.4-5.3-5.1c0,0-0.1-0.1-0.1-0.1c-3.1-4.8-18.7-4.2-18.7-4.2s-13.1,1.3-13.7,1.2
						c-2.2-0.3-4.4-0.7-6.5-1.1c0-0.1-6-1.7-6.4-1.9c-0.5-0.2-1-0.3-1.4-0.7c-0.9-1,0.3-3.5,0.6-4.5c0.7-2,1.6-4.1,2.5-6.1
						c2-4.1,4.3-8.2,6.7-12.1l-4.2-3.2c-3.2,3.7-6.1,7.5-8.9,11.6c-1.4,2.1-2.7,4.2-3.9,6.5c-1.1,2.4-2.4,4.7-2.6,8.7
						c0,1,0.2,2.3,0.7,3.6c0.3,0.6,0.9,1.5,1.1,1.8l1,1.1c1.3,1.3,2.6,2.2,3.9,3c2.5,1.5,4.9,2.5,7.3,3.5c1.9,0.7,3.7,1.4,5.5,2
						c0.3,6.1,1.9,13.7,2.3,20.2c0.7,11.1,0.7,19.6,0.7,19.6s16.3,5.2,28.7,0.3c0.6-6.8,2-22.3,3.8-32.8c1.4,1,5.8,4.4,6.4,4.9
						c0.4,0.4,0.4,0.4,0.6,0.6c0.2,0.2,0.4,0.7,0.6,1c1.6,3.6,2.6,8.7,3.4,13.5c0.8,4.8,1.4,9.8,1.8,14.8l5.3,0
						c0.4-5.1,0.7-10.2,0.7-15.4C530.2,356.8,530.2,351.8,528.8,345.8z M466,319.7c0-0.1,0-0.2,0-0.3c0,0,0.1,0.1,0.1,0.1
						C466.1,319.8,466,319.9,466,319.7z"/>
					<path class="st63" d="M497.7,321.4c-0.4-2-0.3-5-0.3-5l-4.3,0.6c0,0,0.1,3.9-2.2,5.6c-0.7,3.1,2.7,3.9,6.1,1.1
						C497.6,323.2,497.9,322.3,497.7,321.4z"/>
					<path class="st93" d="M494.3,325.3c0,0-0.5-1.6,0.5-2.4c1.1-0.8,2.6-1.5,3-2.5c0.7,0.6,1.3,1.6,1.2,2.4
						c-0.1,0.8-3.5,4.1-3.5,4.1L494.3,325.3z"/>
					<path class="st93" d="M492.1,321.2c0,0-0.7,1.5,0.3,2.3c0.3,0.4,0.6,2.6-0.6,3.3c0,0-1.9-1.8-2.2-3.5
						C489.6,321.9,491.2,321,492.1,321.2z"/>
					<circle class="st93" cx="493.3" cy="331" r="1"/>
					<circle class="st93" cx="492.7" cy="337.4" r="1"/>
					<path class="st94" d="M476.8,330.4c-0.2-1.2-12,0.6-17.6-6.7c-1.3-2-1.9-5.8-1.8-8.5c-0.5,1.4-0.9,3-1,5.1c0,1,0.2,2.3,0.7,3.6
						c0.3,0.6,0.9,1.5,1.1,1.8l1,1.1c1.3,1.3,2.6,2.2,3.9,3c2.5,1.5,4.9,2.5,7.3,3.5c1.9,0.7,3.7,1.4,5.5,2
						C475.9,335.3,477,331.6,476.8,330.4z"/>
					<path class="st77" d="M493.1,317c0,0,0,1.2-0.3,2.5c1.3,0.6,3,0.9,4.8,0.6c-0.2-1.8-0.1-3.7-0.1-3.7L493.1,317z"/>
					<path class="st63" d="M505.8,305.4c-0.3-1-0.8-1.9-1.5-2.8c-1.6-1.9-4.1-2.9-6.5-2.6c-4.7,0.6-7,4.3-8.5,8.2
						c-1.6,3.9-2.7,6.3-0.7,8.2c2.1,1.9,7.1,1.5,11.2,0.3C504.4,315.3,507.2,309.9,505.8,305.4z"/>
					<path class="st91" d="M491.7,300c0,0,0.1,4.8,8.4,7.8c0.7,1.2-0.8,4-3.2,4.8c-2.4,0.9,1.5,1.1,3.4,0c1.8-1.1,1.6,2,0,2.2
						c-1.6,0.2-3.5,1.6-3.1,2.5c0.4,1,3.7,1.2,7.6-2c3.9-3.2,5.6-8.6,4.8-11.3c-0.6-2.1-2.7-3.8-4.5-5c-2.1-1.4-4.6-2.1-6.6-3.6
						c-0.4-0.3-1.4-1-1.3,0c0.2,1.8-0.6,0.7-1.6,0.1c-1-0.6-1.9-0.7-1.6,0.7c0.3,1.3-0.2,0.7-1.3,0.2S491.5,298.3,491.7,300z"/>
					<path class="st92" d="M507.4,312.2c-2.3-0.3-3.9-2.4-3.2-4.3c0.9-2.2-0.1-2.1-5.3-3c-4.5-0.8-6.7-6.3-7.2-7.8
						c-0.2,0.7-0.1,1.9-0.1,2.8c0,0,0.1,4.8,8.4,7.8c0.7,1.2-0.8,4-3.2,4.8c-2.4,0.9,1.5,1.1,3.4,0c1.8-1.1,1.6,2,0,2.2
						c-1.6,0.2-3.5,1.6-3.1,2.5c0.4,1,3.7,1.2,7.6-2C505.8,314.5,506.7,313.4,507.4,312.2z"/>
					<path class="st94" d="M521.7,350.4c-0.4-1.5,1.2-3.2,1.1-4c-0.1-0.8-2.2,0.3-3.1-0.9c-1-1.1-7.2-9.9-7.5-9.1
						c0,0-2.8,2.2-3.5,7.1c-0.7,4.9-2.1,16.6-4.2,18.5c-2.1,1.9-12.6,4.1-7.5,4.8c5.1,0.7,8.1,2,7.3,3.5c-0.7,1.5-3.6,7-25.6,3.8
						c0,0.6,0,0.9,0,0.9s16.3,5.2,28.7,0.3c0.6-6.8,2-22.3,3.8-32.8c0.1,0.1,0.2,0.2,0.4,0.3c0,0,0.1,0.1,0.1,0.1
						c0.1,0.1,0.2,0.2,0.3,0.2c0,0,0.1,0.1,0.1,0.1c0.1,0.1,0.3,0.2,0.4,0.3c0,0,0,0,0.1,0c0.2,0.1,0.4,0.3,0.6,0.4l0,0
						c1.8,1.4,3.9,3.1,4.3,3.5c0.4,0.4,0.4,0.4,0.6,0.6c0.2,0.2,0.4,0.7,0.6,1c1.6,3.6,2.6,8.7,3.4,13.5c0.7,4.2,1.2,8.5,1.6,12.7
						c0,0,0-0.1,0-0.1C524.4,369.3,522.1,351.9,521.7,350.4z"/>
					<path class="st92" d="M485.7,415.4c-0.5,4.9-3,6.2-3.3,6.6c-0.3,0.5,2.7,1.3,3.3,3.5c0.6,2.2,2.2,20.2,2.2,20.2l-1-23.5
						c0,0,4.4-23.8,6.2-27.9c0,0-2.3-2.6-3.4-4.3C488.7,388.3,486.1,410.5,485.7,415.4z"/>
				</g>
				<g>
					<path class="st83" d="M82.7,477.8c-1.1-1.8-6.7-0.5-9.6-2.2c-2.3-1.3-2.2-4.9-2.2-4.9l-4.6-0.7c0,0-1.3,5.3-1.3,8.8
						c0,1,0.7,1.8,1.7,2c9.4,1.5,16.6,0.5,16.6,0.5S83.8,479.5,82.7,477.8z"/>
					<path class="st83" d="M53.9,475.3c-1.1-1.7-5.9-1.6-8.7-3.2c-2.2-1.3-1.6-4.7-1.6-4.7l-4.4-0.7c0,0-1.8,5-1.9,8.5
						c0,1,0.7,1.8,1.6,1.9c9.1,1.4,15.5,1.6,15.5,1.6S55,477,53.9,475.3z"/>
					<path class="st53" d="M77,432.5l-3-46.9l-26.3-0.4c0,0-2.7,5.8-3.1,11.7c-0.4,5.9,0.6,25.1,0.6,25.2l-0.4,6.4l0.1-0.6L38,467.9
						l5.7,1.4l12-38.9l0.1-0.6l3.9-26l6.4,29.8l-0.4,38.2l5.8,0.5l5.6-38.8l0-0.2L77,432.5z"/>
					<path class="st81" d="M73.9,385.5l-26.1-0.4c-0.1,0-0.1,0-0.2,0c0,0-1.7,3.7-2.6,8.2c4.7,0.3,13.5,0.4,17.8,3.2
						c5.1,3.3,10.1,11.4,12.9,16.7L73.9,385.5z"/>
					<path class="st81" d="M54.5,408.8c-1.9,3.8-0.3,15.9-1.7,17.9c-1.3,2-4,0.5-2.2,2c1.8,1.5-3,27.5-3,27.5l0,0l8-25.8l0.1-0.6
						l3.9-26C59.6,403.7,56.4,405.1,54.5,408.8z"/>
					<path class="st63" d="M69.8,307.8c-2.2-3.4-8.4-4-13-0.6c-4.6,3.3-0.9,12.2-0.9,12.2c3.6,7.8,12.4,8.3,14.6,4.9
						C72.7,320.8,72,311.1,69.8,307.8z"/>
					<path class="st63" d="M65.7,324c0,0-0.8,6.5,1.5,10.2c0,0-3.7,0.4-6.5-0.1c-2.8-0.5,0.9-12.1,0.9-12.1S64.6,322,65.7,324z"/>
					<path class="st67" d="M67.6,301.1c-3.5-0.1-7.9,0.7-11.3,2.1c-2.9,1.3-4.7,4.4-4.3,7.6c0.6,4.9,2.5,10,4.4,12.8
						c2.6,3.7,9.8,4.7,10.7,2.6c0.9-2.1-0.4-4.4-1.9-5.6c-1.4-1.2,0.3-4.2,1.4-3.3c1.1,0.9,1.7,4.4,2.7,3.4c1-1-3.6-7.4-0.7-7.7
						c2.1-0.2,3.7-1.9,4.8-3.9c0.8-1.5,1.3-3.1,1.4-4.5C75.2,300.7,70.1,301.2,67.6,301.1z"/>
					<path class="st95" d="M58.1,329.1c0,0,1.9-1.1,4.2-0.6c2.3,0.5,5.1,1.7,5.1,1.7l1.2,3.4c0,0-4.4-1.1-6.8-1
						C59.3,332.8,56.7,332.8,58.1,329.1z"/>
					<path class="st63" d="M34.5,380.7c0,0,1.6,5.9,2.4,7.1c0.8,1.2-0.9,0.8-1.8-0.8c-0.9-1.6-1.1-0.6-1,0c0.1,0.6,0.6,4,0.5,4.8
						c-0.1,0.8-0.6-0.1-0.9-1.4c-0.4-1.3-0.6-2.1-0.6-2.1s0,3.5-0.8,3.8c-0.7,0.3-2.4-2.1-3-3.6c-0.6-1.5,2.3-8,2.3-8L34.5,380.7z"
						/>
					<path class="st63" d="M115.9,322.1c0,0,3.9-5.2,5.6-6.9c1.7-1.8,4.9-3.7,5.4-3.2c0.4,0.5-2.2,2.4-2.7,3.1
						c-0.5,0.8,1.3,1.3,2.1,2.9c0.8,1.6-0.3,3.7-1.7,4.3c-1.3,0.6-3.2,0.4-3.9,1c-0.7,0.7-2.1,1.7-2.1,1.7L115.9,322.1z"/>
					<path class="st84" d="M116.6,320.9c-3.8,3.3-7.1,7-11,10.1c-1.9,1.6-3.9,3.1-5.8,4.6c-1,0.7-2,1.4-2.9,2.1
						c-0.5,0.3-1,0.6-1.4,0.8c-0.2,0.1-0.5,0.3-0.5,0.3c-0.1,0-0.1,0-0.2,0c-0.2-0.1-1.2,0-2.3-0.1c-1,0-2.2-0.2-3.4-0.3
						c-2.3-0.3-4.7-0.7-7.1-1.1c-1.5-0.3-15.9-5.8-18.8-6.3c-0.7-0.1-1.4-0.2-2.1-0.1c-6,0.3-10.1,1.6-12.5,3.8
						c-0.5,0.4-0.9,0.8-1.3,1.3c-1.3,1.6-2.5,3.3-3.8,5c-2.8,3.8-5.5,7.5-8,11.9c-1.3,2.1-2.5,5.2-3,7.5c-0.6,2.5-0.9,4.8-1.1,7.2
						c-0.5,4.7-0.7,9.3-0.7,14l4.3,0.4c0.9-4.4,1.9-8.8,3.2-13c0.6-2.1,1.4-4.1,2.2-6c0.9-2,1.6-3.1,3-4.6c0.8-0.9,1.7-1.8,2.6-2.7
						c-0.3,11.5-1.1,25.6-1.4,34.6c12.6,4.7,30.4,1.2,30.4,1.2s0.2-21,2.2-28.8c0.9-3.4,1.8-7.9,2.3-12.3c0.6,0,1.2,0,1.8-0.1
						c2.6-0.1,5.2-0.3,7.9-0.6c1.4-0.2,2.7-0.3,4.2-0.6c1.4-0.3,2.9-0.5,5.1-1.4c0.5-0.3,1-0.6,1.5-0.9c0.5-0.3,0.7-0.5,1-0.8
						c0.6-0.5,1.1-1,1.6-1.5c1-1,1.9-1.9,2.8-2.9c1.8-1.9,3.4-3.8,5.1-5.8c3.3-3.9,6.5-7.8,9.7-11.8L116.6,320.9z"/>
					<path class="st74" d="M63.3,310.9c-2.9,0.7-1.2,7-5,7.1c-2.1,0-3.6,0.1-4.7-0.4c0.8,2.4,1.8,4.6,2.9,6.1
						c2.6,3.7,9.8,4.7,10.7,2.6c0.9-2.1-0.4-4.4-1.9-5.6c-1.4-1.2,0.3-4.2,1.4-3.3c1.1,0.9,1.7,4.4,2.7,3.4c1-1-3.6-7.4-0.7-7.7
						c2.1-0.2,3.7-1.9,4.8-3.9c0.8-1.5,1.3-3.1,1.4-4.5C74.8,304.6,72.8,310.6,63.3,310.9z"/>
					<path class="st87" d="M97.7,344.4c-3.4,0.9-12.3,2.1-20.7,1.3c-4.7,1.1-4.5,10.1-5.1,21.8c-0.7,11.8-1.3,11.9-4.6,12.9
						c-3.3,1.1-3,3,0,3.4c2.9,0.4-3.1,8.1-22.6,4.7c0,0.6,0,1.1-0.1,1.7c12.6,4.7,30.4,1.2,30.4,1.2s0.2-21,2.2-28.8
						c0.9-3.4,1.8-7.9,2.3-12.3c0.6,0,1.2,0,1.8-0.1c2.6-0.1,5.2-0.3,7.9-0.6c1.4-0.2,2.7-0.3,4.2-0.6c1.4-0.3,2.9-0.5,5.1-1.4
						c0.5-0.3,1-0.6,1.5-0.9c0.5-0.3,0.7-0.5,1-0.8c0.6-0.5,1.1-1,1.6-1.5c1-1,1.9-1.9,2.8-2.9c1.8-1.9,3.4-3.8,5.1-5.8
						c1-1.2,2.1-2.5,3.1-3.7C112.7,333,101,343.5,97.7,344.4z"/>
					<path class="st87" d="M38,358.6c-0.8,2.7-2,18.5-2,18.5s0,0,0-0.1c0.6-2.7,1.3-5.4,2.1-8.1c0.6-2.1,1.4-4.1,2.2-6
						c0.9-2,1.6-3.1,3-4.6c0.8-0.9,1.7-1.8,2.6-2.7c0,0,1.5-10.2,1.7-11.4C47.8,343.1,38.8,355.9,38,358.6z"/>
				</g>
			</g>
		</g>
	</g>
</g>
</svg>
